<?xml version="1.0" standalone="no"?>
<!DOCTYPE svg PUBLIC "-//W3C//DTD SVG 1.1//EN" "http://www.w3.org/Graphics/SVG/1.1/DTD/svg11.dtd" >
<svg>
<metadata>
Created by FontForge 20090622 at Sat Mar 24 10:16:23 2018
 By deploy user
Copyright (C)2015 Commercial Type.
</metadata>
<defs>
<font id="MegaFonGraphikLC-Light" horiz-adv-x="600" >
  <font-face 
    font-family="MegaFon Graphik LC Light"
    font-weight="300"
    font-stretch="normal"
    units-per-em="1000"
    panose-1="2 11 4 3 3 2 2 6 2 3"
    ascent="818"
    descent="-182"
    x-height="523"
    cap-height="715"
    bbox="-224 -212 1069 1091"
    underline-thickness="66"
    underline-position="-26"
    unicode-range="U+0020-U+FB02"
  />
<missing-glyph horiz-adv-x="500" 
 />
    <glyph glyph-name="f_f" unicode="ff" horiz-adv-x="611" 
d="M105 0v478h-79v45h79v86q0 79 40 119t108 40q34 0 58 -9v-45q-27 9 -56 9q-45 0 -71 -27t-26 -82v-91h226v94q0 79 39.5 119t108.5 40q28 0 57 -9v-45q-27 9 -56 9q-45 0 -70.5 -27t-25.5 -82v-99h145v-45h-145v-478h-53v478h-226v-478h-53z" />
    <glyph glyph-name=".notdef" horiz-adv-x="500" 
 />
    <glyph glyph-name=".null" horiz-adv-x="0" 
 />
    <glyph glyph-name="nonmarkingreturn" horiz-adv-x="333" 
 />
    <glyph glyph-name="space" unicode=" " horiz-adv-x="247" 
 />
    <glyph glyph-name="exclam" unicode="!" horiz-adv-x="271" 
d="M116 179l-9 536h59l-8 -536h-42zM136 -5q-18 0 -30.5 12.5t-12.5 29.5q0 18 12.5 30.5t30.5 12.5q17 0 29.5 -12.5t12.5 -30.5q0 -17 -12.5 -29.5t-29.5 -12.5z" />
    <glyph glyph-name="quotedbl" unicode="&#x22;" horiz-adv-x="305" 
d="M198 506l-9 209h58l-9 -209h-40zM67 506l-9 209h58l-9 -209h-40z" />
    <glyph glyph-name="numbersign" unicode="#" horiz-adv-x="492" 
d="M196 497l-23 -157h120l23 157h-120zM258 99l28 196h-120l-28 -196h-45l28 196h-90v45h97l23 157h-92v45h98l26 173h45l-26 -173h120l26 173h45l-26 -173h93v-45h-99l-23 -157h94v-45h-101l-28 -196h-45z" />
    <glyph glyph-name="dollar" unicode="$" horiz-adv-x="606" 
d="M122 540q0 -58 34.5 -90.5t126.5 -49.5v277q-75 -3 -118 -39.5t-43 -97.5zM495 191q0 71 -38 104t-134 50v-308q78 4 125 47t47 107zM283 -135v128q-114 6 -171 63.5t-69 148.5h54q10 -72 52 -116.5t134 -50.5v314q-109 18 -161 61.5t-52 122.5q0 80 59 131.5t154 55.5
v90h40v-91q88 -6 141.5 -52.5t64.5 -126.5h-51q-24 124 -155 134v-283q120 -20 173 -62.5t53 -136.5q0 -84 -62.5 -141.5t-163.5 -61.5v-127h-40z" />
    <glyph glyph-name="percent" unicode="%" horiz-adv-x="766" 
d="M197 398q-63 0 -110 44.5t-47 114.5t46.5 116.5t110.5 46.5q65 0 110.5 -46t45.5 -115q0 -71 -46 -116t-110 -45zM129 0l456 715h50l-455 -715h-51zM197 440q47 0 77 31.5t30 87.5q0 54 -30 86.5t-77 32.5q-46 0 -76.5 -32.5t-30.5 -88.5q0 -55 30 -86t77 -31zM568 -7
q-63 0 -109.5 45t-46.5 115t46 116.5t110 46.5q65 0 111 -46t46 -115q0 -71 -46.5 -116.5t-110.5 -45.5zM568 36q47 0 77 31.5t30 87.5q0 54 -30 86t-77 32q-46 0 -76.5 -32.5t-30.5 -87.5q0 -54 30.5 -85.5t76.5 -31.5z" />
    <glyph glyph-name="ampersand" unicode="&#x26;" horiz-adv-x="663" 
d="M201 563q0 -33 17.5 -64.5t54.5 -76.5q68 32 101.5 67t33.5 87q0 44 -27 72t-72 28q-47 0 -77.5 -30.5t-30.5 -82.5zM264 38q104 0 179 103l-195 231q-67 -33 -106 -75.5t-39 -105.5q0 -69 43 -111t118 -42zM621 362l-117 -216l125 -146h-66l-91 106q-86 -113 -210 -113
q-96 0 -154.5 54t-58.5 139q0 77 46 127t127 90q-73 90 -73 160t47 113t115 43q65 0 106.5 -41.5t41.5 -102.5q0 -112 -162 -183l177 -208l96 178h51z" />
    <glyph glyph-name="quotesingle" unicode="'" horiz-adv-x="174" 
d="M67 506l-9 209h58l-9 -209h-40z" />
    <glyph glyph-name="parenleft" unicode="(" horiz-adv-x="299" 
d="M220 -148q-165 196 -165 460q0 265 165 461h54q-163 -203 -163 -461q0 -257 163 -460h-54z" />
    <glyph glyph-name="parenright" unicode=")" horiz-adv-x="299" 
d="M26 -146q163 203 163 460q0 258 -163 461h53q165 -194 165 -461q0 -266 -165 -460h-53z" />
    <glyph glyph-name="asterisk" unicode="*" horiz-adv-x="417" 
d="M125 423l-37 27l90 117l-132 40l15 44l128 -51l-4 143h48l-4 -143l128 51l14 -44l-132 -40l90 -117l-37 -27l-84 122z" />
    <glyph glyph-name="plus" unicode="+" horiz-adv-x="510" 
d="M231 110v209h-195v46h195v209h48v-209h195v-46h-195v-209h-48z" />
    <glyph glyph-name="comma" unicode="," horiz-adv-x="229" 
d="M69 -117l-36 18l77 183l52 -24z" />
    <glyph glyph-name="hyphen" unicode="-" horiz-adv-x="333" 
d="M62 252v50h209v-50h-209z" />
    <glyph glyph-name="period" unicode="." horiz-adv-x="229" 
d="M114 -5q-17 0 -29.5 12.5t-12.5 29.5q0 18 12.5 30.5t29.5 12.5q18 0 30.5 -12.5t12.5 -30.5q0 -17 -12.5 -29.5t-30.5 -12.5z" />
    <glyph glyph-name="slash" unicode="/" horiz-adv-x="391" 
d="M13 -148l291 924h50l-291 -924h-50z" />
    <glyph glyph-name="zero" unicode="0" horiz-adv-x="659" 
d="M332 -8q-128 0 -201.5 89.5t-73.5 245.5v60q0 157 72.5 246.5t199.5 89.5t200.5 -90t73.5 -243v-61q0 -157 -71 -247t-200 -90zM332 39q106 0 160 74t54 217v60q0 132 -57.5 209.5t-159.5 77.5t-158.5 -75.5t-56.5 -213.5v-61q0 -141 57.5 -214.5t160.5 -73.5z" />
    <glyph glyph-name="one" unicode="1" horiz-adv-x="368" 
d="M191 0v657l-164 -114v52l172 120h47v-715h-55z" />
    <glyph glyph-name="two" unicode="2" horiz-adv-x="537" 
d="M20 0v13l287 297q58 60 85 111.5t27 108.5q0 70 -41 108.5t-111 38.5q-71 0 -116 -42.5t-55 -127.5h-52q8 101 68.5 158.5t154.5 57.5t151 -52t57 -143q0 -120 -136 -253l-231 -229h377v-46h-465z" />
    <glyph glyph-name="three" unicode="3" horiz-adv-x="567" 
d="M276 -8q-106 0 -170.5 60.5t-68.5 149.5h51q7 -73 54.5 -118.5t134.5 -45.5q86 0 132.5 42t46.5 118q0 71 -41 112t-122 41h-52v47h48q73 0 109 38t36 98q0 63 -38.5 102.5t-108.5 39.5q-73 0 -119 -41.5t-53 -107.5h-50q5 83 67 139.5t155 56.5q92 0 146.5 -54
t54.5 -134q0 -57 -31.5 -98.5t-85.5 -58.5q66 -15 104 -61.5t38 -118.5q0 -96 -65 -151t-172 -55z" />
    <glyph glyph-name="four" unicode="4" horiz-adv-x="595" 
d="M402 0v161h-369v17l346 537h78v-508h99v-46h-99v-161h-55zM107 207h295v467z" />
    <glyph glyph-name="five" unicode="5" horiz-adv-x="561" 
d="M268 -8q-104 0 -163 54t-67 138h54q22 -146 176 -146q85 0 133.5 52t48.5 142q0 84 -48.5 135.5t-123.5 51.5q-113 0 -177 -78h-21v374h390v-48h-343v-262q60 60 160 60q95 0 157.5 -64t62.5 -169q0 -110 -67 -175t-172 -65z" />
    <glyph glyph-name="six" unicode="6" 
d="M309 -8q-87 0 -144.5 41t-81 106.5t-23.5 153.5v52q0 189 73 283.5t196 94.5q82 0 135.5 -41t65.5 -122h-53q-22 116 -151 116q-97 0 -153.5 -76.5t-57.5 -237.5v-29q24 57 79.5 89.5t120.5 32.5q109 0 171.5 -64.5t62.5 -164.5q0 -105 -65.5 -169.5t-174.5 -64.5z
M309 37q83 0 133 51.5t50 135.5q0 85 -48 135.5t-136 50.5q-79 0 -133 -48.5t-54 -128.5q0 -86 49 -141t139 -55z" />
    <glyph glyph-name="seven" unicode="7" horiz-adv-x="504" 
d="M149 0l266 669h-387v46h457v-9l-279 -706h-57z" />
    <glyph glyph-name="eight" unicode="8" horiz-adv-x="583" 
d="M292 -8q-98 0 -169 55t-71 152q0 72 43.5 121t113.5 67q-57 16 -92 56.5t-35 99.5q0 80 62.5 130t147.5 50t147 -50t62 -128q0 -60 -33.5 -100t-91.5 -58q72 -19 113.5 -66.5t41.5 -119.5q0 -99 -69 -154t-170 -55zM295 407q66 0 108 36.5t42 101.5q0 58 -43.5 95.5
t-109.5 37.5q-67 0 -110.5 -37t-43.5 -98q0 -63 46.5 -99.5t110.5 -36.5zM292 39q82 0 132 42.5t50 121.5q0 75 -51 117t-129 42t-131.5 -43t-53.5 -118q0 -78 52 -120t131 -42z" />
    <glyph glyph-name="nine" unicode="9" horiz-adv-x="599" 
d="M290 305q80 0 134.5 47.5t54.5 124.5q0 87 -49.5 144.5t-138.5 57.5q-84 0 -134 -51.5t-50 -135.5q0 -85 48 -136t135 -51zM281 -7q-89 0 -146.5 44.5t-72.5 126.5h54q28 -125 166 -125q99 0 151 69.5t53 230.5v38q-24 -55 -80.5 -86t-122.5 -31q-107 0 -170 64t-63 166
q0 105 66 169t175 64q123 0 186 -79t63 -216v-82q0 -353 -259 -353z" />
    <glyph glyph-name="colon" unicode=":" horiz-adv-x="237" 
d="M118 320q-17 0 -29.5 12t-12.5 30t12.5 30t29.5 12q18 0 30.5 -12t12.5 -30t-12.5 -30t-30.5 -12zM118 -5q-17 0 -29.5 12.5t-12.5 29.5q0 18 12.5 30.5t29.5 12.5q18 0 30.5 -12.5t12.5 -30.5q0 -17 -12.5 -29.5t-30.5 -12.5z" />
    <glyph glyph-name="semicolon" unicode=";" horiz-adv-x="237" 
d="M123 320q-17 0 -29.5 12t-12.5 30t12.5 30t29.5 12q18 0 30.5 -12t12.5 -30t-12.5 -30t-30.5 -12zM59 -117l-36 18l77 183l53 -24z" />
    <glyph glyph-name="less" unicode="&#x3c;" horiz-adv-x="496" 
d="M435 104l-384 211v14l384 211v-52l-306 -166l306 -166v-52z" />
    <glyph glyph-name="equal" unicode="=" horiz-adv-x="484" 
d="M40 380v46h404v-46h-404zM40 213v46h404v-46h-404z" />
    <glyph glyph-name="greater" unicode="&#x3e;" horiz-adv-x="496" 
d="M61 104v52l306 166l-306 166v52l384 -211v-14z" />
    <glyph glyph-name="question" unicode="?" horiz-adv-x="477" 
d="M188 179v57q0 38 15.5 71.5t32 52.5t52.5 55q31 31 44.5 46t27 42.5t13.5 57.5q0 53 -33 85t-97 32q-65 0 -107 -40t-48 -110h-51q5 88 62 141.5t145 53.5q89 0 136.5 -45.5t47.5 -114.5q0 -13 -1.5 -25t-6 -24t-7 -20.5t-11 -20t-12 -17t-15 -18l-15 -16.5t-18 -18
l-17.5 -17q-32 -32 -47 -49t-28.5 -45.5t-13.5 -60.5v-53h-48zM211 -5q-18 0 -30.5 12.5t-12.5 29.5q0 18 12.5 30.5t30.5 12.5q17 0 29.5 -12.5t12.5 -30.5q0 -17 -12.5 -29.5t-29.5 -12.5z" />
    <glyph glyph-name="at" unicode="@" horiz-adv-x="909" 
d="M460 -147q-97 0 -177 33.5t-131 90.5t-78.5 130.5t-27.5 154.5q0 180 126.5 303t299.5 123q176 0 284.5 -104.5t108.5 -261.5q0 -126 -53.5 -189t-122.5 -63q-105 0 -114 101q-20 -44 -61.5 -76t-92.5 -32q-71 0 -115 47t-44 127q0 99 57.5 165.5t136.5 66.5
q52 0 86.5 -26.5t44.5 -66.5l9 84h53l-28 -240q-7 -52 10 -81t58 -29q55 0 92 53t37 157q0 145 -92.5 235t-253.5 90q-158 0 -267 -108.5t-109 -273.5q0 -99 40 -181t124.5 -134t199.5 -52q173 0 272 104h50q-39 -64 -124.5 -105.5t-197.5 -41.5zM430 105q60 0 103.5 53.5
t43.5 131.5q0 64 -31.5 100t-85.5 36q-59 0 -101.5 -53t-42.5 -136q0 -61 31.5 -96.5t82.5 -35.5z" />
    <glyph glyph-name="A" unicode="A" horiz-adv-x="654" 
d="M325 669l-145 -405h290zM33 0l257 715h74l257 -715h-56l-79 219h-322l-78 -219h-53z" />
    <glyph glyph-name="B" unicode="B" horiz-adv-x="604" 
d="M92 0v715h203q100 0 158.5 -44t58.5 -137v-4q0 -121 -122 -155q157 -29 157 -174v-4q0 -96 -59 -146.5t-163 -50.5h-233zM147 393h149q161 0 161 138v4q0 135 -163 135h-147v-277zM147 45h177q169 0 169 152v4q0 148 -188 148h-158v-304z" />
    <glyph glyph-name="C" unicode="C" horiz-adv-x="725" 
d="M385 -8q-152 0 -242 99t-90 262v8q0 157 95.5 260t236.5 103q115 0 194 -58.5t95 -165.5h-56q-17 87 -75.5 133t-156.5 46q-121 0 -198.5 -88t-77.5 -229v-8q0 -145 74.5 -230t201.5 -85q98 0 162.5 50t81.5 141h52q-19 -113 -99 -175.5t-198 -62.5z" />
    <glyph glyph-name="D" unicode="D" horiz-adv-x="686" 
d="M92 0v715h186q171 0 263.5 -97.5t92.5 -253.5v-9q0 -157 -91.5 -256t-266.5 -99h-184zM148 46h126q148 0 225 84.5t77 225.5v8q0 139 -76 222t-227 83h-125v-623z" />
    <glyph glyph-name="E" unicode="E" horiz-adv-x="566" 
d="M92 0v715h411v-46h-355v-279h288v-46h-288v-298h373v-46h-429z" />
    <glyph glyph-name="F" unicode="F" horiz-adv-x="540" 
d="M92 0v715h407v-46h-351v-284h276v-46h-276v-339h-56z" />
    <glyph glyph-name="G" unicode="G" horiz-adv-x="756" 
d="M396 -8q-159 0 -251 100.5t-92 260.5v8q0 157 97 260t244 103q110 0 189 -53.5t98 -159.5h-56q-19 85 -79.5 126.5t-150.5 41.5q-128 0 -206.5 -88.5t-78.5 -228.5v-8q0 -145 75 -230.5t211 -85.5q122 0 186.5 69.5t66.5 190.5v4h-220v47h274v-41q0 -152 -83 -234
t-224 -82z" />
    <glyph glyph-name="H" unicode="H" horiz-adv-x="717" 
d="M92 0v715h56v-333h421v333h56v-715h-56v335h-421v-335h-56z" />
    <glyph glyph-name="I" unicode="I" horiz-adv-x="250" 
d="M97 0v715h56v-715h-56z" />
    <glyph glyph-name="J" unicode="J" horiz-adv-x="401" 
d="M137 -7q-58 0 -100 20v47q48 -21 97 -21q129 0 129 144v532h56v-534q0 -95 -49.5 -141.5t-132.5 -46.5z" />
    <glyph glyph-name="K" unicode="K" horiz-adv-x="599" 
d="M92 0v715h56v-352l347 353h64l-346 -349l363 -367h-68l-360 361v-361h-56z" />
    <glyph glyph-name="L" unicode="L" horiz-adv-x="530" 
d="M92 0v715h56v-669h347v-46h-403z" />
    <glyph glyph-name="M" unicode="M" horiz-adv-x="851" 
d="M92 0v715h80l252 -614l253 614h78v-715h-55v645l-269 -645h-18l-269 645v-645h-52z" />
    <glyph glyph-name="N" unicode="N" horiz-adv-x="713" 
d="M92 0v715h76l400 -638v638h53v-715h-66l-409 653v-653h-54z" />
    <glyph glyph-name="O" unicode="O" horiz-adv-x="801" 
d="M403 -8q-151 0 -250.5 104.5t-99.5 256.5v8q0 153 99 257.5t249 104.5t249 -104t99 -256v-8q0 -153 -98.5 -258t-247.5 -105zM403 39q127 0 207.5 89.5t80.5 227.5v8q0 133 -80.5 223t-209.5 90q-130 0 -210.5 -89t-80.5 -226v-8q0 -136 84 -225.5t209 -89.5z" />
    <glyph glyph-name="P" unicode="P" horiz-adv-x="568" 
d="M92 0v715h189q111 0 177.5 -49t66.5 -152v-4q0 -105 -66 -154.5t-177 -49.5h-134v-306h-56zM148 351h138q183 0 183 159v4q0 83 -48 119t-137 36h-136v-318z" />
    <glyph glyph-name="Q" unicode="Q" horiz-adv-x="801" 
d="M672 -60l-93 100q-79 -48 -176 -48q-151 0 -250.5 104.5t-99.5 256.5v8q0 153 99 257.5t249 104.5t249 -104t99 -256v-8q0 -87 -34.5 -162.5t-96.5 -125.5l88 -94zM403 39q80 0 143 37l-101 110l34 33l106 -116q106 90 106 253v8q0 133 -80.5 223t-209.5 90
q-130 0 -210.5 -89t-80.5 -226v-8q0 -136 84 -225.5t209 -89.5z" />
    <glyph glyph-name="R" unicode="R" horiz-adv-x="606" 
d="M148 371h143q184 0 184 148v4q0 79 -47.5 112.5t-136.5 33.5h-143v-298zM92 0v715h196q111 0 177 -46.5t66 -145.5v-4q0 -163 -185 -189l227 -330h-62l-224 326h-139v-326h-56z" />
    <glyph glyph-name="S" unicode="S" horiz-adv-x="602" 
d="M308 -8q-125 0 -189.5 58.5t-76.5 154.5h55q22 -167 211 -167q83 0 134 43t51 110q0 74 -41.5 107t-150.5 50q-120 18 -175.5 61.5t-55.5 126.5t62.5 135t162.5 52q99 0 158.5 -47t71.5 -133h-51q-26 134 -179 134q-82 0 -127.5 -36t-45.5 -101q0 -61 40 -93.5t148 -48.5
q126 -19 181.5 -62.5t55.5 -140.5q0 -86 -66.5 -144.5t-172.5 -58.5z" />
    <glyph glyph-name="T" unicode="T" horiz-adv-x="559" 
d="M252 0v669h-222v46h499v-46h-222v-669h-55z" />
    <glyph glyph-name="U" unicode="U" horiz-adv-x="682" 
d="M338 -7q-122 0 -189 68t-67 195v459h55v-453q0 -222 202 -222q105 0 155.5 55.5t50.5 179.5v440h56v-448q0 -131 -66 -202.5t-197 -71.5z" />
    <glyph glyph-name="V" unicode="V" horiz-adv-x="637" 
d="M288 0l-259 715h55l239 -660l232 660h52l-253 -715h-66z" />
    <glyph glyph-name="W" unicode="W" horiz-adv-x="920" 
d="M222 0l-189 715h56l164 -630l189 630h39l182 -632l173 632h51l-196 -715h-54l-176 616l-186 -616h-53z" />
    <glyph glyph-name="X" unicode="X" horiz-adv-x="646" 
d="M46 0l247 370l-226 345h61l200 -303l198 303h58l-228 -346l244 -369h-63l-217 328l-217 -328h-57z" />
    <glyph glyph-name="Y" unicode="Y" horiz-adv-x="578" 
d="M268 0v318l-245 397h62l212 -350l202 350h56l-231 -398v-317h-56z" />
    <glyph glyph-name="Z" unicode="Z" horiz-adv-x="587" 
d="M27 0v11l443 658h-407v46h485v-10l-437 -657h431v-48h-515z" />
    <glyph glyph-name="bracketleft" unicode="[" horiz-adv-x="340" 
d="M93 -148v924h206v-43h-153v-838h153v-43h-206z" />
    <glyph glyph-name="backslash" unicode="\" horiz-adv-x="391" 
d="M328 -148l-291 924h50l291 -924h-50z" />
    <glyph glyph-name="bracketright" unicode="]" horiz-adv-x="340" 
d="M42 -148v43h152v838h-152v43h205v-924h-205z" />
    <glyph glyph-name="asciicircum" unicode="^" horiz-adv-x="478" 
d="M46 422l167 293h53l167 -293h-55l-139 245l-140 -245h-53z" />
    <glyph glyph-name="underscore" unicode="_" horiz-adv-x="389" 
d="M-1 -151v44h391v-44h-391z" />
    <glyph glyph-name="grave" unicode="`" horiz-adv-x="400" 
d="M184 605l-92 147h65l68 -147h-41z" />
    <glyph glyph-name="a" unicode="a" horiz-adv-x="529" 
d="M225 35q73 0 123 38t50 96v89h-107q-59 0 -99.5 -9t-67.5 -36t-27 -72q0 -106 128 -106zM221 -8q-80 0 -128.5 38.5t-48.5 110.5q0 84 68 121t177 37h109v47q0 73 -31.5 106.5t-100.5 33.5q-130 0 -147 -111h-52q9 78 65 117t136 39q183 0 183 -185v-346h-53v80
q-57 -88 -177 -88z" />
    <glyph glyph-name="b" unicode="b" horiz-adv-x="612" 
d="M334 -8q-72 0 -124 37t-75 90v-119h-53v773h53v-372q24 54 78.5 92t120.5 38q101 0 168 -72t67 -192v-8q0 -121 -66 -194t-169 -73zM330 37q84 0 134 58.5t50 161.5v8q0 104 -53 162.5t-132 58.5q-81 0 -138 -59t-57 -162v-8q0 -104 55.5 -162t140.5 -58z" />
    <glyph glyph-name="c" unicode="c" horiz-adv-x="556" 
d="M293 -8q-107 0 -178.5 73.5t-71.5 190.5v8q0 118 72 192.5t178 74.5q85 0 146.5 -45t71.5 -129h-52q-9 63 -55 96t-111 33q-84 0 -139.5 -60.5t-55.5 -161.5v-8q0 -101 55 -160t140 -59q68 0 116.5 38t57.5 106h49q-11 -84 -72.5 -136.5t-150.5 -52.5z" />
    <glyph glyph-name="d" unicode="d" horiz-adv-x="612" 
d="M283 37q83 0 139 58.5t56 162.5v8q0 105 -51.5 162.5t-135.5 57.5q-86 0 -139.5 -59t-53.5 -163v-8q0 -104 52 -161.5t133 -57.5zM278 -8q-103 0 -169 70.5t-66 191.5v8q0 119 69 194t174 75q134 0 191 -124v366h53v-773h-53v121q-23 -52 -76.5 -90.5t-122.5 -38.5z" />
    <glyph glyph-name="e" unicode="e" horiz-adv-x="554" 
d="M291 -8q-113 0 -180.5 73t-67.5 191v8q0 118 67.5 192.5t172.5 74.5q100 0 164.5 -65.5t64.5 -189.5v-19h-414q2 -106 51.5 -163t141.5 -57q137 0 164 109h53q-16 -74 -74 -114t-143 -40zM100 300h357q-4 93 -49.5 139.5t-124.5 46.5q-76 0 -126 -50.5t-57 -135.5z" />
    <glyph glyph-name="f" unicode="f" horiz-adv-x="333" 
d="M105 0v478h-79v45h79v94q0 79 40 119t108 40q29 0 58 -9v-45q-27 9 -56 9q-45 0 -71 -27t-26 -82v-99h146v-45h-146v-478h-53z" />
    <glyph glyph-name="g" unicode="g" horiz-adv-x="612" 
d="M284 62q82 0 138 56.5t56 151.5v8q0 97 -51.5 152.5t-135.5 55.5q-85 0 -139 -57t-54 -153v-8q0 -95 53 -150.5t133 -55.5zM288 -188q-107 0 -165 44.5t-69 113.5h54q24 -113 179 -113q89 0 139.5 43.5t50.5 136.5v107q-23 -52 -76.5 -89.5t-121.5 -37.5q-102 0 -169 69
t-67 181v7q0 111 69.5 184t173.5 73q134 0 191 -121v113h53v-488q-1 -111 -66.5 -167t-175.5 -56z" />
    <glyph glyph-name="h" unicode="h" horiz-adv-x="583" 
d="M82 0v773h53v-352q19 46 69 78t116 32q87 0 136.5 -51t49.5 -158v-322h-53v325q0 160 -145 160q-70 0 -121.5 -45t-51.5 -123v-317h-53z" />
    <glyph glyph-name="i" unicode="i" horiz-adv-x="221" 
d="M110 635q-16 0 -27 11t-11 27q0 15 11 26t27 11t26.5 -11t10.5 -26q0 -16 -10.5 -27t-26.5 -11zM84 0v523h53v-523h-53z" />
    <glyph glyph-name="j" unicode="j" horiz-adv-x="221" 
d="M110 635q-16 0 -27 11t-11 27q0 15 11 26t27 11t26.5 -11t10.5 -26q0 -16 -10.5 -27t-26.5 -11zM7 -188v45q43 4 60 25.5t17 65.5v575h53v-571q0 -70 -30 -103.5t-100 -36.5z" />
    <glyph glyph-name="k" unicode="k" horiz-adv-x="487" 
d="M82 0v773h53v-496l255 246h63l-255 -244l272 -279h-66l-269 277v-277h-53z" />
    <glyph glyph-name="l" unicode="l" horiz-adv-x="222" 
d="M84 0v773h54v-773h-54z" />
    <glyph glyph-name="m" unicode="m" horiz-adv-x="904" 
d="M82 0v523h53v-99q19 46 64.5 76.5t106.5 30.5q129 0 160 -117q24 55 75 86t111 31q81 0 128 -49t47 -155v-327h-53v330q0 81 -33 118t-98 37t-113.5 -44.5t-48.5 -121.5v-319h-53v330q0 81 -33 118t-98 37t-113.5 -44.5t-48.5 -121.5v-319h-53z" />
    <glyph glyph-name="n" unicode="n" horiz-adv-x="583" 
d="M82 0v523h53v-102q19 46 69 78t116 32q87 0 136.5 -51t49.5 -158v-322h-53v325q0 160 -145 160q-70 0 -121.5 -45t-51.5 -123v-317h-53z" />
    <glyph glyph-name="o" unicode="o" horiz-adv-x="591" 
d="M295 -8q-107 0 -179.5 75t-72.5 190v8q0 116 73 191t180 75q108 0 180 -74t72 -191v-8q0 -117 -73 -191.5t-180 -74.5zM296 37q86 0 141.5 60t55.5 160v8q0 101 -56 161t-141 60q-86 0 -142 -60.5t-56 -160.5v-8q0 -99 55.5 -159.5t142.5 -60.5z" />
    <glyph glyph-name="p" unicode="p" horiz-adv-x="612" 
d="M330 37q84 0 134 58.5t50 161.5v8q0 104 -53 162.5t-132 58.5q-81 0 -138 -59t-57 -162v-8q0 -104 55.5 -162t140.5 -58zM82 -182v705h53v-122q24 54 78.5 92t120.5 38q101 0 168 -72t67 -192v-8q0 -121 -66 -194t-169 -73q-73 0 -124.5 36.5t-74.5 90.5v-301h-53z" />
    <glyph glyph-name="q" unicode="q" horiz-adv-x="612" 
d="M477 -182v303q-23 -52 -76.5 -90.5t-122.5 -38.5q-103 0 -169 70.5t-66 191.5v8q0 119 69 194t174 75q134 0 191 -124v116h53v-705h-53zM283 37q83 0 139 58.5t56 162.5v8q0 105 -51.5 162.5t-135.5 57.5q-86 0 -139.5 -59t-53.5 -163v-8q0 -104 52 -161.5t133 -57.5z
" />
    <glyph glyph-name="r" unicode="r" horiz-adv-x="348" 
d="M82 0v523h53v-110q51 113 177 117v-50q-177 -7 -177 -190v-290h-53z" />
    <glyph glyph-name="s" unicode="s" horiz-adv-x="465" 
d="M239 -9q-91 0 -143.5 44.5t-57.5 120.5h51q15 -120 150 -120q65 0 99 27.5t34 75.5t-30 70t-107 36q-99 18 -139.5 49t-40.5 97q0 64 51 102t121 38q163 0 182 -142h-51q-19 97 -132 97q-55 0 -88.5 -25.5t-33.5 -67.5q0 -44 30.5 -65.5t112.5 -35.5q93 -17 134.5 -47
t41.5 -102q0 -68 -48.5 -110t-135.5 -42z" />
    <glyph glyph-name="t" unicode="t" horiz-adv-x="338" 
d="M230 -7q-62 0 -95 35t-33 98v352h-77v45h77v119h53v-119h137v-45h-137v-348q0 -92 78 -92q33 0 66 11v-45q-31 -11 -69 -11z" />
    <glyph glyph-name="u" unicode="u" horiz-adv-x="579" 
d="M261 -8q-86 0 -135 48.5t-49 151.5v331h53v-328q0 -157 143 -157q69 0 120 44.5t51 122.5v318h53v-523h-53v100q-19 -46 -68 -77t-115 -31z" />
    <glyph glyph-name="v" unicode="v" horiz-adv-x="518" 
d="M226 0l-201 523h58l178 -470l177 470h54l-197 -523h-69z" />
    <glyph glyph-name="w" unicode="w" horiz-adv-x="776" 
d="M192 0l-163 523h57l140 -458l143 458h45l138 -458l141 458h54l-165 -523h-61l-130 438l-139 -438h-60z" />
    <glyph glyph-name="x" unicode="x" horiz-adv-x="511" 
d="M29 0l194 270l-182 253h63l151 -213l149 213h59l-179 -249l198 -274h-63l-166 234l-166 -234h-58z" />
    <glyph glyph-name="y" unicode="y" horiz-adv-x="508" 
d="M137 -182l95 227l-207 478h57l179 -417l167 417h54l-290 -705h-55z" />
    <glyph glyph-name="z" unicode="z" horiz-adv-x="474" 
d="M24 0v9l340 469h-310v45h393v-10l-337 -466h330v-47h-416z" />
    <glyph glyph-name="braceleft" unicode="{" horiz-adv-x="363" 
d="M321 -146q-108 0 -154.5 46.5t-26.5 152.5l22 114q11 57 -17.5 92.5t-102.5 36.5v40q74 1 102.5 36.5t17.5 92.5l-22 114q-20 106 26.5 152.5t154.5 46.5v-42q-83 -1 -115 -34.5t-16 -121.5l23 -120q21 -117 -94 -144q115 -27 94 -144l-23 -120q-16 -88 16 -121.5
t115 -34.5v-42z" />
    <glyph glyph-name="bar" unicode="|" horiz-adv-x="241" 
d="M98 -148v924h45v-924h-45z" />
    <glyph glyph-name="braceright" unicode="}" horiz-adv-x="363" 
d="M42 -146v42q82 1 114 34.5t16 121.5l-22 120q-21 117 94 144q-115 27 -94 144l22 120q16 88 -16 121.5t-114 34.5v42q108 0 154.5 -46.5t26.5 -152.5l-23 -114q-11 -57 18 -92.5t103 -36.5v-40q-74 -1 -103 -36.5t-18 -92.5l23 -114q20 -106 -26.5 -152.5t-154.5 -46.5z
" />
    <glyph glyph-name="asciitilde" unicode="~" horiz-adv-x="438" 
d="M46 232q5 51 32 80.5t65 29.5q35 0 83 -30t67 -30q22 0 37 17t17 45h44q-4 -52 -30.5 -81t-63.5 -29t-85 30t-67 30q-21 0 -36 -17t-19 -45h-44z" />
    <glyph glyph-name="uni00A0" unicode="&#xa0;" horiz-adv-x="247" 
 />
    <glyph glyph-name="exclamdown" unicode="&#xa1;" horiz-adv-x="272" 
d="M136 518q-17 0 -29.5 12.5t-12.5 30.5q0 17 12.5 29.5t29.5 12.5q18 0 30.5 -12.5t12.5 -29.5q0 -18 -12.5 -30.5t-30.5 -12.5zM106 -117l8 536h42l9 -536h-59z" />
    <glyph glyph-name="cent" unicode="&#xa2;" horiz-adv-x="553" 
d="M98 256q0 -97 47.5 -154t124.5 -64v447q-76 -8 -124 -66.5t-48 -154.5v-8zM270 -135v128q-100 8 -163.5 78.5t-63.5 184.5v8q0 113 64.5 185.5t162.5 80.5v99h40v-99q79 -5 135.5 -49.5t65.5 -123.5h-52q-9 58 -49.5 90.5t-99.5 37.5v-447q62 5 105 42t52 101h49
q-11 -80 -67.5 -131.5t-138.5 -56.5v-128h-40z" />
    <glyph glyph-name="sterling" unicode="&#xa3;" horiz-adv-x="589" 
d="M49 327v41h71q-24 83 -24 151q0 91 61 147.5t155 56.5t148.5 -49.5t62.5 -133.5h-54q-11 68 -48 102t-109 34q-71 0 -115 -43.5t-44 -113.5q0 -63 23 -151h229v-41h-218q19 -78 19 -137q0 -42 -18 -81q34 -5 106.5 -37t106.5 -32q97 0 103 104h48q-5 -69 -43.5 -110.5
t-102.5 -41.5q-49 0 -128 36.5t-110 36.5q-34 0 -54 -18.5t-24 -46.5h-48q4 37 28 68.5t66 39.5q20 38 20 83q0 55 -24 136h-83z" />
    <glyph glyph-name="yen" unicode="&#xa5;" horiz-adv-x="548" 
d="M73 305v39h171l-216 371h60l195 -340l183 340h54l-203 -371h171v-39h-180v-97h180v-39h-180v-169h-54v169h-181v39h181v97h-181z" />
    <glyph glyph-name="brokenbar" unicode="&#xa6;" horiz-adv-x="244" 
d="M98 367v409h45v-409h-45zM98 -148v445h45v-445h-45z" />
    <glyph glyph-name="section" unicode="&#xa7;" horiz-adv-x="535" 
d="M325 169q111 25 111 110q0 47 -34 72t-111 47l-77 23q-52 -9 -83.5 -38t-31.5 -72q0 -48 35 -72.5t113 -46.5zM266 -137q-80 0 -130.5 40.5t-54.5 112.5h55q5 -51 38 -79t91 -28q59 0 89.5 29.5t30.5 77.5q0 52 -32.5 78t-121.5 49q-92 24 -138.5 60t-46.5 104
q0 51 35.5 87t92.5 50q-36 22 -53 51.5t-17 76.5q0 66 50 109t119 43q77 0 121.5 -38t48.5 -108h-54q-5 49 -32 74.5t-83 25.5q-53 0 -85.5 -28.5t-32.5 -76.5q0 -49 30.5 -75t115.5 -50q95 -27 141 -62t46 -104q0 -50 -32.5 -85.5t-89.5 -50.5q70 -40 70 -129
q0 -67 -48 -110.5t-123 -43.5z" />
    <glyph glyph-name="dieresis" unicode="&#xa8;" horiz-adv-x="400" 
d="M283 636q-15 0 -25.5 11t-10.5 26t10.5 25.5t25.5 10.5q16 0 26.5 -10.5t10.5 -25.5t-10.5 -26t-26.5 -11zM117 636q-16 0 -26.5 11t-10.5 26t10.5 25.5t26.5 10.5q15 0 25.5 -10.5t10.5 -25.5t-10.5 -26t-25.5 -11z" />
    <glyph glyph-name="copyright" unicode="&#xa9;" horiz-adv-x="844" 
d="M421 -9q-153 0 -259.5 105.5t-106.5 260.5q0 153 107 260t261 107q155 0 260.5 -106t105.5 -259q0 -156 -106.5 -262t-261.5 -106zM421 23q137 0 234 96t97 240q0 143 -95.5 238t-233.5 95q-139 0 -235 -96t-96 -239q0 -144 97 -239t232 -95zM424 151q-90 0 -142.5 56
t-52.5 149v7q0 90 55.5 147.5t138.5 57.5q69 0 115.5 -34.5t55.5 -98.5h-52q-17 91 -119 91q-62 0 -101 -44.5t-39 -118.5v-6q0 -76 38 -119.5t103 -43.5q50 0 83.5 26t41.5 73h49q-9 -68 -56 -105t-118 -37z" />
    <glyph glyph-name="ordfeminine" unicode="&#xaa;" horiz-adv-x="418" 
d="M184 342q54 0 91 28t37 72v65h-79q-145 0 -145 -87q0 -78 96 -78zM176 302q-62 0 -100.5 30t-38.5 87q0 125 194 125h81v33q0 54 -23.5 79t-75.5 25q-93 0 -108 -80h-50q6 60 51 91t110 31q146 0 146 -146v-268h-50v60q-44 -67 -136 -67z" />
    <glyph glyph-name="guillemotleft" unicode="&#xab;" horiz-adv-x="448" 
d="M347 83l-135 178l135 178h54l-132 -178l132 -178h-54zM189 83l-135 178l135 178h54l-132 -178l132 -178h-54z" />
    <glyph glyph-name="uni00AD" unicode="&#xad;" horiz-adv-x="333" 
d="M62 252v50h209v-50h-209z" />
    <glyph glyph-name="registered" unicode="&#xae;" horiz-adv-x="514" 
d="M257 282q-93 0 -157.5 63.5t-64.5 156.5q0 92 64.5 157t157.5 65q94 0 158 -64t64 -157t-64.5 -157t-157.5 -64zM257 310q81 0 136 55t55 138q0 84 -54 139t-137 55q-82 0 -136.5 -55.5t-54.5 -139.5t55 -138t136 -54zM220 514h37q48 0 48 38v1q0 39 -48 39h-37v-78z
M183 393v228h75q39 0 61 -17t22 -50v-1q0 -49 -51 -61l65 -99h-41l-61 93h-33v-93h-37z" />
    <glyph glyph-name="macron" unicode="&#xaf;" horiz-adv-x="400" 
d="M79 647v42h242v-42h-242z" />
    <glyph glyph-name="degree" unicode="&#xb0;" horiz-adv-x="407" 
d="M204 427q-64 0 -108.5 43.5t-44.5 104.5q0 62 44.5 105.5t108.5 43.5q63 0 107.5 -43.5t44.5 -105.5q0 -61 -44.5 -104.5t-107.5 -43.5zM204 466q45 0 74.5 31.5t29.5 77.5t-29.5 78t-74.5 32t-75.5 -32t-30.5 -78t30.5 -77.5t75.5 -31.5z" />
    <glyph glyph-name="plusminus" unicode="&#xb1;" horiz-adv-x="510" 
d="M231 131v199h-195v45h195v199h48v-199h195v-45h-195v-199h-48zM36 0v45h438v-45h-438z" />
    <glyph glyph-name="twosuperior" unicode="&#xb2;" horiz-adv-x="287" 
d="M15 372v9l130 131q62 64 62 108q0 30 -18 47t-48 17q-66 0 -75 -78h-41q3 53 34.5 83t82.5 30q50 0 79.5 -27t29.5 -71q0 -34 -17 -62t-55 -65l-90 -87h166v-35h-240z" />
    <glyph glyph-name="threesuperior" unicode="&#xb3;" horiz-adv-x="308" 
d="M153 368q-58 0 -92.5 29t-36.5 76h41q4 -31 26 -51t61 -20q37 0 57.5 17.5t20.5 49.5q0 30 -19 47.5t-54 17.5h-27v33h25q33 0 49.5 16t16.5 43t-18 43t-49 16q-33 0 -53 -18t-24 -48h-40q3 44 34.5 72t83.5 28q49 0 79 -25.5t30 -65.5q0 -58 -59 -75q31 -7 50.5 -29
t19.5 -56q0 -47 -33 -73.5t-89 -26.5z" />
    <glyph glyph-name="acute" unicode="&#xb4;" horiz-adv-x="400" 
d="M175 605l68 147h65l-92 -147h-41z" />
    <glyph glyph-name="mu" unicode="&#xb5;" horiz-adv-x="584" 
d="M83 -182v705h53v-337q0 -148 147 -148q68 0 117 44.5t49 122.5v318h53v-523h-53v100q-19 -46 -64.5 -76t-108.5 -30q-105 0 -140 77v-253h-53z" />
    <glyph glyph-name="paragraph" unicode="&#xb6;" horiz-adv-x="559" 
d="M271 -100v453h-14q-96 0 -154 45.5t-58 131.5q0 90 59 137.5t153 47.5h208v-815h-46v777h-103v-777h-45z" />
    <glyph glyph-name="periodcentered" unicode="&#xb7;" horiz-adv-x="229" 
d="M114 281q-17 0 -29.5 12.5t-12.5 30.5q0 17 12.5 29.5t29.5 12.5q18 0 30.5 -12.5t12.5 -29.5q0 -18 -12.5 -30.5t-30.5 -12.5z" />
    <glyph glyph-name="cedilla" unicode="&#xb8;" horiz-adv-x="400" 
d="M210 -212q-40 0 -66 21.5t-30 56.5h44q3 -18 16 -30t34 -12q23 0 36.5 12t13.5 32q0 39 -45 39q-20 0 -36 -8l-26 21l45 80h43l-35 -61q40 9 70.5 -10.5t30.5 -62.5q0 -37 -27 -57.5t-68 -20.5z" />
    <glyph glyph-name="onesuperior" unicode="&#xb9;" horiz-adv-x="217" 
d="M109 372v296l-88 -61v41l96 67h37v-343h-45z" />
    <glyph glyph-name="ordmasculine" unicode="&#xba;" horiz-adv-x="475" 
d="M237 302q-85 0 -141.5 58t-56.5 149v6q0 92 57 149.5t142 57.5q86 0 142 -56.5t56 -149.5v-6q0 -94 -56.5 -151t-142.5 -57zM238 344q64 0 105 45.5t41 120.5v6q0 75 -41 119.5t-105 44.5t-105.5 -45.5t-41.5 -119.5v-6q0 -74 41.5 -119.5t105.5 -45.5z" />
    <glyph glyph-name="guillemotright" unicode="&#xbb;" horiz-adv-x="448" 
d="M205 83l132 178l-132 178h54l135 -178l-135 -178h-54zM47 83l132 178l-132 178h54l135 -178l-135 -178h-54z" />
    <glyph glyph-name="onequarter" unicode="&#xbc;" horiz-adv-x="661" 
d="M112 372v296l-88 -61v41l96 67h37v-343h-45zM45 0l516 715h45l-516 -715h-45zM543 0v74h-178v16l164 253h57v-235h47v-34h-47v-74h-43zM416 108h128v202z" />
    <glyph glyph-name="onehalf" unicode="&#xbd;" horiz-adv-x="665" 
d="M113 372v296l-88 -61v41l96 67h37v-343h-45zM29 0l516 715h45l-516 -715h-45zM389 0v9l130 132q62 62 62 108q0 29 -18 46t-48 17q-66 0 -75 -78h-41q3 53 34.5 83t82.5 30t80 -26.5t29 -71.5q0 -59 -72 -126l-90 -88h166v-35h-240z" />
    <glyph glyph-name="threequarters" unicode="&#xbe;" horiz-adv-x="675" 
d="M156 368q-58 0 -92.5 29t-36.5 76h41q4 -31 26 -51t61 -20q37 0 57.5 17.5t20.5 49.5q0 30 -19 47.5t-54 17.5h-27v33h25q33 0 49.5 16t16.5 43t-18 43t-49 16q-33 0 -53 -18t-24 -48h-40q3 44 34.5 72t83.5 28q49 0 79 -25.5t30 -65.5q0 -58 -59 -75q31 -7 50.5 -29
t19.5 -56q0 -47 -33 -73.5t-89 -26.5zM86 0l516 715h45l-516 -715h-45zM553 0v74h-178v16l164 253h57v-235h47v-34h-47v-74h-43zM426 108h128v202z" />
    <glyph glyph-name="questiondown" unicode="&#xbf;" horiz-adv-x="477" 
d="M266 603q17 0 29.5 -12.5t12.5 -29.5q0 -18 -12.5 -30.5t-29.5 -12.5q-18 0 -30.5 12.5t-12.5 30.5q0 17 12.5 29.5t30.5 12.5zM289 419v-57q0 -38 -15.5 -71.5t-32 -52.5t-52.5 -55l-45 -46t-27.5 -42.5t-13.5 -57.5q0 -53 33.5 -85t97.5 -32q66 0 107.5 40.5
t46.5 109.5h51q-5 -88 -61.5 -141.5t-144.5 -53.5q-90 0 -137 45.5t-47 114.5q0 15 2.5 29t5.5 24.5t11 24t11.5 20t16.5 21t16.5 18l19.5 20l19 19.5q34 34 48 50t28 44.5t14 60.5v53h48z" />
    <glyph glyph-name="Agrave" unicode="&#xc0;" horiz-adv-x="654" 
d="M325 669l-145 -405h290zM33 0l257 715h74l257 -715h-56l-79 219h-322l-78 -219h-53zM308 771l-88 122h66l64 -122h-42z" />
    <glyph glyph-name="Aacute" unicode="&#xc1;" horiz-adv-x="654" 
d="M325 669l-145 -405h290zM33 0l257 715h74l257 -715h-56l-79 219h-322l-78 -219h-53zM295 771l64 122h66l-88 -122h-42z" />
    <glyph glyph-name="Acircumflex" unicode="&#xc2;" horiz-adv-x="654" 
d="M325 669l-145 -405h290zM33 0l257 715h74l257 -715h-56l-79 219h-322l-78 -219h-53zM189 771l110 122h50l108 -122h-42l-92 78l-93 -78h-41z" />
    <glyph glyph-name="Atilde" unicode="&#xc3;" horiz-adv-x="654" 
d="M325 669l-145 -405h290zM33 0l257 715h74l257 -715h-56l-79 219h-322l-78 -219h-53zM385 774q-26 0 -66.5 26.5t-56.5 26.5q-17 0 -29.5 -14.5t-16.5 -39.5h-41q6 47 29.5 73t57.5 26q25 0 65.5 -26.5t57.5 -26.5t29.5 14.5t16.5 39.5h40q-6 -47 -29.5 -73t-56.5 -26z
" />
    <glyph glyph-name="Adieresis" unicode="&#xc4;" horiz-adv-x="654" 
d="M325 669l-145 -405h290zM33 0l257 715h74l257 -715h-56l-79 219h-322l-78 -219h-53zM413 788q-15 0 -25.5 11t-10.5 26q0 14 10.5 25t25.5 11t25.5 -11t10.5 -25q0 -15 -10.5 -26t-25.5 -11zM233 788q-16 0 -26.5 11t-10.5 26t11 25.5t26 10.5t25.5 -11t10.5 -25
q0 -15 -10.5 -26t-25.5 -11z" />
    <glyph glyph-name="Aring" unicode="&#xc5;" horiz-adv-x="654" 
d="M325 669l-145 -405h290zM33 0l257 715h74l257 -715h-56l-79 219h-322l-78 -219h-53zM323 754q-40 0 -69 28.5t-29 67.5t29 67t69 28t69 -28t29 -67t-29 -67.5t-69 -28.5zM323 786q26 0 43.5 18.5t17.5 45.5t-17.5 45.5t-43.5 18.5t-43.5 -18.5t-17.5 -45.5t17.5 -45.5
t43.5 -18.5z" />
    <glyph glyph-name="AE" unicode="&#xc6;" horiz-adv-x="946" 
d="M421 669l-203 -405h254v405h-51zM29 0l363 715h491v-46h-355v-279h288v-46h-288v-298h373v-46h-429v220h-276l-110 -220h-57z" />
    <glyph glyph-name="Ccedilla" unicode="&#xc7;" horiz-adv-x="725" 
d="M371 -212q-40 0 -66 21.5t-30 56.5h44q3 -18 16 -30t34 -12q23 0 36.5 12t13.5 32q0 39 -45 39q-20 0 -36 -8l-26 21l41 73q-139 10 -219.5 107.5t-80.5 252.5v8q0 157 95.5 260t236.5 103q115 0 194 -58.5t95 -165.5h-56q-17 87 -75.5 133t-156.5 46q-121 0 -198.5 -88
t-77.5 -229v-8q0 -145 74.5 -230t201.5 -85q98 0 162.5 50t81.5 141h52q-19 -111 -96 -173t-191 -65l-30 -53q40 9 70.5 -10.5t30.5 -62.5q0 -37 -27 -57.5t-68 -20.5z" />
    <glyph glyph-name="Egrave" unicode="&#xc8;" horiz-adv-x="566" 
d="M92 0v715h411v-46h-355v-279h288v-46h-288v-298h373v-46h-429zM284 771l-88 122h66l64 -122h-42z" />
    <glyph glyph-name="Eacute" unicode="&#xc9;" horiz-adv-x="566" 
d="M92 0v715h411v-46h-355v-279h288v-46h-288v-298h373v-46h-429zM271 771l64 122h66l-88 -122h-42z" />
    <glyph glyph-name="Ecircumflex" unicode="&#xca;" horiz-adv-x="566" 
d="M92 0v715h411v-46h-355v-279h288v-46h-288v-298h373v-46h-429zM165 771l110 122h50l108 -122h-42l-92 78l-93 -78h-41z" />
    <glyph glyph-name="Edieresis" unicode="&#xcb;" horiz-adv-x="566" 
d="M92 0v715h411v-46h-355v-279h288v-46h-288v-298h373v-46h-429zM389 788q-15 0 -25.5 11t-10.5 26q0 14 10.5 25t25.5 11t25.5 -11t10.5 -25q0 -15 -10.5 -26t-25.5 -11zM209 788q-16 0 -26.5 11t-10.5 26t11 25.5t26 10.5t25.5 -11t10.5 -25q0 -15 -10.5 -26t-25.5 -11z
" />
    <glyph glyph-name="Igrave" unicode="&#xcc;" horiz-adv-x="250" 
d="M97 0v715h56v-715h-56zM110 771l-88 122h66l64 -122h-42z" />
    <glyph glyph-name="Iacute" unicode="&#xcd;" horiz-adv-x="250" 
d="M97 0v715h56v-715h-56zM97 771l64 122h66l-88 -122h-42z" />
    <glyph glyph-name="Icircumflex" unicode="&#xce;" horiz-adv-x="250" 
d="M97 0v715h56v-715h-56zM-9 771l110 122h50l108 -122h-42l-92 78l-93 -78h-41z" />
    <glyph glyph-name="Idieresis" unicode="&#xcf;" horiz-adv-x="250" 
d="M97 0v715h56v-715h-56zM215 788q-15 0 -25.5 11t-10.5 26q0 14 10.5 25t25.5 11t25.5 -11t10.5 -25q0 -15 -10.5 -26t-25.5 -11zM35 788q-16 0 -26.5 11t-10.5 26t11 25.5t26 10.5t25.5 -11t10.5 -25q0 -15 -10.5 -26t-25.5 -11z" />
    <glyph glyph-name="Eth" unicode="&#xd0;" horiz-adv-x="697" 
d="M28 337v44h75v334h185q172 0 264 -97.5t92 -253.5v-9q0 -157 -91 -256t-267 -99h-183v337h-75zM159 46h125q148 0 225.5 84t77.5 226v8q0 139 -76 222t-228 83h-124v-288h208v-44h-208v-291z" />
    <glyph glyph-name="Ntilde" unicode="&#xd1;" horiz-adv-x="713" 
d="M92 0v715h76l400 -638v638h53v-715h-66l-409 653v-653h-54zM429 774q-26 0 -66.5 26.5t-56.5 26.5q-17 0 -29.5 -14.5t-16.5 -39.5h-41q6 47 29.5 73t57.5 26q25 0 65.5 -26.5t57.5 -26.5t29.5 14.5t16.5 39.5h40q-6 -47 -29.5 -73t-56.5 -26z" />
    <glyph glyph-name="Ograve" unicode="&#xd2;" horiz-adv-x="801" 
d="M403 -8q-151 0 -250.5 104.5t-99.5 256.5v8q0 153 99 257.5t249 104.5t249 -104t99 -256v-8q0 -153 -98.5 -258t-247.5 -105zM403 39q127 0 207.5 89.5t80.5 227.5v8q0 133 -80.5 223t-209.5 90q-130 0 -210.5 -89t-80.5 -226v-8q0 -136 84 -225.5t209 -89.5zM385 771
l-88 122h66l64 -122h-42z" />
    <glyph glyph-name="Oacute" unicode="&#xd3;" horiz-adv-x="801" 
d="M403 -8q-151 0 -250.5 104.5t-99.5 256.5v8q0 153 99 257.5t249 104.5t249 -104t99 -256v-8q0 -153 -98.5 -258t-247.5 -105zM403 39q127 0 207.5 89.5t80.5 227.5v8q0 133 -80.5 223t-209.5 90q-130 0 -210.5 -89t-80.5 -226v-8q0 -136 84 -225.5t209 -89.5zM372 771
l64 122h66l-88 -122h-42z" />
    <glyph glyph-name="Ocircumflex" unicode="&#xd4;" horiz-adv-x="801" 
d="M403 -8q-151 0 -250.5 104.5t-99.5 256.5v8q0 153 99 257.5t249 104.5t249 -104t99 -256v-8q0 -153 -98.5 -258t-247.5 -105zM403 39q127 0 207.5 89.5t80.5 227.5v8q0 133 -80.5 223t-209.5 90q-130 0 -210.5 -89t-80.5 -226v-8q0 -136 84 -225.5t209 -89.5zM266 771
l110 122h50l108 -122h-42l-92 78l-93 -78h-41z" />
    <glyph glyph-name="Otilde" unicode="&#xd5;" horiz-adv-x="801" 
d="M403 -8q-151 0 -250.5 104.5t-99.5 256.5v8q0 153 99 257.5t249 104.5t249 -104t99 -256v-8q0 -153 -98.5 -258t-247.5 -105zM403 39q127 0 207.5 89.5t80.5 227.5v8q0 133 -80.5 223t-209.5 90q-130 0 -210.5 -89t-80.5 -226v-8q0 -136 84 -225.5t209 -89.5zM462 774
q-26 0 -66.5 26.5t-56.5 26.5q-17 0 -29.5 -14.5t-16.5 -39.5h-41q6 47 29.5 73t57.5 26q25 0 65.5 -26.5t57.5 -26.5t29.5 14.5t16.5 39.5h40q-6 -47 -29.5 -73t-56.5 -26z" />
    <glyph glyph-name="Odieresis" unicode="&#xd6;" horiz-adv-x="801" 
d="M403 -8q-151 0 -250.5 104.5t-99.5 256.5v8q0 153 99 257.5t249 104.5t249 -104t99 -256v-8q0 -153 -98.5 -258t-247.5 -105zM403 39q127 0 207.5 89.5t80.5 227.5v8q0 133 -80.5 223t-209.5 90q-130 0 -210.5 -89t-80.5 -226v-8q0 -136 84 -225.5t209 -89.5zM490 788
q-15 0 -25.5 11t-10.5 26q0 14 10.5 25t25.5 11t25.5 -11t10.5 -25q0 -15 -10.5 -26t-25.5 -11zM310 788q-16 0 -26.5 11t-10.5 26t10.5 25.5t26.5 10.5q15 0 25.5 -11t10.5 -25q0 -15 -10.5 -26t-25.5 -11z" />
    <glyph glyph-name="multiply" unicode="&#xd7;" horiz-adv-x="483" 
d="M76 143l-31 31l161 160l-161 161l31 32l161 -161l161 161l31 -32l-161 -161l161 -160l-31 -31l-161 160z" />
    <glyph glyph-name="Oslash" unicode="&#xd8;" horiz-adv-x="801" 
d="M110 354q0 -120 63 -203l416 458q-76 68 -188 68q-130 0 -210.5 -89t-80.5 -226v-8zM403 39q127 0 207.5 89.5t80.5 227.5v8q0 131 -73 216l-417 -461q82 -80 202 -80zM71 -24l-30 29l97 107q-85 101 -85 241v8q0 153 99 257.5t249 104.5q127 0 221 -78l85 94l29 -30
l-84 -92q97 -103 97 -254v-8q0 -153 -98.5 -258t-247.5 -105q-140 0 -236 90z" />
    <glyph glyph-name="Ugrave" unicode="&#xd9;" horiz-adv-x="682" 
d="M338 -7q-122 0 -189 68t-67 195v459h55v-453q0 -222 202 -222q105 0 155.5 55.5t50.5 179.5v440h56v-448q0 -131 -66 -202.5t-197 -71.5zM326 771l-88 122h66l64 -122h-42z" />
    <glyph glyph-name="Uacute" unicode="&#xda;" horiz-adv-x="682" 
d="M338 -7q-122 0 -189 68t-67 195v459h55v-453q0 -222 202 -222q105 0 155.5 55.5t50.5 179.5v440h56v-448q0 -131 -66 -202.5t-197 -71.5zM313 771l64 122h66l-88 -122h-42z" />
    <glyph glyph-name="Ucircumflex" unicode="&#xdb;" horiz-adv-x="682" 
d="M338 -7q-122 0 -189 68t-67 195v459h55v-453q0 -222 202 -222q105 0 155.5 55.5t50.5 179.5v440h56v-448q0 -131 -66 -202.5t-197 -71.5zM207 771l110 122h50l108 -122h-42l-92 78l-93 -78h-41z" />
    <glyph glyph-name="Udieresis" unicode="&#xdc;" horiz-adv-x="682" 
d="M338 -7q-122 0 -189 68t-67 195v459h55v-453q0 -222 202 -222q105 0 155.5 55.5t50.5 179.5v440h56v-448q0 -131 -66 -202.5t-197 -71.5zM431 788q-15 0 -25.5 11t-10.5 26q0 14 10.5 25t25.5 11t25.5 -11t10.5 -25q0 -15 -10.5 -26t-25.5 -11zM251 788q-16 0 -26.5 11
t-10.5 26t11 25.5t26 10.5t25.5 -11t10.5 -25q0 -15 -10.5 -26t-25.5 -11z" />
    <glyph glyph-name="Yacute" unicode="&#xdd;" horiz-adv-x="578" 
d="M268 0v318l-245 397h62l212 -350l202 350h56l-231 -398v-317h-56zM264 771l64 122h66l-88 -122h-42z" />
    <glyph glyph-name="Thorn" unicode="&#xde;" horiz-adv-x="568" 
d="M92 0v715h56v-144h133q112 0 178 -47t66 -149v-4q0 -104 -66 -151.5t-178 -47.5h-133v-172h-56zM148 217h136q185 0 185 154v4q0 81 -47.5 115.5t-137.5 34.5h-136v-308z" />
    <glyph glyph-name="germandbls" unicode="&#xdf;" horiz-adv-x="570" 
d="M320 -7q-52 0 -94 16v46q41 -17 92 -17q67 0 111.5 39t44.5 131v7q0 88 -61.5 145t-154.5 55v46q78 -1 118.5 41t40.5 101v4q0 58 -35 91.5t-101 33.5q-68 0 -107 -43t-39 -115v-574h-53v572q0 92 56.5 148t142.5 56t136.5 -47t50.5 -122v-4q0 -55 -34.5 -100t-93.5 -62
q80 -16 134.5 -78t54.5 -148v-6q0 -113 -60 -164.5t-149 -51.5z" />
    <glyph glyph-name="agrave" unicode="&#xe0;" horiz-adv-x="529" 
d="M225 35q73 0 123 38t50 96v89h-107q-59 0 -99.5 -9t-67.5 -36t-27 -72q0 -106 128 -106zM221 -8q-80 0 -128.5 38.5t-48.5 110.5q0 84 68 121t177 37h109v47q0 73 -31.5 106.5t-100.5 33.5q-130 0 -147 -111h-52q9 78 65 117t136 39q183 0 183 -185v-346h-53v80
q-57 -88 -177 -88zM253 605l-92 147h65l68 -147h-41z" />
    <glyph glyph-name="aacute" unicode="&#xe1;" horiz-adv-x="529" 
d="M225 35q73 0 123 38t50 96v89h-107q-59 0 -99.5 -9t-67.5 -36t-27 -72q0 -106 128 -106zM221 -8q-80 0 -128.5 38.5t-48.5 110.5q0 84 68 121t177 37h109v47q0 73 -31.5 106.5t-100.5 33.5q-130 0 -147 -111h-52q9 78 65 117t136 39q183 0 183 -185v-346h-53v80
q-57 -88 -177 -88zM240 605l68 147h65l-92 -147h-41z" />
    <glyph glyph-name="acircumflex" unicode="&#xe2;" horiz-adv-x="529" 
d="M225 35q73 0 123 38t50 96v89h-107q-59 0 -99.5 -9t-67.5 -36t-27 -72q0 -106 128 -106zM221 -8q-80 0 -128.5 38.5t-48.5 110.5q0 84 68 121t177 37h109v47q0 73 -31.5 106.5t-100.5 33.5q-130 0 -147 -111h-52q9 78 65 117t136 39q183 0 183 -185v-346h-53v80
q-57 -88 -177 -88zM128 605l110 135h50l108 -135h-42l-92 90l-93 -90h-41z" />
    <glyph glyph-name="atilde" unicode="&#xe3;" horiz-adv-x="529" 
d="M225 35q73 0 123 38t50 96v89h-107q-59 0 -99.5 -9t-67.5 -36t-27 -72q0 -106 128 -106zM221 -8q-80 0 -128.5 38.5t-48.5 110.5q0 84 68 121t177 37h109v47q0 73 -31.5 106.5t-100.5 33.5q-130 0 -147 -111h-52q9 78 65 117t136 39q183 0 183 -185v-346h-53v80
q-57 -88 -177 -88zM330 616q-26 0 -67 26.5t-57 26.5t-28.5 -14.5t-16.5 -38.5h-41q6 46 29.5 72.5t57.5 26.5q25 0 66 -26.5t57 -26.5t29 14t17 39h40q-6 -46 -29.5 -72.5t-56.5 -26.5z" />
    <glyph glyph-name="adieresis" unicode="&#xe4;" horiz-adv-x="529" 
d="M225 35q73 0 123 38t50 96v89h-107q-59 0 -99.5 -9t-67.5 -36t-27 -72q0 -106 128 -106zM221 -8q-80 0 -128.5 38.5t-48.5 110.5q0 84 68 121t177 37h109v47q0 73 -31.5 106.5t-100.5 33.5q-130 0 -147 -111h-52q9 78 65 117t136 39q183 0 183 -185v-346h-53v80
q-57 -88 -177 -88zM351 636q-15 0 -25.5 11t-10.5 26t10.5 25.5t25.5 10.5q16 0 26.5 -10.5t10.5 -25.5t-10.5 -26t-26.5 -11zM185 636q-16 0 -26.5 11t-10.5 26t10.5 25.5t26.5 10.5q15 0 25.5 -10.5t10.5 -25.5t-10.5 -26t-25.5 -11z" />
    <glyph glyph-name="aring" unicode="&#xe5;" horiz-adv-x="529" 
d="M225 35q73 0 123 38t50 96v89h-107q-59 0 -99.5 -9t-67.5 -36t-27 -72q0 -106 128 -106zM221 -8q-80 0 -128.5 38.5t-48.5 110.5q0 84 68 121t177 37h109v47q0 73 -31.5 106.5t-100.5 33.5q-130 0 -147 -111h-52q9 78 65 117t136 39q183 0 183 -185v-346h-53v80
q-57 -88 -177 -88zM268 601q-40 0 -69 28t-29 67t29 67.5t69 28.5t69 -28.5t29 -67.5t-29 -67t-69 -28zM268 633q26 0 43.5 18t17.5 45q0 28 -17.5 46t-43.5 18t-43.5 -18t-17.5 -46q0 -27 17.5 -45t43.5 -18z" />
    <glyph glyph-name="ae" unicode="&#xe6;" horiz-adv-x="897" 
d="M638 -8q-74 0 -128 34.5t-81 96.5q-25 -65 -79.5 -98t-128.5 -33q-80 0 -128.5 38t-48.5 110q0 85 67.5 122t175.5 37h113v46q0 73 -32.5 107t-101.5 34q-130 0 -147 -111h-52q8 78 64.5 117t136.5 39q140 0 171 -114q63 114 193 114q98 0 160.5 -65t62.5 -190v-18h-403
q2 -106 49.5 -163.5t137.5 -57.5q134 0 159 109h53q-15 -74 -72.5 -114t-140.5 -40zM453 299h348q-4 94 -48 140.5t-121 46.5q-74 0 -123 -51t-56 -136zM226 35q73 0 123.5 40t50.5 106v77h-112q-91 0 -141 -26t-50 -92q0 -105 129 -105z" />
    <glyph glyph-name="ccedilla" unicode="&#xe7;" horiz-adv-x="556" 
d="M274 -212q-40 0 -66 21.5t-30 56.5h44q3 -18 16 -30t34 -12q23 0 36.5 12t13.5 32q0 39 -45 39q-20 0 -36 -8l-26 21l42 75q-94 12 -154 83t-60 178v8q0 118 72 192.5t178 74.5q85 0 146.5 -45t71.5 -129h-52q-9 63 -55 96t-111 33q-84 0 -139.5 -60.5t-55.5 -161.5v-8
q0 -101 55 -160t140 -59q68 0 116.5 38t57.5 106h49q-10 -83 -70 -135t-148 -54l-30 -53q40 9 70.5 -10.5t30.5 -62.5q0 -37 -27 -57.5t-68 -20.5z" />
    <glyph glyph-name="egrave" unicode="&#xe8;" horiz-adv-x="554" 
d="M291 -8q-113 0 -180.5 73t-67.5 191v8q0 118 67.5 192.5t172.5 74.5q100 0 164.5 -65.5t64.5 -189.5v-19h-414q2 -106 51.5 -163t141.5 -57q137 0 164 109h53q-16 -74 -74 -114t-143 -40zM100 300h357q-4 93 -49.5 139.5t-124.5 46.5q-76 0 -126 -50.5t-57 -135.5z
M267 605l-92 147h65l68 -147h-41z" />
    <glyph glyph-name="eacute" unicode="&#xe9;" horiz-adv-x="554" 
d="M291 -8q-113 0 -180.5 73t-67.5 191v8q0 118 67.5 192.5t172.5 74.5q100 0 164.5 -65.5t64.5 -189.5v-19h-414q2 -106 51.5 -163t141.5 -57q137 0 164 109h53q-16 -74 -74 -114t-143 -40zM100 300h357q-4 93 -49.5 139.5t-124.5 46.5q-76 0 -126 -50.5t-57 -135.5z
M254 605l68 147h65l-92 -147h-41z" />
    <glyph glyph-name="ecircumflex" unicode="&#xea;" horiz-adv-x="554" 
d="M291 -8q-113 0 -180.5 73t-67.5 191v8q0 118 67.5 192.5t172.5 74.5q100 0 164.5 -65.5t64.5 -189.5v-19h-414q2 -106 51.5 -163t141.5 -57q137 0 164 109h53q-16 -74 -74 -114t-143 -40zM100 300h357q-4 93 -49.5 139.5t-124.5 46.5q-76 0 -126 -50.5t-57 -135.5z
M148 605l110 135h50l108 -135h-42l-92 90l-93 -90h-41z" />
    <glyph glyph-name="edieresis" unicode="&#xeb;" horiz-adv-x="554" 
d="M365 636q-15 0 -25.5 11t-10.5 26t10.5 25.5t25.5 10.5q16 0 26.5 -10.5t10.5 -25.5t-10.5 -26t-26.5 -11zM199 636q-16 0 -26.5 11t-10.5 26t10.5 25.5t26.5 10.5q15 0 25.5 -10.5t10.5 -25.5t-10.5 -26t-25.5 -11zM291 -8q-113 0 -180.5 73t-67.5 191v8
q0 118 67.5 192.5t172.5 74.5q100 0 164.5 -65.5t64.5 -189.5v-19h-414q2 -106 51.5 -163t141.5 -57q137 0 164 109h53q-16 -74 -74 -114t-143 -40zM100 300h357q-4 93 -49.5 139.5t-124.5 46.5q-76 0 -126 -50.5t-57 -135.5z" />
    <glyph glyph-name="igrave" unicode="&#xec;" horiz-adv-x="221" 
d="M84 0v523h53v-523h-53zM93 605l-92 147h65l68 -147h-41z" />
    <glyph glyph-name="iacute" unicode="&#xed;" horiz-adv-x="221" 
d="M84 0v523h53v-523h-53zM86 605l68 147h65l-92 -147h-41z" />
    <glyph glyph-name="icircumflex" unicode="&#xee;" horiz-adv-x="221" 
d="M84 0v523h53v-523h-53zM-23 605l110 135h50l108 -135h-42l-92 90l-93 -90h-41z" />
    <glyph glyph-name="idieresis" unicode="&#xef;" horiz-adv-x="221" 
d="M185 636q-15 0 -26 11t-11 26t11 25.5t26 10.5t25.5 -10.5t10.5 -25.5t-10.5 -26t-25.5 -11zM36 636q-15 0 -25.5 11t-10.5 26t10.5 25.5t25.5 10.5t26 -10.5t11 -25.5t-11 -26t-26 -11zM84 0v523h53v-523h-53z" />
    <glyph glyph-name="eth" unicode="&#xf0;" horiz-adv-x="594" 
d="M159 584l-19 31l121 70q-53 43 -124 88h71q49 -27 96 -63l98 58l19 -33l-87 -50q93 -79 153.5 -182.5t60.5 -224.5v-18q0 -117 -73 -192.5t-180 -75.5t-179.5 75t-72.5 190v8q0 115 71 190.5t168 75.5q113 0 180 -91q-52 114 -171 220zM295 37q86 0 142 60.5t56 160.5v13
q0 97 -56 156t-144 59q-84 0 -139.5 -60.5t-55.5 -160.5v-8q0 -99 55.5 -159.5t141.5 -60.5z" />
    <glyph glyph-name="ntilde" unicode="&#xf1;" horiz-adv-x="583" 
d="M82 0v523h53v-102q19 46 69 78t116 32q87 0 136.5 -51t49.5 -158v-322h-53v325q0 160 -145 160q-70 0 -121.5 -45t-51.5 -123v-317h-53zM352 616q-26 0 -67 26.5t-57 26.5t-28.5 -14.5t-16.5 -38.5h-41q6 46 29.5 72.5t57.5 26.5q25 0 66 -26.5t57 -26.5t29 14t17 39h40
q-6 -46 -29.5 -72.5t-56.5 -26.5z" />
    <glyph glyph-name="ograve" unicode="&#xf2;" horiz-adv-x="591" 
d="M295 -8q-107 0 -179.5 75t-72.5 190v8q0 116 73 191t180 75q108 0 180 -74t72 -191v-8q0 -117 -73 -191.5t-180 -74.5zM296 37q86 0 141.5 60t55.5 160v8q0 101 -56 161t-141 60q-86 0 -142 -60.5t-56 -160.5v-8q0 -99 55.5 -159.5t142.5 -60.5zM280 605l-92 147h65
l68 -147h-41z" />
    <glyph glyph-name="oacute" unicode="&#xf3;" horiz-adv-x="591" 
d="M295 -8q-107 0 -179.5 75t-72.5 190v8q0 116 73 191t180 75q108 0 180 -74t72 -191v-8q0 -117 -73 -191.5t-180 -74.5zM296 37q86 0 141.5 60t55.5 160v8q0 101 -56 161t-141 60q-86 0 -142 -60.5t-56 -160.5v-8q0 -99 55.5 -159.5t142.5 -60.5zM267 605l68 147h65
l-92 -147h-41z" />
    <glyph glyph-name="ocircumflex" unicode="&#xf4;" horiz-adv-x="591" 
d="M295 -8q-107 0 -179.5 75t-72.5 190v8q0 116 73 191t180 75q108 0 180 -74t72 -191v-8q0 -117 -73 -191.5t-180 -74.5zM296 37q86 0 141.5 60t55.5 160v8q0 101 -56 161t-141 60q-86 0 -142 -60.5t-56 -160.5v-8q0 -99 55.5 -159.5t142.5 -60.5zM161 605l110 135h50
l108 -135h-42l-92 90l-93 -90h-41z" />
    <glyph glyph-name="otilde" unicode="&#xf5;" horiz-adv-x="591" 
d="M295 -8q-107 0 -179.5 75t-72.5 190v8q0 116 73 191t180 75q108 0 180 -74t72 -191v-8q0 -117 -73 -191.5t-180 -74.5zM296 37q86 0 141.5 60t55.5 160v8q0 101 -56 161t-141 60q-86 0 -142 -60.5t-56 -160.5v-8q0 -99 55.5 -159.5t142.5 -60.5zM357 616q-26 0 -67 26.5
t-57 26.5t-28.5 -14.5t-16.5 -38.5h-41q6 46 29.5 72.5t57.5 26.5q25 0 66 -26.5t57 -26.5t29 14t17 39h40q-6 -46 -29.5 -72.5t-56.5 -26.5z" />
    <glyph glyph-name="odieresis" unicode="&#xf6;" horiz-adv-x="591" 
d="M295 -8q-107 0 -179.5 75t-72.5 190v8q0 116 73 191t180 75q108 0 180 -74t72 -191v-8q0 -117 -73 -191.5t-180 -74.5zM296 37q86 0 141.5 60t55.5 160v8q0 101 -56 161t-141 60q-86 0 -142 -60.5t-56 -160.5v-8q0 -99 55.5 -159.5t142.5 -60.5zM378 636q-15 0 -25.5 11
t-10.5 26t10.5 25.5t25.5 10.5q16 0 26.5 -10.5t10.5 -25.5t-10.5 -26t-26.5 -11zM212 636q-16 0 -26.5 11t-10.5 26t10.5 25.5t26.5 10.5q15 0 25.5 -10.5t10.5 -25.5t-10.5 -26t-25.5 -11z" />
    <glyph glyph-name="divide" unicode="&#xf7;" horiz-adv-x="510" 
d="M255 477q-18 0 -30.5 12.5t-12.5 30.5q0 17 12.5 29.5t30.5 12.5q17 0 29.5 -12.5t12.5 -29.5q0 -18 -12.5 -30.5t-29.5 -12.5zM36 319v46h438v-46h-438zM255 122q-18 0 -30.5 12.5t-12.5 30.5q0 17 12.5 29.5t30.5 12.5q17 0 29.5 -12.5t12.5 -29.5q0 -18 -12.5 -30.5
t-29.5 -12.5z" />
    <glyph glyph-name="oslash" unicode="&#xf8;" horiz-adv-x="591" 
d="M98 257q0 -83 39 -139l288 319q-52 49 -129 49q-86 0 -142 -60.5t-56 -160.5v-8zM296 37q86 0 141.5 60t55.5 160v8q0 84 -42 144l-289 -321q54 -51 134 -51zM61 -25l-30 25l72 80q-60 73 -60 177v8q0 116 73 191t180 75q93 0 162 -58l64 72l29 -25l-66 -73
q63 -74 63 -181v-8q0 -117 -73 -191.5t-180 -74.5q-96 0 -165 60z" />
    <glyph glyph-name="ugrave" unicode="&#xf9;" horiz-adv-x="579" 
d="M261 -8q-86 0 -135 48.5t-49 151.5v331h53v-328q0 -157 143 -157q69 0 120 44.5t51 122.5v318h53v-523h-53v100q-19 -46 -68 -77t-115 -31zM274 605l-92 147h65l68 -147h-41z" />
    <glyph glyph-name="uacute" unicode="&#xfa;" horiz-adv-x="579" 
d="M261 -8q-86 0 -135 48.5t-49 151.5v331h53v-328q0 -157 143 -157q69 0 120 44.5t51 122.5v318h53v-523h-53v100q-19 -46 -68 -77t-115 -31zM261 605l68 147h65l-92 -147h-41z" />
    <glyph glyph-name="ucircumflex" unicode="&#xfb;" horiz-adv-x="579" 
d="M261 -8q-86 0 -135 48.5t-49 151.5v331h53v-328q0 -157 143 -157q69 0 120 44.5t51 122.5v318h53v-523h-53v100q-19 -46 -68 -77t-115 -31zM155 605l110 135h50l108 -135h-42l-92 90l-93 -90h-41z" />
    <glyph glyph-name="udieresis" unicode="&#xfc;" horiz-adv-x="579" 
d="M261 -8q-86 0 -135 48.5t-49 151.5v331h53v-328q0 -157 143 -157q69 0 120 44.5t51 122.5v318h53v-523h-53v100q-19 -46 -68 -77t-115 -31zM372 636q-15 0 -25.5 11t-10.5 26t10.5 25.5t25.5 10.5q16 0 26.5 -10.5t10.5 -25.5t-10.5 -26t-26.5 -11zM206 636
q-16 0 -26.5 11t-10.5 26t10.5 25.5t26.5 10.5q15 0 25.5 -10.5t10.5 -25.5t-10.5 -26t-25.5 -11z" />
    <glyph glyph-name="yacute" unicode="&#xfd;" horiz-adv-x="508" 
d="M137 -182l95 227l-207 478h57l179 -417l167 417h54l-290 -705h-55zM229 605l68 147h65l-92 -147h-41z" />
    <glyph glyph-name="thorn" unicode="&#xfe;" horiz-adv-x="612" 
d="M330 37q84 0 134 58.5t50 161.5v8q0 104 -52.5 162.5t-131.5 58.5q-82 0 -139 -59t-57 -162v-8q0 -104 55.5 -162t140.5 -58zM82 -182v955h53v-372q25 55 79.5 92.5t120.5 37.5q101 0 167.5 -72t66.5 -192v-8q0 -121 -66 -194t-169 -73q-73 0 -124.5 36.5t-74.5 90.5
v-301h-53z" />
    <glyph glyph-name="ydieresis" unicode="&#xff;" horiz-adv-x="508" 
d="M137 -182l95 227l-207 478h57l179 -417l167 417h54l-290 -705h-55zM342 636q-15 0 -25.5 11t-10.5 26t10.5 25.5t25.5 10.5q16 0 26.5 -10.5t10.5 -25.5t-10.5 -26t-26.5 -11zM176 636q-16 0 -26.5 11t-10.5 26t10.5 25.5t26.5 10.5q15 0 25.5 -10.5t10.5 -25.5
t-10.5 -26t-25.5 -11z" />
    <glyph glyph-name="Amacron" unicode="&#x100;" horiz-adv-x="654" 
d="M325 669l-145 -405h290zM33 0l257 715h74l257 -715h-56l-79 219h-322l-78 -219h-53zM199 791v42h248v-42h-248z" />
    <glyph glyph-name="amacron" unicode="&#x101;" horiz-adv-x="529" 
d="M225 35q73 0 123 38t50 96v89h-107q-59 0 -99.5 -9t-67.5 -36t-27 -72q0 -106 128 -106zM221 -8q-80 0 -128.5 38.5t-48.5 110.5q0 84 68 121t177 37h109v47q0 73 -31.5 106.5t-100.5 33.5q-130 0 -147 -111h-52q9 78 65 117t136 39q183 0 183 -185v-346h-53v80
q-57 -88 -177 -88zM147 647v42h242v-42h-242z" />
    <glyph glyph-name="Abreve" unicode="&#x102;" horiz-adv-x="654" 
d="M325 669l-145 -405h290zM33 0l257 715h74l257 -715h-56l-79 219h-322l-78 -219h-53zM321 771q-51 0 -87 35t-39 87h44q4 -35 26 -56.5t56 -21.5q35 0 58 21.5t28 56.5h43q-3 -52 -40.5 -87t-88.5 -35z" />
    <glyph glyph-name="abreve" unicode="&#x103;" horiz-adv-x="529" 
d="M225 35q73 0 123 38t50 96v89h-107q-59 0 -99.5 -9t-67.5 -36t-27 -72q0 -106 128 -106zM221 -8q-80 0 -128.5 38.5t-48.5 110.5q0 84 68 121t177 37h109v47q0 73 -31.5 106.5t-100.5 33.5q-130 0 -147 -111h-52q9 78 65 117t136 39q183 0 183 -185v-346h-53v80
q-57 -88 -177 -88zM266 616q-51 0 -85 34t-37 87h44q4 -36 24 -56.5t54 -20.5q35 0 56.5 20.5t26.5 56.5h42q-3 -53 -38.5 -87t-86.5 -34z" />
    <glyph glyph-name="Aogonek" unicode="&#x104;" horiz-adv-x="654" 
d="M581 -182q-43 0 -68 20.5t-25 54.5q0 61 77 107l-79 219h-322l-78 -219h-53l257 715h74l256 -713q-81 -50 -81 -100q0 -44 49 -44q28 0 51 10v-39q-29 -11 -58 -11zM325 669l-145 -405h290z" />
    <glyph glyph-name="aogonek" unicode="&#x105;" horiz-adv-x="529" 
d="M413 -182q-43 0 -68 20.5t-25 54.5q0 64 78 108v79q-57 -88 -177 -88q-80 0 -128.5 38.5t-48.5 110.5q0 84 68 121t177 37h109v47q0 73 -31.5 106.5t-100.5 33.5q-130 0 -147 -111h-52q9 78 65 117t136 39q183 0 183 -185v-344q-80 -48 -80 -100q0 -44 49 -44q29 0 50 10
v-39q-28 -11 -57 -11zM225 35q73 0 123 38t50 96v89h-107q-59 0 -99.5 -9t-67.5 -36t-27 -72q0 -106 128 -106z" />
    <glyph glyph-name="Cacute" unicode="&#x106;" horiz-adv-x="725" 
d="M385 -8q-152 0 -242 99t-90 262v8q0 157 95.5 260t236.5 103q115 0 194 -58.5t95 -165.5h-56q-17 87 -75.5 133t-156.5 46q-121 0 -198.5 -88t-77.5 -229v-8q0 -145 74.5 -230t201.5 -85q98 0 162.5 50t81.5 141h52q-19 -113 -99 -175.5t-198 -62.5zM359 771l64 122h66
l-88 -122h-42z" />
    <glyph glyph-name="cacute" unicode="&#x107;" horiz-adv-x="556" 
d="M293 -8q-107 0 -178.5 73.5t-71.5 190.5v8q0 118 72 192.5t178 74.5q85 0 146.5 -45t71.5 -129h-52q-9 63 -55 96t-111 33q-84 0 -139.5 -60.5t-55.5 -161.5v-8q0 -101 55 -160t140 -59q68 0 116.5 38t57.5 106h49q-11 -84 -72.5 -136.5t-150.5 -52.5zM261 605l68 147h65
l-92 -147h-41z" />
    <glyph glyph-name="Ccircumflex" unicode="&#x108;" horiz-adv-x="725" 
d="M385 -8q-152 0 -242 99t-90 262v8q0 157 95.5 260t236.5 103q115 0 194 -58.5t95 -165.5h-56q-17 87 -75.5 133t-156.5 46q-121 0 -198.5 -88t-77.5 -229v-8q0 -145 74.5 -230t201.5 -85q98 0 162.5 50t81.5 141h52q-19 -113 -99 -175.5t-198 -62.5zM253 771l110 122h50
l108 -122h-42l-92 78l-93 -78h-41z" />
    <glyph glyph-name="ccircumflex" unicode="&#x109;" horiz-adv-x="556" 
d="M293 -8q-107 0 -178.5 73.5t-71.5 190.5v8q0 118 72 192.5t178 74.5q85 0 146.5 -45t71.5 -129h-52q-9 63 -55 96t-111 33q-84 0 -139.5 -60.5t-55.5 -161.5v-8q0 -101 55 -160t140 -59q68 0 116.5 38t57.5 106h49q-11 -84 -72.5 -136.5t-150.5 -52.5zM155 605l110 135
h50l108 -135h-42l-92 90l-93 -90h-41z" />
    <glyph glyph-name="Cdotaccent" unicode="&#x10a;" horiz-adv-x="725" 
d="M385 -8q-152 0 -242 99t-90 262v8q0 157 95.5 260t236.5 103q115 0 194 -58.5t95 -165.5h-56q-17 87 -75.5 133t-156.5 46q-121 0 -198.5 -88t-77.5 -229v-8q0 -145 74.5 -230t201.5 -85q98 0 162.5 50t81.5 141h52q-19 -113 -99 -175.5t-198 -62.5zM384 787
q-16 0 -27 11t-11 27q0 15 11 26t27 11t27 -11t11 -26q0 -16 -11 -27t-27 -11z" />
    <glyph glyph-name="cdotaccent" unicode="&#x10b;" horiz-adv-x="556" 
d="M293 -8q-107 0 -178.5 73.5t-71.5 190.5v8q0 118 72 192.5t178 74.5q85 0 146.5 -45t71.5 -129h-52q-9 63 -55 96t-111 33q-84 0 -139.5 -60.5t-55.5 -161.5v-8q0 -101 55 -160t140 -59q68 0 116.5 38t57.5 106h49q-11 -84 -72.5 -136.5t-150.5 -52.5zM289 635
q-16 0 -27 11t-11 27q0 15 11 26t27 11t27 -11t11 -26q0 -16 -11 -27t-27 -11z" />
    <glyph glyph-name="Ccaron" unicode="&#x10c;" horiz-adv-x="725" 
d="M385 -8q-152 0 -242 99t-90 262v8q0 157 95.5 260t236.5 103q115 0 194 -58.5t95 -165.5h-56q-17 87 -75.5 133t-156.5 46q-121 0 -198.5 -88t-77.5 -229v-8q0 -145 74.5 -230t201.5 -85q98 0 162.5 50t81.5 141h52q-19 -113 -99 -175.5t-198 -62.5zM361 771l-109 122h42
l93 -77l94 77h41l-111 -122h-50z" />
    <glyph glyph-name="ccaron" unicode="&#x10d;" horiz-adv-x="556" 
d="M293 -8q-107 0 -178.5 73.5t-71.5 190.5v8q0 118 72 192.5t178 74.5q85 0 146.5 -45t71.5 -129h-52q-9 63 -55 96t-111 33q-84 0 -139.5 -60.5t-55.5 -161.5v-8q0 -101 55 -160t140 -59q68 0 116.5 38t57.5 106h49q-11 -84 -72.5 -136.5t-150.5 -52.5zM263 613l-108 135
h42l92 -90l93 90h41l-110 -135h-50z" />
    <glyph glyph-name="Dcaron" unicode="&#x10e;" horiz-adv-x="686" 
d="M92 0v715h186q171 0 263.5 -97.5t92.5 -253.5v-9q0 -157 -91.5 -256t-266.5 -99h-184zM148 46h126q148 0 225 84.5t77 225.5v8q0 139 -76 222t-227 83h-125v-623zM288 771l-109 122h42l93 -77l94 77h41l-111 -122h-50z" />
    <glyph glyph-name="dcaron" unicode="&#x10f;" horiz-adv-x="612" 
d="M283 37q83 0 139 58.5t56 162.5v8q0 105 -51.5 162.5t-135.5 57.5q-86 0 -139.5 -59t-53.5 -163v-8q0 -104 52 -161.5t133 -57.5zM278 -8q-103 0 -169 70.5t-66 191.5v8q0 119 69 194t174 75q134 0 191 -124v366h53v-773h-53v121q-23 -52 -76.5 -90.5t-122.5 -38.5z
M585 611l12 162h60l-33 -162h-39z" />
    <glyph glyph-name="Dcroat" unicode="&#x110;" horiz-adv-x="697" 
d="M28 337v44h75v334h185q172 0 264 -97.5t92 -253.5v-9q0 -157 -91 -256t-267 -99h-183v337h-75zM159 46h125q148 0 225.5 84t77.5 226v8q0 139 -76 222t-228 83h-124v-288h208v-44h-208v-291z" />
    <glyph glyph-name="dcroat" unicode="&#x111;" horiz-adv-x="612" 
d="M283 37q83 0 139 58.5t56 162.5v8q0 105 -51.5 162.5t-135.5 57.5q-86 0 -139.5 -59t-53.5 -163v-8q0 -104 52 -161.5t133 -57.5zM288 623v41h189v109h53v-109h77v-41h-77v-623h-53v121q-23 -52 -76.5 -90.5t-122.5 -38.5q-103 0 -169 70.5t-66 191.5v8q0 119 69 194
t174 75q134 0 191 -124v216h-189z" />
    <glyph glyph-name="Emacron" unicode="&#x112;" horiz-adv-x="566" 
d="M92 0v715h411v-46h-355v-279h288v-46h-288v-298h373v-46h-429zM175 791v42h248v-42h-248z" />
    <glyph glyph-name="emacron" unicode="&#x113;" horiz-adv-x="554" 
d="M291 -8q-113 0 -180.5 73t-67.5 191v8q0 118 67.5 192.5t172.5 74.5q100 0 164.5 -65.5t64.5 -189.5v-19h-414q2 -106 51.5 -163t141.5 -57q137 0 164 109h53q-16 -74 -74 -114t-143 -40zM100 300h357q-4 93 -49.5 139.5t-124.5 46.5q-76 0 -126 -50.5t-57 -135.5z
M161 647v42h242v-42h-242z" />
    <glyph glyph-name="Ebreve" unicode="&#x114;" horiz-adv-x="566" 
d="M92 0v715h411v-46h-355v-279h288v-46h-288v-298h373v-46h-429zM301 771q-51 0 -87 35t-39 87h44q4 -35 26 -56.5t56 -21.5q35 0 58 21.5t28 56.5h43q-3 -52 -40.5 -87t-88.5 -35z" />
    <glyph glyph-name="ebreve" unicode="&#x115;" horiz-adv-x="554" 
d="M291 -8q-113 0 -180.5 73t-67.5 191v8q0 118 67.5 192.5t172.5 74.5q100 0 164.5 -65.5t64.5 -189.5v-19h-414q2 -106 51.5 -163t141.5 -57q137 0 164 109h53q-16 -74 -74 -114t-143 -40zM100 300h357q-4 93 -49.5 139.5t-124.5 46.5q-76 0 -126 -50.5t-57 -135.5z
M276 616q-51 0 -85 34t-37 87h44q4 -36 24 -56.5t54 -20.5q35 0 56.5 20.5t26.5 56.5h42q-3 -53 -38.5 -87t-86.5 -34z" />
    <glyph glyph-name="Edotaccent" unicode="&#x116;" horiz-adv-x="566" 
d="M92 0v715h411v-46h-355v-279h288v-46h-288v-298h373v-46h-429zM299 787q-16 0 -27 11t-11 27q0 15 11 26t27 11t27 -11t11 -26q0 -16 -11 -27t-27 -11z" />
    <glyph glyph-name="edotaccent" unicode="&#x117;" horiz-adv-x="554" 
d="M291 -8q-113 0 -180.5 73t-67.5 191v8q0 118 67.5 192.5t172.5 74.5q100 0 164.5 -65.5t64.5 -189.5v-19h-414q2 -106 51.5 -163t141.5 -57q137 0 164 109h53q-16 -74 -74 -114t-143 -40zM100 300h357q-4 93 -49.5 139.5t-124.5 46.5q-76 0 -126 -50.5t-57 -135.5z
M282 635q-16 0 -27 11t-11 27q0 15 11 26t27 11t27 -11t11 -26q0 -16 -11 -27t-27 -11z" />
    <glyph glyph-name="Eogonek" unicode="&#x118;" horiz-adv-x="566" 
d="M437 -182q-43 0 -68.5 20.5t-25.5 54.5q0 63 78 107h-329v715h411v-46h-355v-279h288v-46h-288v-298h373v-46h-51q-75 -49 -75 -98q0 -44 49 -44q27 0 50 10v-39q-28 -11 -57 -11z" />
    <glyph glyph-name="eogonek" unicode="&#x119;" horiz-adv-x="554" 
d="M374 -182q-43 0 -68 20.5t-25 54.5q0 61 77 108q-33 -9 -67 -9q-113 0 -180.5 73t-67.5 191v8q0 118 67.5 192.5t172.5 74.5q100 0 164.5 -65.5t64.5 -189.5v-19h-414q2 -106 51.5 -163t141.5 -57q137 0 164 109h53q-15 -70 -80 -123l-19 -15.5l-20 -16.5t-17 -15.5
t-16.5 -17.5t-12 -17t-9 -19.5t-2.5 -19.5q0 -44 49 -44q29 0 50 10v-39q-27 -11 -57 -11zM100 300h357q-4 93 -49.5 139.5t-124.5 46.5q-76 0 -126 -50.5t-57 -135.5z" />
    <glyph glyph-name="Ecaron" unicode="&#x11a;" horiz-adv-x="566" 
d="M92 0v715h411v-46h-355v-279h288v-46h-288v-298h373v-46h-429zM275 771l-109 122h42l93 -77l94 77h41l-111 -122h-50z" />
    <glyph glyph-name="ecaron" unicode="&#x11b;" horiz-adv-x="554" 
d="M291 -8q-113 0 -180.5 73t-67.5 191v8q0 118 67.5 192.5t172.5 74.5q100 0 164.5 -65.5t64.5 -189.5v-19h-414q2 -106 51.5 -163t141.5 -57q137 0 164 109h53q-16 -74 -74 -114t-143 -40zM100 300h357q-4 93 -49.5 139.5t-124.5 46.5q-76 0 -126 -50.5t-57 -135.5z
M256 613l-108 135h42l92 -90l93 90h41l-110 -135h-50z" />
    <glyph glyph-name="Gcircumflex" unicode="&#x11c;" horiz-adv-x="756" 
d="M396 -8q-159 0 -251 100.5t-92 260.5v8q0 157 97 260t244 103q110 0 189 -53.5t98 -159.5h-56q-19 85 -79.5 126.5t-150.5 41.5q-128 0 -206.5 -88.5t-78.5 -228.5v-8q0 -145 75 -230.5t211 -85.5q122 0 186.5 69.5t66.5 190.5v4h-220v47h274v-41q0 -152 -83 -234
t-224 -82zM256 771l110 122h50l108 -122h-42l-92 78l-93 -78h-41z" />
    <glyph glyph-name="gcircumflex" unicode="&#x11d;" horiz-adv-x="612" 
d="M284 62q82 0 138 56.5t56 151.5v8q0 97 -51.5 152.5t-135.5 55.5q-85 0 -139 -57t-54 -153v-8q0 -95 53 -150.5t133 -55.5zM288 -188q-107 0 -165 44.5t-69 113.5h54q24 -113 179 -113q89 0 139.5 43.5t50.5 136.5v107q-23 -52 -76.5 -89.5t-121.5 -37.5q-102 0 -169 69
t-67 181v7q0 111 69.5 184t173.5 73q134 0 191 -121v113h53v-488q-1 -111 -66.5 -167t-175.5 -56zM155 605l110 135h50l108 -135h-42l-92 90l-93 -90h-41z" />
    <glyph glyph-name="Gbreve" unicode="&#x11e;" horiz-adv-x="756" 
d="M396 -8q-159 0 -251 100.5t-92 260.5v8q0 157 97 260t244 103q110 0 189 -53.5t98 -159.5h-56q-19 85 -79.5 126.5t-150.5 41.5q-128 0 -206.5 -88.5t-78.5 -228.5v-8q0 -145 75 -230.5t211 -85.5q122 0 186.5 69.5t66.5 190.5v4h-220v47h274v-41q0 -152 -83 -234
t-224 -82zM388 771q-51 0 -87 35t-39 87h44q4 -35 26 -56.5t56 -21.5q35 0 58 21.5t28 56.5h43q-3 -52 -40.5 -87t-88.5 -35z" />
    <glyph glyph-name="gbreve" unicode="&#x11f;" horiz-adv-x="612" 
d="M284 62q82 0 138 56.5t56 151.5v8q0 97 -51.5 152.5t-135.5 55.5q-85 0 -139 -57t-54 -153v-8q0 -95 53 -150.5t133 -55.5zM288 -188q-107 0 -165 44.5t-69 113.5h54q24 -113 179 -113q89 0 139.5 43.5t50.5 136.5v107q-23 -52 -76.5 -89.5t-121.5 -37.5q-102 0 -169 69
t-67 181v7q0 111 69.5 184t173.5 73q134 0 191 -121v113h53v-488q-1 -111 -66.5 -167t-175.5 -56zM288 616q-51 0 -85 34t-37 87h44q4 -36 24 -56.5t54 -20.5q35 0 56.5 20.5t26.5 56.5h42q-3 -53 -38.5 -87t-86.5 -34z" />
    <glyph glyph-name="Gdotaccent" unicode="&#x120;" horiz-adv-x="756" 
d="M396 -8q-159 0 -251 100.5t-92 260.5v8q0 157 97 260t244 103q110 0 189 -53.5t98 -159.5h-56q-19 85 -79.5 126.5t-150.5 41.5q-128 0 -206.5 -88.5t-78.5 -228.5v-8q0 -145 75 -230.5t211 -85.5q122 0 186.5 69.5t66.5 190.5v4h-220v47h274v-41q0 -152 -83 -234
t-224 -82zM390 787q-16 0 -27 11t-11 27q0 15 11 26t27 11t27 -11t11 -26q0 -16 -11 -27t-27 -11z" />
    <glyph glyph-name="gdotaccent" unicode="&#x121;" horiz-adv-x="612" 
d="M284 62q82 0 138 56.5t56 151.5v8q0 97 -51.5 152.5t-135.5 55.5q-85 0 -139 -57t-54 -153v-8q0 -95 53 -150.5t133 -55.5zM288 -188q-107 0 -165 44.5t-69 113.5h54q24 -113 179 -113q89 0 139.5 43.5t50.5 136.5v107q-23 -52 -76.5 -89.5t-121.5 -37.5q-102 0 -169 69
t-67 181v7q0 111 69.5 184t173.5 73q134 0 191 -121v113h53v-488q-1 -111 -66.5 -167t-175.5 -56zM289 635q-16 0 -27 11t-11 27q0 15 11 26t27 11t27 -11t11 -26q0 -16 -11 -27t-27 -11z" />
    <glyph glyph-name="uni0122" unicode="&#x122;" horiz-adv-x="756" 
d="M396 -8q-159 0 -251 100.5t-92 260.5v8q0 157 97 260t244 103q110 0 189 -53.5t98 -159.5h-56q-19 85 -79.5 126.5t-150.5 41.5q-128 0 -206.5 -88.5t-78.5 -228.5v-8q0 -145 75 -230.5t211 -85.5q122 0 186.5 69.5t66.5 190.5v4h-220v47h274v-41q0 -152 -83 -234
t-224 -82zM352 -204l-34 16l58 147l51 -15z" />
    <glyph glyph-name="uni0123" unicode="&#x123;" horiz-adv-x="612" 
d="M284 62q82 0 138 56.5t56 151.5v8q0 97 -51.5 152.5t-135.5 55.5q-85 0 -139 -57t-54 -153v-8q0 -95 53 -150.5t133 -55.5zM288 -188q-107 0 -165 44.5t-69 113.5h54q24 -113 179 -113q89 0 139.5 43.5t50.5 136.5v107q-23 -52 -76.5 -89.5t-121.5 -37.5q-102 0 -169 69
t-67 181v7q0 111 69.5 184t173.5 73q134 0 191 -121v113h53v-488q-1 -111 -66.5 -167t-175.5 -56zM312 607l-52 15l75 148l35 -17z" />
    <glyph glyph-name="Hcircumflex" unicode="&#x124;" horiz-adv-x="717" 
d="M92 0v715h56v-333h421v333h56v-715h-56v335h-421v-335h-56zM224 771l110 122h50l108 -122h-42l-92 78l-93 -78h-41z" />
    <glyph glyph-name="hcircumflex" unicode="&#x125;" horiz-adv-x="583" 
d="M82 0v773h53v-352q19 46 69 78t116 32q87 0 136.5 -51t49.5 -158v-322h-53v325q0 160 -145 160q-70 0 -121.5 -45t-51.5 -123v-317h-53zM166 816l110 122h50l108 -122h-42l-92 78l-93 -78h-41z" />
    <glyph glyph-name="Hbar" unicode="&#x126;" horiz-adv-x="717" 
d="M148 382h421v128h-421v-128zM13 510v44h79v161h56v-161h421v161h56v-161h79v-44h-79v-510h-56v335h-421v-335h-56v510h-79z" />
    <glyph glyph-name="hbar" unicode="&#x127;" horiz-adv-x="583" 
d="M4 623v41h78v109h53v-109h189v-41h-189v-202q19 46 69 78t116 32q87 0 136.5 -51t49.5 -158v-322h-53v325q0 160 -145 160q-70 0 -121.5 -45t-51.5 -123v-317h-53v623h-78z" />
    <glyph glyph-name="Itilde" unicode="&#x128;" horiz-adv-x="250" 
d="M97 0v715h56v-715h-56zM188 774q-26 0 -66.5 26.5t-56.5 26.5q-17 0 -29.5 -14.5t-16.5 -39.5h-41q6 47 29.5 73t57.5 26q25 0 65.5 -26.5t57.5 -26.5t29.5 14.5t16.5 39.5h40q-6 -47 -29.5 -73t-56.5 -26z" />
    <glyph glyph-name="itilde" unicode="&#x129;" horiz-adv-x="221" 
d="M84 0v523h53v-523h-53zM174 616q-26 0 -67 26.5t-57 26.5t-28.5 -14.5t-16.5 -38.5h-41q6 46 29.5 72.5t57.5 26.5q25 0 66 -26.5t57 -26.5t29 14t17 39h40q-6 -46 -29.5 -72.5t-56.5 -26.5z" />
    <glyph glyph-name="Imacron" unicode="&#x12a;" horiz-adv-x="250" 
d="M97 0v715h56v-715h-56zM1 791v42h248v-42h-248z" />
    <glyph glyph-name="imacron" unicode="&#x12b;" horiz-adv-x="221" 
d="M24 647v42h173v-42h-173zM84 0v523h53v-523h-53z" />
    <glyph glyph-name="Ibreve" unicode="&#x12c;" horiz-adv-x="250" 
d="M97 0v715h56v-715h-56zM125 771q-51 0 -87 35t-39 87h44q4 -35 26 -56.5t56 -21.5q35 0 58 21.5t28 56.5h43q-3 -52 -40.5 -87t-88.5 -35z" />
    <glyph glyph-name="ibreve" unicode="&#x12d;" horiz-adv-x="221" 
d="M84 0v523h53v-523h-53zM110 616q-51 0 -85 34t-37 87h44q4 -36 24 -56.5t54 -20.5q35 0 56.5 20.5t26.5 56.5h42q-3 -53 -38.5 -87t-86.5 -34z" />
    <glyph glyph-name="Iogonek" unicode="&#x12e;" horiz-adv-x="250" 
d="M124 -182q-43 0 -68.5 20.5t-25.5 54.5q0 58 67 106v716h56v-713q-71 -48 -71 -100q0 -44 49 -44q27 0 50 10v-39q-28 -11 -57 -11z" />
    <glyph glyph-name="iogonek" unicode="&#x12f;" horiz-adv-x="221" 
d="M110 635q-16 0 -27 11t-11 27q0 15 11 26t27 11t26.5 -11t10.5 -26q0 -16 -10.5 -27t-26.5 -11zM113 -182q-43 0 -68 20.5t-25 54.5q0 57 64 105v525h53v-521q-66 -51 -66 -100q0 -44 49 -44q29 0 50 10v-39q-28 -11 -57 -11z" />
    <glyph glyph-name="Idotaccent" unicode="&#x130;" horiz-adv-x="250" 
d="M97 0v715h56v-715h-56zM125 787q-16 0 -27 11t-11 27q0 15 11 26t27 11t27 -11t11 -26q0 -16 -11 -27t-27 -11z" />
    <glyph glyph-name="dotlessi" unicode="&#x131;" horiz-adv-x="221" 
d="M84 0v523h53v-523h-53z" />
    <glyph glyph-name="IJ" unicode="&#x132;" horiz-adv-x="615" 
d="M97 0v715h56v-715h-56zM351 -7q-58 0 -100 20v47q48 -21 97 -21q129 0 129 144v532h56v-534q0 -95 -49.5 -141.5t-132.5 -46.5z" />
    <glyph glyph-name="ij" unicode="&#x133;" horiz-adv-x="442" 
d="M110 635q-16 0 -27 11t-11 27q0 15 11 26t27 11t26.5 -11t10.5 -26q0 -16 -10.5 -27t-26.5 -11zM84 0v523h53v-523h-53zM331 635q-16 0 -27 11t-11 27q0 15 11 26t27 11t26.5 -11t10.5 -26q0 -16 -10.5 -27t-26.5 -11zM228 -188v45q43 4 60 25.5t17 65.5v575h53v-571
q0 -70 -30 -103.5t-100 -36.5z" />
    <glyph glyph-name="Jcircumflex" unicode="&#x134;" horiz-adv-x="401" 
d="M137 -7q-58 0 -100 20v47q48 -21 97 -21q129 0 129 144v532h56v-534q0 -95 -49.5 -141.5t-132.5 -46.5zM156 771l110 122h50l108 -122h-42l-92 78l-93 -78h-41z" />
    <glyph glyph-name="jcircumflex" unicode="&#x135;" horiz-adv-x="221" 
d="M7 -188v45q43 4 60 25.5t17 65.5v575h53v-571q0 -70 -30 -103.5t-100 -36.5zM-23 605l110 135h50l108 -135h-42l-92 90l-93 -90h-41z" />
    <glyph glyph-name="uni0136" unicode="&#x136;" horiz-adv-x="599" 
d="M92 0v715h56v-352l347 353h64l-346 -349l363 -367h-68l-360 361v-361h-56zM274 -204l-34 16l58 147l51 -15z" />
    <glyph glyph-name="uni0137" unicode="&#x137;" horiz-adv-x="487" 
d="M82 0v773h53v-496l255 246h63l-255 -244l272 -279h-66l-269 277v-277h-53zM217 -204l-34 16l58 147l51 -15z" />
    <glyph glyph-name="Lacute" unicode="&#x139;" horiz-adv-x="530" 
d="M92 0v715h56v-669h347v-46h-403zM95 771l64 122h66l-88 -122h-42z" />
    <glyph glyph-name="lacute" unicode="&#x13a;" horiz-adv-x="222" 
d="M84 0v773h54v-773h-54zM84 816l64 122h66l-88 -122h-42z" />
    <glyph glyph-name="uni013B" unicode="&#x13b;" horiz-adv-x="530" 
d="M92 0v715h56v-669h347v-46h-403zM251 -204l-34 16l58 147l51 -15z" />
    <glyph glyph-name="uni013C" unicode="&#x13c;" horiz-adv-x="222" 
d="M84 0v773h54v-773h-54zM72 -204l-34 16l58 147l51 -15z" />
    <glyph glyph-name="Lcaron" unicode="&#x13d;" horiz-adv-x="530" 
d="M92 0v715h56v-669h347v-46h-403zM304 558l24 157h59l-44 -157h-39z" />
    <glyph glyph-name="lcaron" unicode="&#x13e;" horiz-adv-x="222" 
d="M84 0v773h54v-773h-54zM193 611l12 162h60l-33 -162h-39z" />
    <glyph glyph-name="Ldot" unicode="&#x13f;" horiz-adv-x="530" 
d="M92 0v715h56v-669h347v-46h-403zM419 333q-17 0 -29.5 12.5t-12.5 30.5q0 17 12.5 29.5t29.5 12.5q18 0 30.5 -12.5t12.5 -29.5q0 -18 -12.5 -30.5t-30.5 -12.5z" />
    <glyph glyph-name="ldot" unicode="&#x140;" horiz-adv-x="279" 
d="M84 0v773h54v-773h-54zM249 330q-17 0 -29.5 12.5t-12.5 30.5q0 17 12.5 29.5t29.5 12.5q18 0 30.5 -12.5t12.5 -29.5q0 -18 -12.5 -30.5t-30.5 -12.5z" />
    <glyph glyph-name="Lslash" unicode="&#x141;" horiz-adv-x="545" 
d="M34 259v45l73 27v384h56v-364l222 83v-45l-222 -83v-260h347v-46h-403v286z" />
    <glyph glyph-name="lslash" unicode="&#x142;" horiz-adv-x="239" 
d="M16 332v46l77 48v347h53v-313l81 51v-46l-81 -51v-414h-53v380z" />
    <glyph glyph-name="Nacute" unicode="&#x143;" horiz-adv-x="713" 
d="M92 0v715h76l400 -638v638h53v-715h-66l-409 653v-653h-54zM339 771l64 122h66l-88 -122h-42z" />
    <glyph glyph-name="nacute" unicode="&#x144;" horiz-adv-x="583" 
d="M82 0v523h53v-102q19 46 69 78t116 32q87 0 136.5 -51t49.5 -158v-322h-53v325q0 160 -145 160q-70 0 -121.5 -45t-51.5 -123v-317h-53zM262 605l68 147h65l-92 -147h-41z" />
    <glyph glyph-name="uni0145" unicode="&#x145;" horiz-adv-x="713" 
d="M92 0v715h76l400 -638v638h53v-715h-66l-409 653v-653h-54zM308 -204l-34 16l58 147l51 -15z" />
    <glyph glyph-name="uni0146" unicode="&#x146;" horiz-adv-x="583" 
d="M82 0v523h53v-102q19 46 69 78t116 32q87 0 136.5 -51t49.5 -158v-322h-53v325q0 160 -145 160q-70 0 -121.5 -45t-51.5 -123v-317h-53zM252 -204l-34 16l58 147l51 -15z" />
    <glyph glyph-name="Ncaron" unicode="&#x147;" horiz-adv-x="713" 
d="M92 0v715h76l400 -638v638h53v-715h-66l-409 653v-653h-54zM341 771l-109 122h42l93 -77l94 77h41l-111 -122h-50z" />
    <glyph glyph-name="ncaron" unicode="&#x148;" horiz-adv-x="583" 
d="M82 0v523h53v-102q19 46 69 78t116 32q87 0 136.5 -51t49.5 -158v-322h-53v325q0 160 -145 160q-70 0 -121.5 -45t-51.5 -123v-317h-53zM264 613l-108 135h42l92 -90l93 90h41l-110 -135h-50z" />
    <glyph glyph-name="napostrophe" unicode="&#x149;" horiz-adv-x="590" 
d="M88 0v523h53v-102q19 46 69 78t116 32q87 0 136.5 -51t49.5 -158v-322h-53v325q0 160 -145 160q-70 0 -121.5 -45t-51.5 -123v-317h-53zM-1 528l-34 17l75 177l51 -22z" />
    <glyph glyph-name="Eng" unicode="&#x14a;" horiz-adv-x="713" 
d="M439 -190q-62 0 -100 20v47q48 -21 98 -21q128 0 129 139l-420 658v-653h-54v715h76l400 -625v625h53v-713q0 -98 -49 -145t-133 -47z" />
    <glyph glyph-name="eng" unicode="&#x14b;" horiz-adv-x="583" 
d="M366 -188v45q47 4 67 28t20 74v366q0 160 -145 160q-70 0 -121.5 -45t-51.5 -123v-317h-53v523h53v-102q19 46 69 78t116 32q87 0 136.5 -51t49.5 -158v-359q0 -76 -32.5 -111.5t-107.5 -39.5z" />
    <glyph glyph-name="Omacron" unicode="&#x14c;" horiz-adv-x="801" 
d="M403 -8q-151 0 -250.5 104.5t-99.5 256.5v8q0 153 99 257.5t249 104.5t249 -104t99 -256v-8q0 -153 -98.5 -258t-247.5 -105zM403 39q127 0 207.5 89.5t80.5 227.5v8q0 133 -80.5 223t-209.5 90q-130 0 -210.5 -89t-80.5 -226v-8q0 -136 84 -225.5t209 -89.5zM276 791v42
h248v-42h-248z" />
    <glyph glyph-name="omacron" unicode="&#x14d;" horiz-adv-x="591" 
d="M295 -8q-107 0 -179.5 75t-72.5 190v8q0 116 73 191t180 75q108 0 180 -74t72 -191v-8q0 -117 -73 -191.5t-180 -74.5zM296 37q86 0 141.5 60t55.5 160v8q0 101 -56 161t-141 60q-86 0 -142 -60.5t-56 -160.5v-8q0 -99 55.5 -159.5t142.5 -60.5zM174 647v42h242v-42h-242
z" />
    <glyph glyph-name="Obreve" unicode="&#x14e;" horiz-adv-x="801" 
d="M403 -8q-151 0 -250.5 104.5t-99.5 256.5v8q0 153 99 257.5t249 104.5t249 -104t99 -256v-8q0 -153 -98.5 -258t-247.5 -105zM403 39q127 0 207.5 89.5t80.5 227.5v8q0 133 -80.5 223t-209.5 90q-130 0 -210.5 -89t-80.5 -226v-8q0 -136 84 -225.5t209 -89.5zM398 771
q-51 0 -87 35t-39 87h44q4 -35 26 -56.5t56 -21.5q35 0 58 21.5t28 56.5h43q-3 -52 -40.5 -87t-88.5 -35z" />
    <glyph glyph-name="obreve" unicode="&#x14f;" horiz-adv-x="591" 
d="M295 -8q-107 0 -179.5 75t-72.5 190v8q0 116 73 191t180 75q108 0 180 -74t72 -191v-8q0 -117 -73 -191.5t-180 -74.5zM296 37q86 0 141.5 60t55.5 160v8q0 101 -56 161t-141 60q-86 0 -142 -60.5t-56 -160.5v-8q0 -99 55.5 -159.5t142.5 -60.5zM294 616q-51 0 -85 34
t-37 87h44q4 -36 24 -56.5t54 -20.5q35 0 56.5 20.5t26.5 56.5h42q-3 -53 -38.5 -87t-86.5 -34z" />
    <glyph glyph-name="Ohungarumlaut" unicode="&#x150;" horiz-adv-x="801" 
d="M403 -8q-151 0 -250.5 104.5t-99.5 256.5v8q0 153 99 257.5t249 104.5t249 -104t99 -256v-8q0 -153 -98.5 -258t-247.5 -105zM403 39q127 0 207.5 89.5t80.5 227.5v8q0 133 -80.5 223t-209.5 90q-130 0 -210.5 -89t-80.5 -226v-8q0 -136 84 -225.5t209 -89.5zM442 771
l45 122h60l-65 -122h-40zM310 771l45 122h60l-65 -122h-40z" />
    <glyph glyph-name="ohungarumlaut" unicode="&#x151;" horiz-adv-x="591" 
d="M295 -8q-107 0 -179.5 75t-72.5 190v8q0 116 73 191t180 75q108 0 180 -74t72 -191v-8q0 -117 -73 -191.5t-180 -74.5zM296 37q86 0 141.5 60t55.5 160v8q0 101 -56 161t-141 60q-86 0 -142 -60.5t-56 -160.5v-8q0 -99 55.5 -159.5t142.5 -60.5zM341 605l49 147h60
l-69 -147h-40zM209 605l49 147h60l-69 -147h-40z" />
    <glyph glyph-name="OE" unicode="&#x152;" horiz-adv-x="956" 
d="M53 359q0 157 91 256.5t267 99.5h482v-46h-340v-279h273v-46h-273v-298h358v-46h-502q-172 0 -264 97.5t-92 253.5v8zM498 669h-85q-148 0 -225.5 -84t-77.5 -226v-8q0 -139 76 -222t228 -83h84v623z" />
    <glyph glyph-name="oe" unicode="&#x153;" horiz-adv-x="1003" 
d="M295 -8q-107 0 -179.5 75t-72.5 190v8q0 116 73 191t180 75q77 0 136.5 -40t87.5 -111q26 71 81.5 111t131.5 40q100 0 164 -65.5t64 -189.5v-19h-414q2 -106 52 -163t142 -57q66 0 108 27.5t55 81.5h53q-16 -74 -74 -114t-143 -40q-82 0 -139 40t-82 111
q-28 -70 -87.5 -110.5t-136.5 -40.5zM549 300h358q-4 93 -50 139.5t-124 46.5q-76 0 -126.5 -50.5t-57.5 -135.5zM296 37q86 0 141.5 60t55.5 160v8q0 101 -56 161t-141 60q-86 0 -142 -60.5t-56 -160.5v-8q0 -99 55.5 -159.5t142.5 -60.5z" />
    <glyph glyph-name="Racute" unicode="&#x154;" horiz-adv-x="606" 
d="M148 371h143q184 0 184 148v4q0 79 -47.5 112.5t-136.5 33.5h-143v-298zM92 0v715h196q111 0 177 -46.5t66 -145.5v-4q0 -163 -185 -189l227 -330h-62l-224 326h-139v-326h-56zM266 771l64 122h66l-88 -122h-42z" />
    <glyph glyph-name="racute" unicode="&#x155;" horiz-adv-x="348" 
d="M82 0v523h53v-110q51 113 177 117v-50q-177 -7 -177 -190v-290h-53zM165 605l68 147h65l-92 -147h-41z" />
    <glyph glyph-name="uni0156" unicode="&#x156;" horiz-adv-x="606" 
d="M148 371h143q184 0 184 148v4q0 79 -47.5 112.5t-136.5 33.5h-143v-298zM92 0v715h196q111 0 177 -46.5t66 -145.5v-4q0 -163 -185 -189l227 -330h-62l-224 326h-139v-326h-56zM266 -204l-34 16l58 147l51 -15z" />
    <glyph glyph-name="uni0157" unicode="&#x157;" horiz-adv-x="348" 
d="M82 0v523h53v-110q51 113 177 117v-50q-177 -7 -177 -190v-290h-53zM69 -204l-34 16l58 147l51 -15z" />
    <glyph glyph-name="Rcaron" unicode="&#x158;" horiz-adv-x="606" 
d="M148 371h143q184 0 184 148v4q0 79 -47.5 112.5t-136.5 33.5h-143v-298zM92 0v715h196q111 0 177 -46.5t66 -145.5v-4q0 -163 -185 -189l227 -330h-62l-224 326h-139v-326h-56zM268 771l-109 122h42l93 -77l94 77h41l-111 -122h-50z" />
    <glyph glyph-name="rcaron" unicode="&#x159;" horiz-adv-x="348" 
d="M82 0v523h53v-110q51 113 177 117v-50q-177 -7 -177 -190v-290h-53zM167 613l-108 135h42l92 -90l93 90h41l-110 -135h-50z" />
    <glyph glyph-name="Sacute" unicode="&#x15a;" horiz-adv-x="602" 
d="M308 -8q-125 0 -189.5 58.5t-76.5 154.5h55q22 -167 211 -167q83 0 134 43t51 110q0 74 -41.5 107t-150.5 50q-120 18 -175.5 61.5t-55.5 126.5t62.5 135t162.5 52q99 0 158.5 -47t71.5 -133h-51q-26 134 -179 134q-82 0 -127.5 -36t-45.5 -101q0 -61 40 -93.5t148 -48.5
q126 -19 181.5 -62.5t55.5 -140.5q0 -86 -66.5 -144.5t-172.5 -58.5zM266 771l64 122h66l-88 -122h-42z" />
    <glyph glyph-name="sacute" unicode="&#x15b;" horiz-adv-x="465" 
d="M239 -9q-91 0 -143.5 44.5t-57.5 120.5h51q15 -120 150 -120q65 0 99 27.5t34 75.5t-30 70t-107 36q-99 18 -139.5 49t-40.5 97q0 64 51 102t121 38q163 0 182 -142h-51q-19 97 -132 97q-55 0 -88.5 -25.5t-33.5 -67.5q0 -44 30.5 -65.5t112.5 -35.5q93 -17 134.5 -47
t41.5 -102q0 -68 -48.5 -110t-135.5 -42zM204 605l68 147h65l-92 -147h-41z" />
    <glyph glyph-name="Scircumflex" unicode="&#x15c;" horiz-adv-x="602" 
d="M308 -8q-125 0 -189.5 58.5t-76.5 154.5h55q22 -167 211 -167q83 0 134 43t51 110q0 74 -41.5 107t-150.5 50q-120 18 -175.5 61.5t-55.5 126.5t62.5 135t162.5 52q99 0 158.5 -47t71.5 -133h-51q-26 134 -179 134q-82 0 -127.5 -36t-45.5 -101q0 -61 40 -93.5t148 -48.5
q126 -19 181.5 -62.5t55.5 -140.5q0 -86 -66.5 -144.5t-172.5 -58.5zM160 771l110 122h50l108 -122h-42l-92 78l-93 -78h-41z" />
    <glyph glyph-name="scircumflex" unicode="&#x15d;" horiz-adv-x="465" 
d="M239 -9q-91 0 -143.5 44.5t-57.5 120.5h51q15 -120 150 -120q65 0 99 27.5t34 75.5t-30 70t-107 36q-99 18 -139.5 49t-40.5 97q0 64 51 102t121 38q163 0 182 -142h-51q-19 97 -132 97q-55 0 -88.5 -25.5t-33.5 -67.5q0 -44 30.5 -65.5t112.5 -35.5q93 -17 134.5 -47
t41.5 -102q0 -68 -48.5 -110t-135.5 -42zM98 605l110 135h50l108 -135h-42l-92 90l-93 -90h-41z" />
    <glyph glyph-name="uni015E" unicode="&#x15e;" horiz-adv-x="602" 
d="M277 -212q-40 0 -66 21.5t-30 56.5h44q3 -18 16 -30t34 -12q23 0 36.5 12t13.5 32q0 39 -45 39q-20 0 -36 -8l-26 21l42 75q-101 11 -154 67.5t-64 142.5h55q22 -167 211 -167q83 0 134 43t51 110q0 74 -41.5 107t-150.5 50q-120 18 -175.5 61.5t-55.5 126.5t62.5 135
t162.5 52q99 0 158.5 -47t71.5 -133h-51q-26 134 -179 134q-82 0 -127.5 -36t-45.5 -101q0 -61 40 -93.5t148 -48.5q126 -19 181.5 -62.5t55.5 -140.5q0 -86 -66.5 -144.5t-172.5 -58.5h-7l-30 -53q40 9 70.5 -10.5t30.5 -62.5q0 -37 -27 -57.5t-68 -20.5z" />
    <glyph glyph-name="uni015F" unicode="&#x15f;" horiz-adv-x="465" 
d="M218 -212q-40 0 -66 21.5t-30 56.5h44q3 -18 16 -30t34 -12q23 0 36.5 12t13.5 32q0 39 -45 39q-20 0 -36 -8l-26 21l41 74q-73 9 -115 51.5t-47 110.5h51q15 -120 150 -120q65 0 99 27.5t34 75.5t-30 70t-107 36q-99 18 -139.5 49t-40.5 97q0 64 51 102t121 38
q163 0 182 -142h-51q-19 97 -132 97q-55 0 -88.5 -25.5t-33.5 -67.5q0 -44 30.5 -65.5t112.5 -35.5q93 -17 134.5 -47t41.5 -102q0 -68 -47.5 -109.5t-133.5 -42.5l-30 -52q40 9 70.5 -10.5t30.5 -62.5q0 -37 -27 -57.5t-68 -20.5z" />
    <glyph glyph-name="Scaron" unicode="&#x160;" horiz-adv-x="602" 
d="M308 -8q-125 0 -189.5 58.5t-76.5 154.5h55q22 -167 211 -167q83 0 134 43t51 110q0 74 -41.5 107t-150.5 50q-120 18 -175.5 61.5t-55.5 126.5t62.5 135t162.5 52q99 0 158.5 -47t71.5 -133h-51q-26 134 -179 134q-82 0 -127.5 -36t-45.5 -101q0 -61 40 -93.5t148 -48.5
q126 -19 181.5 -62.5t55.5 -140.5q0 -86 -66.5 -144.5t-172.5 -58.5zM267 771l-109 122h42l93 -77l94 77h41l-111 -122h-50z" />
    <glyph glyph-name="scaron" unicode="&#x161;" horiz-adv-x="465" 
d="M239 -9q-91 0 -143.5 44.5t-57.5 120.5h51q15 -120 150 -120q65 0 99 27.5t34 75.5t-30 70t-107 36q-99 18 -139.5 49t-40.5 97q0 64 51 102t121 38q163 0 182 -142h-51q-19 97 -132 97q-55 0 -88.5 -25.5t-33.5 -67.5q0 -44 30.5 -65.5t112.5 -35.5q93 -17 134.5 -47
t41.5 -102q0 -68 -48.5 -110t-135.5 -42zM206 613l-108 135h42l92 -90l93 90h41l-110 -135h-50z" />
    <glyph glyph-name="Tcommaaccent" unicode="&#x162;" horiz-adv-x="559" 
d="M252 0v669h-222v46h499v-46h-222v-669h-55zM241 -204l-34 16l58 147l51 -15z" />
    <glyph glyph-name="tcommaaccent" unicode="&#x163;" horiz-adv-x="338" 
d="M230 -7q-62 0 -95 35t-33 98v352h-77v45h77v119h53v-119h137v-45h-137v-348q0 -92 78 -92q33 0 66 11v-45q-31 -11 -69 -11zM146 -204l-34 16l58 147l51 -15z" />
    <glyph glyph-name="Tcaron" unicode="&#x164;" horiz-adv-x="559" 
d="M252 0v669h-222v46h499v-46h-222v-669h-55zM253 771l-109 122h42l93 -77l94 77h41l-111 -122h-50z" />
    <glyph glyph-name="tcaron" unicode="&#x165;" horiz-adv-x="338" 
d="M230 -7q-62 0 -95 35t-33 98v352h-77v45h77v119h53v-119h137v-45h-137v-348q0 -92 78 -92q33 0 66 11v-45q-31 -11 -69 -11zM244 611l12 162h60l-33 -162h-39z" />
    <glyph glyph-name="Tbar" unicode="&#x166;" horiz-adv-x="559" 
d="M100 365v43h152v261h-222v46h499v-46h-222v-261h153v-43h-153v-365h-55v365h-152z" />
    <glyph glyph-name="tbar" unicode="&#x167;" horiz-adv-x="338" 
d="M25 302v39h77v137h-77v45h77v119h53v-119h137v-45h-137v-137h137v-39h-137v-172q0 -92 78 -92q33 0 66 11v-45q-31 -11 -69 -11q-62 0 -95 35t-33 98v176h-77z" />
    <glyph glyph-name="Utilde" unicode="&#x168;" horiz-adv-x="682" 
d="M338 -7q-122 0 -189 68t-67 195v459h55v-453q0 -222 202 -222q105 0 155.5 55.5t50.5 179.5v440h56v-448q0 -131 -66 -202.5t-197 -71.5zM403 774q-26 0 -66.5 26.5t-56.5 26.5q-17 0 -29.5 -14.5t-16.5 -39.5h-41q6 47 29.5 73t57.5 26q25 0 65.5 -26.5t57.5 -26.5
t29.5 14.5t16.5 39.5h40q-6 -47 -29.5 -73t-56.5 -26z" />
    <glyph glyph-name="utilde" unicode="&#x169;" horiz-adv-x="579" 
d="M261 -8q-86 0 -135 48.5t-49 151.5v331h53v-328q0 -157 143 -157q69 0 120 44.5t51 122.5v318h53v-523h-53v100q-19 -46 -68 -77t-115 -31zM351 616q-26 0 -67 26.5t-57 26.5t-28.5 -14.5t-16.5 -38.5h-41q6 46 29.5 72.5t57.5 26.5q25 0 66 -26.5t57 -26.5t29 14t17 39
h40q-6 -46 -29.5 -72.5t-56.5 -26.5z" />
    <glyph glyph-name="Umacron" unicode="&#x16a;" horiz-adv-x="682" 
d="M338 -7q-122 0 -189 68t-67 195v459h55v-453q0 -222 202 -222q105 0 155.5 55.5t50.5 179.5v440h56v-448q0 -131 -66 -202.5t-197 -71.5zM217 791v42h248v-42h-248z" />
    <glyph glyph-name="umacron" unicode="&#x16b;" horiz-adv-x="579" 
d="M261 -8q-86 0 -135 48.5t-49 151.5v331h53v-328q0 -157 143 -157q69 0 120 44.5t51 122.5v318h53v-523h-53v100q-19 -46 -68 -77t-115 -31zM168 647v42h242v-42h-242z" />
    <glyph glyph-name="Ubreve" unicode="&#x16c;" horiz-adv-x="682" 
d="M338 -7q-122 0 -189 68t-67 195v459h55v-453q0 -222 202 -222q105 0 155.5 55.5t50.5 179.5v440h56v-448q0 -131 -66 -202.5t-197 -71.5zM339 771q-51 0 -87 35t-39 87h44q4 -35 26 -56.5t56 -21.5q35 0 58 21.5t28 56.5h43q-3 -52 -40.5 -87t-88.5 -35z" />
    <glyph glyph-name="ubreve" unicode="&#x16d;" horiz-adv-x="579" 
d="M261 -8q-86 0 -135 48.5t-49 151.5v331h53v-328q0 -157 143 -157q69 0 120 44.5t51 122.5v318h53v-523h-53v100q-19 -46 -68 -77t-115 -31zM288 616q-51 0 -85 34t-37 87h44q4 -36 24 -56.5t54 -20.5q35 0 56.5 20.5t26.5 56.5h42q-3 -53 -38.5 -87t-86.5 -34z" />
    <glyph glyph-name="Uring" unicode="&#x16e;" horiz-adv-x="682" 
d="M338 -7q-122 0 -189 68t-67 195v459h55v-453q0 -222 202 -222q105 0 155.5 55.5t50.5 179.5v440h56v-448q0 -131 -66 -202.5t-197 -71.5zM341 730q-40 0 -69 28.5t-29 67.5t29 67t69 28t69 -28t29 -67t-29 -67.5t-69 -28.5zM341 762q26 0 43.5 18.5t17.5 45.5t-17.5 45.5
t-43.5 18.5t-43.5 -18.5t-17.5 -45.5t17.5 -45.5t43.5 -18.5z" />
    <glyph glyph-name="uring" unicode="&#x16f;" horiz-adv-x="579" 
d="M261 -8q-86 0 -135 48.5t-49 151.5v331h53v-328q0 -157 143 -157q69 0 120 44.5t51 122.5v318h53v-523h-53v100q-19 -46 -68 -77t-115 -31zM288 585q-40 0 -69 28t-29 67t29 67.5t69 28.5t69 -28.5t29 -67.5t-29 -67t-69 -28zM288 617q26 0 43.5 18t17.5 45
q0 28 -17.5 46t-43.5 18t-43.5 -18t-17.5 -46q0 -27 17.5 -45t43.5 -18z" />
    <glyph glyph-name="Uhungarumlaut" unicode="&#x170;" horiz-adv-x="682" 
d="M338 -7q-122 0 -189 68t-67 195v459h55v-453q0 -222 202 -222q105 0 155.5 55.5t50.5 179.5v440h56v-448q0 -131 -66 -202.5t-197 -71.5zM383 771l45 122h60l-65 -122h-40zM251 771l45 122h60l-65 -122h-40z" />
    <glyph glyph-name="uhungarumlaut" unicode="&#x171;" horiz-adv-x="579" 
d="M261 -8q-86 0 -135 48.5t-49 151.5v331h53v-328q0 -157 143 -157q69 0 120 44.5t51 122.5v318h53v-523h-53v100q-19 -46 -68 -77t-115 -31zM335 605l49 147h60l-69 -147h-40zM203 605l49 147h60l-69 -147h-40z" />
    <glyph glyph-name="Uogonek" unicode="&#x172;" horiz-adv-x="682" 
d="M381 -182q-43 0 -68 20.5t-25 54.5q0 61 71 101q-3 0 -10.5 -0.5t-10.5 -0.5q-122 0 -189 68t-67 195v459h55v-453q0 -222 202 -222q105 0 155.5 55.5t50.5 179.5v440h56v-448q0 -193 -136 -250q-62 -27 -94 -52.5t-32 -62.5q0 -44 49 -44q29 0 50 10v-39
q-27 -11 -57 -11z" />
    <glyph glyph-name="uogonek" unicode="&#x173;" horiz-adv-x="579" 
d="M460 -182q-43 0 -68 20.5t-25 54.5q0 32 22 60.5t55 46.5v100q-19 -46 -68 -77t-115 -31q-86 0 -135 48.5t-49 151.5v331h53v-328q0 -157 143 -157q69 0 120 44.5t51 122.5v318h53v-520q-80 -51 -80 -101q0 -44 50 -44q29 0 50 10v-39q-28 -11 -57 -11z" />
    <glyph glyph-name="Wcircumflex" unicode="&#x174;" horiz-adv-x="920" 
d="M222 0l-189 715h56l164 -630l189 630h39l182 -632l173 632h51l-196 -715h-54l-176 616l-186 -616h-53zM325 771l110 122h50l108 -122h-42l-92 78l-93 -78h-41z" />
    <glyph glyph-name="wcircumflex" unicode="&#x175;" horiz-adv-x="776" 
d="M192 0l-163 523h57l140 -458l143 458h45l138 -458l141 458h54l-165 -523h-61l-130 438l-139 -438h-60zM254 605l110 135h50l108 -135h-42l-92 90l-93 -90h-41z" />
    <glyph glyph-name="Ycircumflex" unicode="&#x176;" horiz-adv-x="578" 
d="M268 0v318l-245 397h62l212 -350l202 350h56l-231 -398v-317h-56zM158 771l110 122h50l108 -122h-42l-92 78l-93 -78h-41z" />
    <glyph glyph-name="ycircumflex" unicode="&#x177;" horiz-adv-x="508" 
d="M137 -182l95 227l-207 478h57l179 -417l167 417h54l-290 -705h-55zM121 605l110 135h50l108 -135h-42l-92 90l-93 -90h-41z" />
    <glyph glyph-name="Ydieresis" unicode="&#x178;" horiz-adv-x="578" 
d="M268 0v318l-245 397h62l212 -350l202 350h56l-231 -398v-317h-56zM382 788q-15 0 -25.5 11t-10.5 26q0 14 10.5 25t25.5 11t25.5 -11t10.5 -25q0 -15 -10.5 -26t-25.5 -11zM202 788q-16 0 -26.5 11t-10.5 26t10.5 25.5t26.5 10.5q15 0 25.5 -11t10.5 -25q0 -15 -10.5 -26
t-25.5 -11z" />
    <glyph glyph-name="Zacute" unicode="&#x179;" horiz-adv-x="587" 
d="M27 0v11l443 658h-407v46h485v-10l-437 -657h431v-48h-515zM269 771l64 122h66l-88 -122h-42z" />
    <glyph glyph-name="zacute" unicode="&#x17a;" horiz-adv-x="474" 
d="M24 0v9l340 469h-310v45h393v-10l-337 -466h330v-47h-416zM217 605l68 147h65l-92 -147h-41z" />
    <glyph glyph-name="Zdotaccent" unicode="&#x17b;" horiz-adv-x="587" 
d="M27 0v11l443 658h-407v46h485v-10l-437 -657h431v-48h-515zM296 787q-16 0 -27 11t-11 27q0 15 11 26t27 11t27 -11t11 -26q0 -16 -11 -27t-27 -11z" />
    <glyph glyph-name="zdotaccent" unicode="&#x17c;" horiz-adv-x="474" 
d="M24 0v9l340 469h-310v45h393v-10l-337 -466h330v-47h-416zM245 635q-16 0 -27 11t-11 27q0 15 11 26t27 11t27 -11t11 -26q0 -16 -11 -27t-27 -11z" />
    <glyph glyph-name="Zcaron" unicode="&#x17d;" horiz-adv-x="587" 
d="M27 0v11l443 658h-407v46h485v-10l-437 -657h431v-48h-515zM270 771l-109 122h42l93 -77l94 77h41l-111 -122h-50z" />
    <glyph glyph-name="zcaron" unicode="&#x17e;" horiz-adv-x="474" 
d="M24 0v9l340 469h-310v45h393v-10l-337 -466h330v-47h-416zM219 613l-108 135h42l92 -90l93 90h41l-110 -135h-50z" />
    <glyph glyph-name="uni0192" unicode="&#x192;" horiz-adv-x="384" 
d="M29 359v44h95l25 163q23 158 161 158q35 0 68 -11v-46q-30 12 -67 12q-93 0 -110 -115l-25 -161h145v-44h-151l-83 -541h-53l83 541h-88z" />
    <glyph glyph-name="Aringacute" unicode="&#x1fa;" horiz-adv-x="654" 
d="M325 669l-145 -405h290zM33 0l257 715h74l257 -715h-56l-79 219h-322l-78 -219h-53zM326 749q-40 0 -69 28.5t-29 67.5t29 67t69 28t69 -28t29 -67t-29 -67.5t-69 -28.5zM326 781q26 0 43.5 18.5t17.5 45.5t-17.5 45.5t-43.5 18.5t-43.5 -18.5t-17.5 -45.5t17.5 -45.5
t43.5 -18.5zM301 969l64 122h66l-88 -122h-42z" />
    <glyph glyph-name="aringacute" unicode="&#x1fb;" horiz-adv-x="529" 
d="M225 35q73 0 123 38t50 96v89h-107q-59 0 -99.5 -9t-67.5 -36t-27 -72q0 -106 128 -106zM221 -8q-80 0 -128.5 38.5t-48.5 110.5q0 84 68 121t177 37h109v47q0 73 -31.5 106.5t-100.5 33.5q-130 0 -147 -111h-52q9 78 65 117t136 39q183 0 183 -185v-346h-53v80
q-57 -88 -177 -88zM269 591q-40 0 -69 28t-29 67t29 67.5t69 28.5t69 -28.5t29 -67.5t-29 -67t-69 -28zM269 623q26 0 43.5 18t17.5 45q0 28 -17.5 46t-43.5 18t-43.5 -18t-17.5 -46q0 -27 17.5 -45t43.5 -18zM247 829l64 122h66l-88 -122h-42z" />
    <glyph glyph-name="AEacute" unicode="&#x1fc;" horiz-adv-x="946" 
d="M421 669l-203 -405h254v405h-51zM29 0l363 715h491v-46h-355v-279h288v-46h-288v-298h373v-46h-429v220h-276l-110 -220h-57zM580 771l64 122h66l-88 -122h-42z" />
    <glyph glyph-name="aeacute" unicode="&#x1fd;" horiz-adv-x="897" 
d="M638 -8q-74 0 -128 34.5t-81 96.5q-25 -65 -79.5 -98t-128.5 -33q-80 0 -128.5 38t-48.5 110q0 85 67.5 122t175.5 37h113v46q0 73 -32.5 107t-101.5 34q-130 0 -147 -111h-52q8 78 64.5 117t136.5 39q140 0 171 -114q63 114 193 114q98 0 160.5 -65t62.5 -190v-18h-403
q2 -106 49.5 -163.5t137.5 -57.5q134 0 159 109h53q-15 -74 -72.5 -114t-140.5 -40zM453 299h348q-4 94 -48 140.5t-121 46.5q-74 0 -123 -51t-56 -136zM226 35q73 0 123.5 40t50.5 106v77h-112q-91 0 -141 -26t-50 -92q0 -105 129 -105zM425 605l68 147h65l-92 -147h-41z
" />
    <glyph glyph-name="Oslashacute" unicode="&#x1fe;" horiz-adv-x="801" 
d="M110 354q0 -120 63 -203l416 458q-76 68 -188 68q-130 0 -210.5 -89t-80.5 -226v-8zM403 39q127 0 207.5 89.5t80.5 227.5v8q0 131 -73 216l-417 -461q82 -80 202 -80zM71 -24l-30 29l97 107q-85 101 -85 241v8q0 153 99 257.5t249 104.5q127 0 221 -78l85 94l29 -30
l-84 -92q97 -103 97 -254v-8q0 -153 -98.5 -258t-247.5 -105q-140 0 -236 90zM373 771l64 122h66l-88 -122h-42z" />
    <glyph glyph-name="oslashacute" unicode="&#x1ff;" horiz-adv-x="591" 
d="M98 257q0 -83 39 -139l288 319q-52 49 -129 49q-86 0 -142 -60.5t-56 -160.5v-8zM296 37q86 0 141.5 60t55.5 160v8q0 84 -42 144l-289 -321q54 -51 134 -51zM61 -25l-30 25l72 80q-60 73 -60 177v8q0 116 73 191t180 75q93 0 162 -58l64 72l29 -25l-66 -73
q63 -74 63 -181v-8q0 -117 -73 -191.5t-180 -74.5q-96 0 -165 60zM266 605l68 147h65l-92 -147h-41z" />
    <glyph glyph-name="uni0218" unicode="&#x218;" horiz-adv-x="602" 
d="M308 -8q-125 0 -189.5 58.5t-76.5 154.5h55q22 -167 211 -167q83 0 134 43t51 110q0 74 -41.5 107t-150.5 50q-120 18 -175.5 61.5t-55.5 126.5t62.5 135t162.5 52q99 0 158.5 -47t71.5 -133h-51q-26 134 -179 134q-82 0 -127.5 -36t-45.5 -101q0 -61 40 -93.5t148 -48.5
q126 -19 181.5 -62.5t55.5 -140.5q0 -86 -66.5 -144.5t-172.5 -58.5zM254 -204l-34 16l58 147l51 -15z" />
    <glyph glyph-name="uni0219" unicode="&#x219;" horiz-adv-x="465" 
d="M239 -9q-91 0 -143.5 44.5t-57.5 120.5h51q15 -120 150 -120q65 0 99 27.5t34 75.5t-30 70t-107 36q-99 18 -139.5 49t-40.5 97q0 64 51 102t121 38q163 0 182 -142h-51q-19 97 -132 97q-55 0 -88.5 -25.5t-33.5 -67.5q0 -44 30.5 -65.5t112.5 -35.5q93 -17 134.5 -47
t41.5 -102q0 -68 -48.5 -110t-135.5 -42zM195 -204l-34 16l58 147l51 -15z" />
    <glyph glyph-name="uni021A" unicode="&#x21a;" horiz-adv-x="559" 
d="M252 0v669h-222v46h499v-46h-222v-669h-55zM241 -204l-34 16l58 147l51 -15z" />
    <glyph glyph-name="uni021B" unicode="&#x21b;" horiz-adv-x="338" 
d="M230 -7q-62 0 -95 35t-33 98v352h-77v45h77v119h53v-119h137v-45h-137v-348q0 -92 78 -92q33 0 66 11v-45q-31 -11 -69 -11zM146 -204l-34 16l58 147l51 -15z" />
    <glyph glyph-name="uni0237" unicode="&#x237;" horiz-adv-x="221" 
d="M7 -188v45q43 4 60 25.5t17 65.5v575h53v-571q0 -70 -30 -103.5t-100 -36.5z" />
    <glyph glyph-name="uni02BC" unicode="&#x2bc;" horiz-adv-x="214" 
d="M80 528l-34 17l75 177l51 -22z" />
    <glyph glyph-name="circumflex" unicode="&#x2c6;" horiz-adv-x="400" 
d="M66 605l110 135h50l108 -135h-42l-92 90l-93 -90h-41z" />
    <glyph glyph-name="caron" unicode="&#x2c7;" horiz-adv-x="400" 
d="M174 613l-108 135h42l92 -90l93 90h41l-110 -135h-50z" />
    <glyph glyph-name="breve" unicode="&#x2d8;" horiz-adv-x="400" 
d="M199 616q-51 0 -85 34t-37 87h44q4 -36 24 -56.5t54 -20.5q35 0 56.5 20.5t26.5 56.5h42q-3 -53 -38.5 -87t-86.5 -34z" />
    <glyph glyph-name="dotaccent" unicode="&#x2d9;" horiz-adv-x="400" 
d="M200 635q-16 0 -27 11t-11 27q0 15 11 26t27 11t27 -11t11 -26q0 -16 -11 -27t-27 -11z" />
    <glyph glyph-name="ring" unicode="&#x2da;" horiz-adv-x="400" 
d="M200 601q-40 0 -69 28t-29 67t29 67.5t69 28.5t69 -28.5t29 -67.5t-29 -67t-69 -28zM200 633q26 0 43.5 18t17.5 45q0 28 -17.5 46t-43.5 18t-43.5 -18t-17.5 -46q0 -27 17.5 -45t43.5 -18z" />
    <glyph glyph-name="ogonek" unicode="&#x2db;" horiz-adv-x="400" 
d="M217 -182q-43 0 -68 20.5t-25 54.5q0 64 79 107h48q-76 -50 -76 -98q0 -44 49 -44q29 0 50 10v-39q-27 -11 -57 -11z" />
    <glyph glyph-name="tilde" unicode="&#x2dc;" horiz-adv-x="400" 
d="M264 616q-26 0 -67 26.5t-57 26.5t-28.5 -14.5t-16.5 -38.5h-41q6 46 29.5 72.5t57.5 26.5q25 0 66 -26.5t57 -26.5t29 14t17 39h40q-6 -46 -29.5 -72.5t-56.5 -26.5z" />
    <glyph glyph-name="hungarumlaut" unicode="&#x2dd;" horiz-adv-x="400" 
d="M244 605l49 147h60l-69 -147h-40zM112 605l49 147h60l-69 -147h-40z" />
    <glyph glyph-name="uni037E" unicode="&#x37e;" horiz-adv-x="237" 
d="M123 320q-17 0 -29.5 12t-12.5 30t12.5 30t29.5 12q18 0 30.5 -12t12.5 -30t-12.5 -30t-30.5 -12zM59 -117l-36 18l77 183l53 -24z" />
    <glyph glyph-name="pi" unicode="&#x3c0;" horiz-adv-x="588" 
d="M433 0v478h-278v-478h-53v478h-77v45h538v-45h-77v-478h-53z" />
    <glyph glyph-name="uni0401" unicode="&#x401;" horiz-adv-x="566" 
d="M92 0v715h411v-46h-355v-279h288v-46h-288v-298h373v-46h-429zM389 788q-15 0 -25.5 11t-10.5 26q0 14 10.5 25t25.5 11t25.5 -11t10.5 -25q0 -15 -10.5 -26t-25.5 -11zM209 788q-16 0 -26.5 11t-10.5 26t11 25.5t26 10.5t25.5 -11t10.5 -25q0 -15 -10.5 -26t-25.5 -11z
" />
    <glyph glyph-name="uni0402" unicode="&#x402;" horiz-adv-x="765" 
d="M307 354l8 8q8 8 12.5 12t15.5 12.5t20.5 14t25 12.5t30.5 11t35 7t42 3q106 0 161.5 -59.5t55.5 -165.5q0 -104 -47.5 -160t-126.5 -56q-52 0 -90 20v47q42 -21 84 -21q59 0 92.5 43.5t33.5 125.5q0 181 -169 181q-24 0 -45 -4t-38.5 -11.5t-31 -15t-25.5 -19
l-18.5 -17.5t-15 -16.5t-9.5 -11.5v-294h-55v669h-222v46h514v-46h-237v-315z" />
    <glyph glyph-name="uni0403" unicode="&#x403;" horiz-adv-x="527" 
d="M92 0v715h397v-48h-341v-667h-56zM268 771l64 122h66l-88 -122h-42z" />
    <glyph glyph-name="uni0404" unicode="&#x404;" horiz-adv-x="725" 
d="M682 230q-19 -113 -99 -175.5t-198 -62.5q-152 0 -242 99t-90 262v8q0 157 95.5 260t236.5 103q115 0 194 -58.5t95 -165.5h-56q-17 87 -75.5 133t-156.5 46q-115 0 -191.5 -80.5t-83.5 -211.5h383v-46h-383q2 -139 76.5 -220.5t198.5 -81.5q98 0 162.5 50t81.5 141h52z
" />
    <glyph glyph-name="uni0405" unicode="&#x405;" horiz-adv-x="602" 
d="M308 -8q-125 0 -189.5 58.5t-76.5 154.5h55q22 -167 211 -167q83 0 134 43t51 110q0 74 -41.5 107t-150.5 50q-120 18 -175.5 61.5t-55.5 126.5t62.5 135t162.5 52q99 0 158.5 -47t71.5 -133h-51q-26 134 -179 134q-82 0 -127.5 -36t-45.5 -101q0 -61 40 -93.5t148 -48.5
q126 -19 181.5 -62.5t55.5 -140.5q0 -86 -66.5 -144.5t-172.5 -58.5z" />
    <glyph glyph-name="uni0406" unicode="&#x406;" horiz-adv-x="250" 
d="M97 0v715h56v-715h-56z" />
    <glyph glyph-name="uni0407" unicode="&#x407;" horiz-adv-x="250" 
d="M97 0v715h56v-715h-56zM215 788q-15 0 -25.5 11t-10.5 26q0 14 10.5 25t25.5 11t25.5 -11t10.5 -25q0 -15 -10.5 -26t-25.5 -11zM35 788q-16 0 -26.5 11t-10.5 26t11 25.5t26 10.5t25.5 -11t10.5 -25q0 -15 -10.5 -26t-25.5 -11z" />
    <glyph glyph-name="uni0408" unicode="&#x408;" horiz-adv-x="401" 
d="M137 -7q-58 0 -100 20v47q48 -21 97 -21q129 0 129 144v532h56v-534q0 -95 -49.5 -141.5t-132.5 -46.5z" />
    <glyph glyph-name="uni0409" unicode="&#x409;" horiz-adv-x="994" 
d="M524 0v668h-295q-3 -248 -16 -418q-9 -130 -40.5 -193.5t-107.5 -63.5q-12 0 -22.5 2.5t-14.5 4.5l-4 2v54q17 -7 40 -7q46 0 67 48.5t30 159.5q7 90 11 204.5t4 184.5l1 69h402v-301h132q111 0 177 -49.5t66 -149.5v-4q0 -101 -64 -156t-166 -55h-200zM579 46h148
q81 0 126 43t45 122v4q0 75 -47.5 114.5t-136.5 39.5h-135v-323z" />
    <glyph glyph-name="uni040A" unicode="&#x40a;" horiz-adv-x="1024" 
d="M609 46h148q82 0 127 41.5t45 120.5v4q0 76 -47.5 116.5t-136.5 40.5h-136v-323zM554 0v335h-406v-335h-56v715h56v-333h406v333h55v-301h132q110 0 177 -51t67 -151v-4q0 -100 -64 -154t-167 -54h-200z" />
    <glyph glyph-name="uni040B" unicode="&#x40b;" horiz-adv-x="779" 
d="M307 355q2 3 6.5 8.5t20.5 19t35 24t51.5 19t69.5 8.5q111 0 162.5 -62t51.5 -191v-181h-56v186q0 105 -36.5 154t-126.5 49q-36 0 -67.5 -9.5t-51 -22.5t-33.5 -26.5t-20 -22.5l-6 -10v-298h-55v669h-222v46h514v-46h-237v-314z" />
    <glyph glyph-name="uni040C" unicode="&#x40c;" horiz-adv-x="599" 
d="M275 771l64 122h66l-88 -122h-42zM92 0v715h56v-352l347 353h64l-346 -349l363 -367h-68l-360 361v-361h-56z" />
    <glyph glyph-name="uni040D" unicode="&#x40d;" horiz-adv-x="727" 
d="M148 0h-56v715h56v-637l432 637h55v-715h-56v637zM354 771l-88 122h66l64 -122h-42z" />
    <glyph glyph-name="uni040E" unicode="&#x40e;" horiz-adv-x="576" 
d="M302 771q-51 0 -86.5 34.5t-39.5 87.5h47q3 -36 24 -60.5t55 -24.5q35 0 57.5 24.5t25.5 60.5h46q-3 -52 -40.5 -87t-88.5 -35zM136 -7q-14 0 -25.5 2.5t-16.5 4.5l-4 2l1 51q16 -7 44 -7q44 0 74.5 26.5t56.5 82.5l-240 560h58l211 -495l211 495h53l-237 -549
q-37 -87 -77 -130t-109 -43z" />
    <glyph glyph-name="uni040F" unicode="&#x40f;" horiz-adv-x="707" 
d="M329 0h-237v715h56v-668h411v668h56v-715h-236l-2 -130h-46z" />
    <glyph glyph-name="uni0410" unicode="&#x410;" horiz-adv-x="654" 
d="M325 669l-145 -405h290zM33 0l257 715h74l257 -715h-56l-79 219h-322l-78 -219h-53z" />
    <glyph glyph-name="uni0411" unicode="&#x411;" horiz-adv-x="604" 
d="M547 205q0 -97 -59.5 -151t-162.5 -54h-233v715h404v-46h-349v-261h165q110 0 172.5 -50.5t62.5 -148.5v-4zM147 45h177q83 0 126 42t43 118v4q0 74 -47.5 114t-138.5 40h-160v-318z" />
    <glyph glyph-name="uni0412" unicode="&#x412;" horiz-adv-x="604" 
d="M92 0v715h203q100 0 158.5 -44t58.5 -137v-4q0 -121 -122 -155q157 -29 157 -174v-4q0 -96 -59 -146.5t-163 -50.5h-233zM147 393h149q161 0 161 138v4q0 135 -163 135h-147v-277zM147 45h177q169 0 169 152v4q0 148 -188 148h-158v-304z" />
    <glyph glyph-name="uni0413" unicode="&#x413;" horiz-adv-x="527" 
d="M92 0v715h397v-48h-341v-667h-56z" />
    <glyph glyph-name="uni0414" unicode="&#x414;" horiz-adv-x="694" 
d="M191 268q-15 -175 -61 -221h399v622h-315q-1 -11 -4 -84t-8 -160t-11 -157zM60 0l-4 -130h-46v177h49q36 13 53.5 68.5t27.5 159.5q8 91 14 201t8 174l2 65h420v-668h89v-177h-46l-4 130h-563z" />
    <glyph glyph-name="uni0415" unicode="&#x415;" horiz-adv-x="566" 
d="M92 0v715h411v-46h-355v-279h288v-46h-288v-298h373v-46h-429z" />
    <glyph glyph-name="uni0416" unicode="&#x416;" horiz-adv-x="869" 
d="M407 0v715h54v-715h-54zM846 0h-66l-318 362l306 353h62l-307 -348zM87 0h-64l322 364l-309 351h63l306 -353z" />
    <glyph glyph-name="uni0417" unicode="&#x417;" horiz-adv-x="587" 
d="M288 -8q-113 0 -174 59t-73 154h54q24 -167 193 -167q90 0 138.5 44t48.5 121q0 75 -45 110.5t-143 35.5h-93v43h93q77 0 117.5 39t40.5 105q0 68 -40.5 104.5t-115.5 36.5q-74 0 -114.5 -33t-53.5 -101h-51q12 86 69 133t154 47q93 0 150 -49.5t57 -137.5
q0 -61 -34.5 -104.5t-94.5 -58.5q78 -10 119 -54t41 -116q0 -95 -66.5 -153t-176.5 -58z" />
    <glyph glyph-name="uni0418" unicode="&#x418;" horiz-adv-x="727" 
d="M148 0h-56v715h56v-637l432 637h55v-715h-56v637z" />
    <glyph glyph-name="uni0419" unicode="&#x419;" horiz-adv-x="727" 
d="M369 771q-51 0 -87 35t-39 87h47q2 -36 23 -60.5t56 -24.5t57 24.5t26 60.5h46q-4 -52 -41 -87t-88 -35zM148 0h-56v715h56v-637l432 637h55v-715h-56v637z" />
    <glyph glyph-name="uni041A" unicode="&#x41a;" horiz-adv-x="599" 
d="M92 0v715h56v-352l347 353h64l-346 -349l363 -367h-68l-360 361v-361h-56z" />
    <glyph glyph-name="uni041B" unicode="&#x41b;" horiz-adv-x="682" 
d="M213 250q-9 -130 -40.5 -193.5t-107.5 -63.5q-12 0 -22.5 2.5t-14.5 4.5l-4 2v54q17 -7 40 -7q46 0 67 48.5t30 159.5q7 90 11 204.5t4 184.5l1 69h412v-715h-55v668h-305q-3 -248 -16 -418z" />
    <glyph glyph-name="uni041C" unicode="&#x41c;" horiz-adv-x="851" 
d="M92 0v715h80l252 -614l253 614h78v-715h-55v645l-269 -645h-18l-269 645v-645h-52z" />
    <glyph glyph-name="uni041D" unicode="&#x41d;" horiz-adv-x="717" 
d="M92 0v715h56v-333h421v333h56v-715h-56v335h-421v-335h-56z" />
    <glyph glyph-name="uni041E" unicode="&#x41e;" horiz-adv-x="801" 
d="M403 -8q-151 0 -250.5 104.5t-99.5 256.5v8q0 153 99 257.5t249 104.5t249 -104t99 -256v-8q0 -153 -98.5 -258t-247.5 -105zM403 39q127 0 207.5 89.5t80.5 227.5v8q0 133 -80.5 223t-209.5 90q-130 0 -210.5 -89t-80.5 -226v-8q0 -136 84 -225.5t209 -89.5z" />
    <glyph glyph-name="uni041F" unicode="&#x41f;" horiz-adv-x="707" 
d="M559 0v668h-411v-668h-56v715h523v-715h-56z" />
    <glyph glyph-name="uni0420" unicode="&#x420;" horiz-adv-x="568" 
d="M92 0v715h189q111 0 177.5 -49t66.5 -152v-4q0 -105 -66 -154.5t-177 -49.5h-134v-306h-56zM148 351h138q183 0 183 159v4q0 83 -48 119t-137 36h-136v-318z" />
    <glyph glyph-name="uni0421" unicode="&#x421;" horiz-adv-x="725" 
d="M385 -8q-152 0 -242 99t-90 262v8q0 157 95.5 260t236.5 103q115 0 194 -58.5t95 -165.5h-56q-17 87 -75.5 133t-156.5 46q-121 0 -198.5 -88t-77.5 -229v-8q0 -145 74.5 -230t201.5 -85q98 0 162.5 50t81.5 141h52q-19 -113 -99 -175.5t-198 -62.5z" />
    <glyph glyph-name="uni0422" unicode="&#x422;" horiz-adv-x="559" 
d="M252 0v669h-222v46h499v-46h-222v-669h-55z" />
    <glyph glyph-name="uni0423" unicode="&#x423;" horiz-adv-x="576" 
d="M136 -7q-14 0 -25.5 2.5t-16.5 4.5l-4 2l1 51q16 -7 44 -7q44 0 74.5 26.5t56.5 82.5l-240 560h58l211 -495l211 495h53l-237 -549q-37 -87 -77 -130t-109 -43z" />
    <glyph glyph-name="uni0424" unicode="&#x424;" horiz-adv-x="790" 
d="M422 628q148 -2 234.5 -68t86.5 -196v-8q-2 -131 -89 -197.5t-232 -68.5v-100h-54v100q-148 2 -234.5 68t-86.5 195v7q1 132 88 199t233 69v97h54v-97zM422 586v-453q261 3 264 224v8q0 111 -69.5 165t-194.5 56zM368 132v453q-263 -5 -264 -226v-6q0 -111 69.5 -165
t194.5 -56z" />
    <glyph glyph-name="uni0425" unicode="&#x425;" horiz-adv-x="646" 
d="M46 0l247 370l-226 345h61l200 -303l198 303h58l-228 -346l244 -369h-63l-217 328l-217 -328h-57z" />
    <glyph glyph-name="uni0426" unicode="&#x426;" horiz-adv-x="725" 
d="M704 -130h-46l-4 130h-562v715h56v-668h411v668h56v-668h89v-177z" />
    <glyph glyph-name="uni0427" unicode="&#x427;" horiz-adv-x="649" 
d="M557 0h-56v368q-9 -12 -30 -28t-71.5 -34.5t-110.5 -18.5q-109 0 -167 63.5t-58 187.5v177h56v-181q0 -202 172 -202q42 0 79.5 10t58.5 21t39.5 28.5t22.5 23l9 12.5v288h56v-715z" />
    <glyph glyph-name="uni0428" unicode="&#x428;" horiz-adv-x="974" 
d="M92 0v715h56v-668h311v668h56v-668h311v668h56v-715h-790z" />
    <glyph glyph-name="uni0429" unicode="&#x429;" horiz-adv-x="992" 
d="M971 -130h-46l-4 130h-829v715h56v-668h311v668h56v-668h311v668h56v-668h89v-177z" />
    <glyph glyph-name="uni042A" unicode="&#x42a;" horiz-adv-x="709" 
d="M229 0v668h-199v47h254v-301h142q110 0 176.5 -51t66.5 -151v-4q0 -100 -63.5 -154t-166.5 -54h-210zM284 46h158q82 0 127 41.5t45 120.5v4q0 76 -48 116.5t-137 40.5h-145v-323z" />
    <glyph glyph-name="uni042B" unicode="&#x42b;" horiz-adv-x="779" 
d="M686 715v-715h-55v715h55zM92 0v715h56v-301h134q110 0 177 -51t67 -151v-4q0 -100 -64 -154t-167 -54h-203zM148 46h150q82 0 127 41.5t45 120.5v4q0 76 -47.5 116.5t-136.5 40.5h-138v-323z" />
    <glyph glyph-name="uni042C" unicode="&#x42c;" horiz-adv-x="573" 
d="M92 0v715h56v-301h142q110 0 176.5 -51t66.5 -151v-4q0 -100 -63.5 -154t-167.5 -54h-210zM148 46h157q82 0 127 41.5t45 120.5v4q0 76 -47.5 116.5t-136.5 40.5h-145v-323z" />
    <glyph glyph-name="uni042D" unicode="&#x42d;" horiz-adv-x="723" 
d="M339 -8q-116 0 -198 59t-97 165h55q17 -87 78.5 -133t160.5 -46q118 0 194.5 84t79.5 220h-379v46h379q-6 135 -76.5 213t-191.5 78q-97 0 -160.5 -50t-82.5 -142h-52q21 115 100 176.5t197 61.5q151 0 237.5 -98.5t86.5 -262.5v-8q0 -157 -95 -260t-236 -103z" />
    <glyph glyph-name="uni042E" unicode="&#x42e;" horiz-adv-x="1015" 
d="M627 -8q-145 0 -239.5 98t-100.5 245h-139v-335h-56v715h56v-333h139q7 147 100.5 244t237.5 97q149 0 243 -103.5t94 -256.5v-8q0 -154 -93.5 -258.5t-241.5 -104.5zM627 39q126 0 202 89t76 228v8q0 134 -76 223.5t-204 89.5q-129 0 -205 -88.5t-76 -226.5v-8
q0 -137 79 -226t204 -89z" />
    <glyph glyph-name="uni042F" unicode="&#x42f;" horiz-adv-x="612" 
d="M465 669h-158q-172 0 -172 -151v-4q0 -75 47.5 -115t136.5 -40h146v310zM520 715v-715h-55v314h-137q-10 0 -15 1l-223 -315h-63l228 319q-82 14 -129 63t-47 132v4q0 100 63 148.5t168 48.5h210z" />
    <glyph glyph-name="uni0430" unicode="&#x430;" horiz-adv-x="529" 
d="M225 35q73 0 123 38t50 96v89h-107q-59 0 -99.5 -9t-67.5 -36t-27 -72q0 -106 128 -106zM221 -8q-80 0 -128.5 38.5t-48.5 110.5q0 84 68 121t177 37h109v47q0 73 -31.5 106.5t-100.5 33.5q-130 0 -147 -111h-52q9 78 65 117t136 39q183 0 183 -185v-346h-53v80
q-57 -88 -177 -88z" />
    <glyph glyph-name="uni0431" unicode="&#x431;" horiz-adv-x="601" 
d="M304 -8q-111 0 -181 77t-70 217v62q0 94 13 164.5t44.5 129t89.5 91t141 35.5l35 1q105 4 144 18v-46q-36 -15 -142 -20l-34 -1q-130 -5 -187 -88t-62 -251h3q25 69 84.5 109.5t137.5 40.5q105 0 171 -73t66 -190v-6q0 -121 -72.5 -195.5t-180.5 -74.5zM305 37
q86 0 142 60.5t56 163.5v5q0 103 -51.5 161.5t-136.5 58.5q-89 0 -148.5 -59.5t-59.5 -161.5v-2q0 -103 56 -164.5t142 -61.5z" />
    <glyph glyph-name="uni0432" unicode="&#x432;" horiz-adv-x="514" 
d="M83 0v523h187q76 0 122.5 -32t46.5 -100v-3q0 -43 -24 -73t-68 -40q118 -19 118 -123v-3q0 -73 -46.5 -111t-131.5 -38h-204zM269 480h-133v-187h134q113 0 113 93v3q0 91 -114 91zM278 250h-142v-207h146q127 0 127 103v3q0 101 -131 101z" />
    <glyph glyph-name="uni0433" unicode="&#x433;" horiz-adv-x="442" 
d="M415 478h-279v-478h-53v523h332v-45z" />
    <glyph glyph-name="uni0434" unicode="&#x434;" horiz-adv-x="570" 
d="M168 233q-16 -152 -50 -188h301v434h-233q-8 -150 -18 -246zM62 0l-4 -127h-43v172h35q33 9 46 54t23 139q5 47 10 118t7 119l3 48h332v-478h75v-172h-43l-4 127h-437z" />
    <glyph glyph-name="uni0435" unicode="&#x435;" horiz-adv-x="554" 
d="M291 -8q-113 0 -180.5 73t-67.5 191v8q0 118 67.5 192.5t172.5 74.5q100 0 164.5 -65.5t64.5 -189.5v-19h-414q2 -106 51.5 -163t141.5 -57q137 0 164 109h53q-16 -74 -74 -114t-143 -40zM100 300h357q-4 93 -49.5 139.5t-124.5 46.5q-76 0 -126 -50.5t-57 -135.5z" />
    <glyph glyph-name="uni0436" unicode="&#x436;" horiz-adv-x="678" 
d="M313 0v523h52v-523h-52zM660 0h-61l-233 273l218 250h59l-222 -247zM79 0h-61l239 276l-222 247h58l219 -250z" />
    <glyph glyph-name="uni0437" unicode="&#x437;" horiz-adv-x="481" 
d="M406 395v-3q0 -44 -25 -76.5t-68 -40.5q55 -7 86.5 -39t31.5 -84v-5q0 -67 -51.5 -111.5t-137.5 -44.5q-89 0 -141 42.5t-59 116.5h52q18 -114 148 -114q63 0 98.5 30t35.5 78v5q0 101 -130 101h-86v43h79q111 0 111 97v3q0 44 -28.5 68.5t-83.5 24.5q-109 0 -127 -105
h-51q9 74 58.5 112t122.5 38t119 -36t46 -100z" />
    <glyph glyph-name="uni0438" unicode="&#x438;" horiz-adv-x="577" 
d="M136 0h-53v523h53v-445l311 445h53v-523h-53v446z" />
    <glyph glyph-name="uni0439" unicode="&#x439;" horiz-adv-x="577" 
d="M288 616q-50 0 -86 35t-40 88h48q2 -37 23 -61t55 -24q35 0 57.5 24t25.5 61h47q-4 -53 -41.5 -88t-88.5 -35zM136 0h-53v523h53v-445l311 445h53v-523h-53v446z" />
    <glyph glyph-name="uni043A" unicode="&#x43a;" horiz-adv-x="487" 
d="M404 0l-269 273v-273h-53v523h53v-250l255 250h63l-255 -247l272 -276h-66z" />
    <glyph glyph-name="uni043B" unicode="&#x43b;" horiz-adv-x="552" 
d="M175 233q-11 -123 -38 -180t-86 -57q-11 0 -20.5 2t-13.5 4l-4 1v51q15 -7 34 -7q26 0 42.5 26t23.5 64t13 101q5 47 9 118t5 119l2 48h327v-523h-53v478h-226q-5 -135 -15 -245z" />
    <glyph glyph-name="uni043C" unicode="&#x43c;" horiz-adv-x="685" 
d="M325 0l-196 468v-468h-46v523h76l182 -439l188 439h73v-523h-53v468l-199 -468h-25z" />
    <glyph glyph-name="uni043D" unicode="&#x43d;" horiz-adv-x="573" 
d="M437 0v248h-301v-248h-53v523h53v-230h301v230h53v-523h-53z" />
    <glyph glyph-name="uni043E" unicode="&#x43e;" horiz-adv-x="591" 
d="M295 -8q-107 0 -179.5 75t-72.5 190v8q0 116 73 191t180 75q108 0 180 -74t72 -191v-8q0 -117 -73 -191.5t-180 -74.5zM296 37q86 0 141.5 60t55.5 160v8q0 101 -56 161t-141 60q-86 0 -142 -60.5t-56 -160.5v-8q0 -99 55.5 -159.5t142.5 -60.5z" />
    <glyph glyph-name="uni043F" unicode="&#x43f;" horiz-adv-x="563" 
d="M427 0v478h-291v-478h-53v523h397v-523h-53z" />
    <glyph glyph-name="uni0440" unicode="&#x440;" horiz-adv-x="612" 
d="M330 37q84 0 134 58.5t50 161.5v8q0 104 -53 162.5t-132 58.5q-81 0 -138 -59t-57 -162v-8q0 -104 55.5 -162t140.5 -58zM82 -182v705h53v-122q24 54 78.5 92t120.5 38q101 0 168 -72t67 -192v-8q0 -121 -66 -194t-169 -73q-73 0 -124.5 36.5t-74.5 90.5v-301h-53z" />
    <glyph glyph-name="uni0441" unicode="&#x441;" horiz-adv-x="556" 
d="M293 -8q-107 0 -178.5 73.5t-71.5 190.5v8q0 118 72 192.5t178 74.5q85 0 146.5 -45t71.5 -129h-52q-9 63 -55 96t-111 33q-84 0 -139.5 -60.5t-55.5 -161.5v-8q0 -101 55 -160t140 -59q68 0 116.5 38t57.5 106h49q-11 -84 -72.5 -136.5t-150.5 -52.5z" />
    <glyph glyph-name="uni0442" unicode="&#x442;" horiz-adv-x="465" 
d="M440 523v-45h-181v-478h-53v478h-181v45h415z" />
    <glyph glyph-name="uni0443" unicode="&#x443;" horiz-adv-x="508" 
d="M137 -182l95 227l-207 478h57l179 -417l167 417h54l-290 -705h-55z" />
    <glyph glyph-name="uni0444" unicode="&#x444;" horiz-adv-x="685" 
d="M369 530q120 -4 196.5 -75t76.5 -189v-8q0 -119 -76.5 -190t-196.5 -76v-174h-53v174q-120 5 -196.5 76t-76.5 189v8q0 119 76.5 190t196.5 75v243h53v-243zM316 34v455q-98 -2 -158.5 -61t-60.5 -162v-8q0 -103 60.5 -162.5t158.5 -61.5zM369 489v-456q98 3 158.5 62
t60.5 162v7q0 103 -60.5 162.5t-158.5 62.5z" />
    <glyph glyph-name="uni0445" unicode="&#x445;" horiz-adv-x="511" 
d="M29 0l194 270l-182 253h63l151 -213l149 213h59l-179 -249l198 -274h-63l-166 234l-166 -234h-58z" />
    <glyph glyph-name="uni0446" unicode="&#x446;" horiz-adv-x="579" 
d="M555 -127h-43l-4 127h-425v523h53v-478h291v478h53v-478h75v-172z" />
    <glyph glyph-name="uni0447" unicode="&#x447;" horiz-adv-x="558" 
d="M465 0h-53v263q-63 -74 -167 -74q-81 0 -128.5 48.5t-47.5 152.5v133h53v-131q0 -157 135 -157q91 0 155 81v207h53v-523z" />
    <glyph glyph-name="uni0448" unicode="&#x448;" horiz-adv-x="798" 
d="M83 0v523h53v-478h236v478h53v-478h237v478h53v-523h-632z" />
    <glyph glyph-name="uni0449" unicode="&#x449;" horiz-adv-x="814" 
d="M790 -127h-43l-4 127h-660v523h53v-478h236v478h53v-478h237v478h53v-478h75v-172z" />
    <glyph glyph-name="uni044A" unicode="&#x44a;" horiz-adv-x="578" 
d="M182 0v478h-157v45h210v-192h114q88 0 141 -40.5t53 -120.5v-3q0 -81 -50.5 -124t-133.5 -43h-177zM235 43h126q129 0 129 124v3q0 57 -34.5 88t-103.5 31h-117v-246z" />
    <glyph glyph-name="uni044B" unicode="&#x44b;" horiz-adv-x="668" 
d="M533 0v523h53v-523h-53zM83 0v523h53v-192h113q88 0 141 -40.5t53 -120.5v-3q0 -81 -50.5 -124t-133.5 -43h-176zM136 43h126q128 0 128 124v3q0 57 -34.5 88t-103.5 31h-116v-246z" />
    <glyph glyph-name="uni044C" unicode="&#x44c;" horiz-adv-x="478" 
d="M83 0v523h53v-192h113q88 0 141 -42t53 -122v-3q0 -81 -50.5 -122.5t-133.5 -41.5h-176zM136 42h126q64 0 96 32t32 90v3q0 122 -138 122h-116v-247z" />
    <glyph glyph-name="uni044D" unicode="&#x44d;" horiz-adv-x="556" 
d="M269 -8q-90 0 -153 46t-75 136h52q11 -68 58.5 -102.5t117.5 -34.5q81 0 132.5 57.5t55.5 154.5h-283v43h283q-7 92 -59.5 143t-133.5 51q-65 0 -111 -35.5t-61 -101.5h-50q14 82 75 132t148 50q109 0 178.5 -72t69.5 -190v-8q0 -118 -69.5 -193.5t-174.5 -75.5z" />
    <glyph glyph-name="uni044E" unicode="&#x44e;" horiz-adv-x="772" 
d="M485 -8q-101 0 -167.5 68t-72.5 179q0 1 -0.5 4t-0.5 5h-108v-248h-53v523h53v-230h109q8 106 75.5 172t166.5 66q106 0 173.5 -73t67.5 -192v-8q0 -118 -68 -192t-175 -74zM486 37q85 0 136.5 59.5t51.5 160.5v8q0 102 -51.5 161.5t-135.5 59.5q-85 0 -137 -60t-52 -161
v-8q0 -100 51.5 -160t136.5 -60z" />
    <glyph glyph-name="uni044F" unicode="&#x44f;" horiz-adv-x="509" 
d="M373 480h-126q-128 0 -128 -113v-3q0 -110 138 -110h116v226zM248 213l-152 -213h-62l161 222q-60 10 -94.5 45t-34.5 97v3q0 78 50 117t134 39h177v-523h-54v213h-125z" />
    <glyph glyph-name="uni0451" unicode="&#x451;" horiz-adv-x="554" 
d="M365 636q-15 0 -25.5 11t-10.5 26t10.5 25.5t25.5 10.5q16 0 26.5 -10.5t10.5 -25.5t-10.5 -26t-26.5 -11zM199 636q-16 0 -26.5 11t-10.5 26t10.5 25.5t26.5 10.5q15 0 25.5 -10.5t10.5 -25.5t-10.5 -26t-25.5 -11zM291 -8q-113 0 -180.5 73t-67.5 191v8
q0 118 67.5 192.5t172.5 74.5q100 0 164.5 -65.5t64.5 -189.5v-19h-414q2 -106 51.5 -163t141.5 -57q137 0 164 109h53q-16 -74 -74 -114t-143 -40zM100 300h357q-4 93 -49.5 139.5t-124.5 46.5q-76 0 -126 -50.5t-57 -135.5z" />
    <glyph glyph-name="uni0452" unicode="&#x452;" horiz-adv-x="583" 
d="M453 -52v377q0 160 -145 160q-70 0 -121.5 -45t-51.5 -123v-317h-53v623h-78v41h78v109h53v-109h189v-41h-189v-202q19 46 69 78t116 32q87 0 136.5 -51t49.5 -158v-370q0 -69 -30.5 -103t-99.5 -37v45q43 4 60 25.5t17 65.5z" />
    <glyph glyph-name="uni0453" unicode="&#x453;" horiz-adv-x="442" 
d="M415 478h-279v-478h-53v523h332v-45zM216 605l68 147h65l-92 -147h-41z" />
    <glyph glyph-name="uni0454" unicode="&#x454;" horiz-adv-x="556" 
d="M516 181q-11 -84 -72.5 -136.5t-150.5 -52.5q-107 0 -178.5 73.5t-71.5 190.5v8q0 118 72 192.5t178 74.5q85 0 146.5 -45t71.5 -129h-52q-9 63 -55 96t-111 33q-77 0 -131.5 -52.5t-62.5 -141.5h282v-42h-283q3 -100 57.5 -156.5t137.5 -56.5q68 0 116.5 38t57.5 106h49
z" />
    <glyph glyph-name="uni0455" unicode="&#x455;" horiz-adv-x="465" 
d="M239 -9q-91 0 -143.5 44.5t-57.5 120.5h51q15 -120 150 -120q65 0 99 27.5t34 75.5t-30 70t-107 36q-99 18 -139.5 49t-40.5 97q0 64 51 102t121 38q163 0 182 -142h-51q-19 97 -132 97q-55 0 -88.5 -25.5t-33.5 -67.5q0 -44 30.5 -65.5t112.5 -35.5q93 -17 134.5 -47
t41.5 -102q0 -68 -48.5 -110t-135.5 -42z" />
    <glyph glyph-name="uni0456" unicode="&#x456;" horiz-adv-x="221" 
d="M110 635q-16 0 -27 11t-11 27q0 15 11 26t27 11t26.5 -11t10.5 -26q0 -16 -10.5 -27t-26.5 -11zM84 0v523h53v-523h-53z" />
    <glyph glyph-name="uni0457" unicode="&#x457;" horiz-adv-x="221" 
d="M185 636q-15 0 -26 11t-11 26t11 25.5t26 10.5t25.5 -10.5t10.5 -25.5t-10.5 -26t-25.5 -11zM36 636q-15 0 -25.5 11t-10.5 26t10.5 25.5t25.5 10.5t26 -10.5t11 -25.5t-11 -26t-26 -11zM84 0v523h53v-523h-53z" />
    <glyph glyph-name="uni0458" unicode="&#x458;" horiz-adv-x="221" 
d="M110 635q-16 0 -27 11t-11 27q0 15 11 26t27 11t26.5 -11t10.5 -26q0 -16 -10.5 -27t-26.5 -11zM7 -188v45q43 4 60 25.5t17 65.5v575h53v-571q0 -70 -30 -103.5t-100 -36.5z" />
    <glyph glyph-name="uni0459" unicode="&#x459;" horiz-adv-x="791" 
d="M405 0v478h-215q-5 -135 -15 -245q-11 -123 -38 -180t-86 -57q-11 0 -20.5 2t-13.5 4l-4 1v51q15 -7 34 -7q26 0 42.5 26t23.5 64t13 101q5 47 9 118t5 119l2 48h316v-192h104q88 0 141 -40.5t53 -120.5v-3q0 -81 -50.5 -124t-133.5 -43h-167zM458 43h116q129 0 129 124
v3q0 57 -34.5 88t-103.5 31h-107v-246z" />
    <glyph glyph-name="uni045A" unicode="&#x45a;" horiz-adv-x="813" 
d="M480 43h116q63 0 96 32t33 92v3q0 57 -35 88t-104 31h-106v-246zM427 0v248h-291v-248h-53v523h53v-230h291v230h53v-192h104q88 0 141 -40.5t53 -120.5v-3q0 -81 -51 -124t-134 -43h-166z" />
    <glyph glyph-name="uni045B" unicode="&#x45b;" horiz-adv-x="583" 
d="M4 623v41h78v109h53v-109h189v-41h-189v-202q19 46 69 78t116 32q87 0 136.5 -51t49.5 -158v-322h-53v325q0 160 -145 160q-70 0 -121.5 -45t-51.5 -123v-317h-53v623h-78z" />
    <glyph glyph-name="uni045C" unicode="&#x45c;" horiz-adv-x="487" 
d="M404 0l-269 273v-273h-53v523h53v-250l255 250h63l-255 -247l272 -276h-66zM232 605l68 147h65l-92 -147h-41z" />
    <glyph glyph-name="uni045D" unicode="&#x45d;" horiz-adv-x="583" 
d="M136 0h-53v523h53v-445l311 445h53v-523h-53v446zM284 605l-92 147h65l68 -147h-41z" />
    <glyph glyph-name="uni045E" unicode="&#x45e;" horiz-adv-x="508" 
d="M261 616q-51 0 -86.5 35t-39.5 88h47q3 -37 24 -61t55 -24q35 0 57.5 24t25.5 61h46q-3 -53 -40.5 -88t-88.5 -35zM137 -182l95 227l-207 478h57l179 -417l167 417h54l-290 -705h-55z" />
    <glyph glyph-name="uni045F" unicode="&#x45f;" horiz-adv-x="563" 
d="M258 0h-175v523h53v-478h291v478h53v-523h-176l-2 -127h-41z" />
    <glyph glyph-name="uni0490" unicode="&#x490;" horiz-adv-x="530" 
d="M489 668h-341v-668h-56v715h346l5 134h46v-181z" />
    <glyph glyph-name="uni0491" unicode="&#x491;" horiz-adv-x="431" 
d="M399 478h-263v-478h-53v523h269l5 134h42v-179z" />
    <glyph glyph-name="Wgrave" unicode="&#x1e80;" horiz-adv-x="920" 
d="M222 0l-189 715h56l164 -630l189 630h39l182 -632l173 632h51l-196 -715h-54l-176 616l-186 -616h-53zM446 771l-88 122h66l64 -122h-42z" />
    <glyph glyph-name="wgrave" unicode="&#x1e81;" horiz-adv-x="776" 
d="M192 0l-163 523h57l140 -458l143 458h45l138 -458l141 458h54l-165 -523h-61l-130 438l-139 -438h-60zM378 605l-92 147h65l68 -147h-41z" />
    <glyph glyph-name="Wacute" unicode="&#x1e82;" horiz-adv-x="920" 
d="M222 0l-189 715h56l164 -630l189 630h39l182 -632l173 632h51l-196 -715h-54l-176 616l-186 -616h-53zM439 771l64 122h66l-88 -122h-42z" />
    <glyph glyph-name="wacute" unicode="&#x1e83;" horiz-adv-x="776" 
d="M192 0l-163 523h57l140 -458l143 458h45l138 -458l141 458h54l-165 -523h-61l-130 438l-139 -438h-60zM366 605l68 147h65l-92 -147h-41z" />
    <glyph glyph-name="Wdieresis" unicode="&#x1e84;" horiz-adv-x="920" 
d="M222 0l-189 715h56l164 -630l189 630h39l182 -632l173 632h51l-196 -715h-54l-176 616l-186 -616h-53zM551 788q-15 0 -25.5 11t-10.5 26q0 14 10.5 25t25.5 11t25.5 -11t10.5 -25q0 -15 -10.5 -26t-25.5 -11zM371 788q-16 0 -26.5 11t-10.5 26t11 25.5t26 10.5t25.5 -11
t10.5 -25q0 -15 -10.5 -26t-25.5 -11z" />
    <glyph glyph-name="wdieresis" unicode="&#x1e85;" horiz-adv-x="776" 
d="M192 0l-163 523h57l140 -458l143 458h45l138 -458l141 458h54l-165 -523h-61l-130 438l-139 -438h-60zM474 636q-15 0 -25.5 11t-10.5 26t10.5 25.5t25.5 10.5q16 0 26.5 -10.5t10.5 -25.5t-10.5 -26t-26.5 -11zM308 636q-16 0 -26.5 11t-10.5 26t10.5 25.5t26.5 10.5
q15 0 25.5 -10.5t10.5 -25.5t-10.5 -26t-25.5 -11z" />
    <glyph glyph-name="Ygrave" unicode="&#x1ef2;" horiz-adv-x="578" 
d="M268 0v318l-245 397h62l212 -350l202 350h56l-231 -398v-317h-56zM282 771l-88 122h66l64 -122h-42z" />
    <glyph glyph-name="ygrave" unicode="&#x1ef3;" horiz-adv-x="508" 
d="M137 -182l95 227l-207 478h57l179 -417l167 417h54l-290 -705h-55zM242 605l-92 147h65l68 -147h-41z" />
    <glyph glyph-name="uni2009" unicode="&#x2009;" horiz-adv-x="110" 
 />
    <glyph glyph-name="endash" unicode="&#x2013;" horiz-adv-x="503" 
d="M46 255v45h411v-45h-411z" />
    <glyph glyph-name="emdash" unicode="&#x2014;" horiz-adv-x="869" 
d="M46 255v45h777v-45h-777z" />
    <glyph glyph-name="quoteleft" unicode="&#x2018;" horiz-adv-x="214" 
d="M93 528l-51 23l92 171l34 -16z" />
    <glyph glyph-name="quoteright" unicode="&#x2019;" horiz-adv-x="214" 
d="M80 528l-34 17l75 177l51 -22z" />
    <glyph glyph-name="quotesinglbase" unicode="&#x201a;" horiz-adv-x="214" 
d="M80 -87l-34 17l75 177l51 -22z" />
    <glyph glyph-name="quotedblleft" unicode="&#x201c;" horiz-adv-x="354" 
d="M233 528l-51 23l92 171l34 -16zM93 528l-51 23l92 171l34 -16z" />
    <glyph glyph-name="quotedblright" unicode="&#x201d;" horiz-adv-x="354" 
d="M220 528l-35 17l76 177l51 -22zM80 528l-34 17l75 177l51 -22z" />
    <glyph glyph-name="quotedblbase" unicode="&#x201e;" horiz-adv-x="354" 
d="M220 -87l-35 17l76 177l51 -22zM80 -87l-34 17l75 177l51 -22z" />
    <glyph glyph-name="dagger" unicode="&#x2020;" horiz-adv-x="349" 
d="M150 221v315h-118v44h118v135h49v-135h118v-44h-118v-315h-49z" />
    <glyph glyph-name="daggerdbl" unicode="&#x2021;" horiz-adv-x="349" 
d="M150 400v136h-118v44h118v135h49v-135h118v-44h-118v-136h118v-44h-118v-135h-49v135h-118v44h118z" />
    <glyph glyph-name="bullet" unicode="&#x2022;" horiz-adv-x="316" 
d="M158 199q-45 0 -75.5 31t-30.5 75t30.5 75t75.5 31t75.5 -30.5t30.5 -75.5q0 -44 -30.5 -75t-75.5 -31z" />
    <glyph glyph-name="ellipsis" unicode="&#x2026;" horiz-adv-x="697" 
d="M582 -5q-17 0 -29.5 12.5t-12.5 29.5q0 18 12.5 30.5t29.5 12.5q18 0 30.5 -12.5t12.5 -30.5q0 -17 -12.5 -29.5t-30.5 -12.5zM348 -5q-17 0 -29.5 12.5t-12.5 29.5q0 18 12.5 30.5t29.5 12.5q18 0 30.5 -12.5t12.5 -30.5q0 -17 -12.5 -29.5t-30.5 -12.5zM114 -5
q-17 0 -29.5 12.5t-12.5 29.5q0 18 12.5 30.5t29.5 12.5q18 0 30.5 -12.5t12.5 -30.5q0 -17 -12.5 -29.5t-30.5 -12.5z" />
    <glyph glyph-name="perthousand" unicode="&#x2030;" horiz-adv-x="1109" 
d="M194 404q-62 0 -108 44t-46 112q0 69 45.5 114.5t108.5 45.5q64 0 109 -44.5t45 -113.5t-45.5 -113.5t-108.5 -44.5zM125 0l455 715h50l-455 -715h-50zM194 446q46 0 75.5 31.5t29.5 84.5q0 52 -29.5 84t-75.5 32q-45 0 -75 -31.5t-30 -85.5q0 -53 30 -84t75 -31zM915 -7
q-61 0 -107 44t-46 112q0 69 45 114.5t108 45.5q64 0 109 -44.5t45 -113.5t-45.5 -113.5t-108.5 -44.5zM557 -7q-62 0 -108 44t-46 112q0 70 45.5 115t108.5 45q64 0 109 -45t45 -113q0 -69 -46 -113.5t-108 -44.5zM915 35q46 0 75.5 31.5t29.5 84.5q0 52 -29.5 84t-75.5 32
q-45 0 -75 -31.5t-30 -85.5q0 -53 30 -84t75 -31zM557 35q46 0 75.5 31.5t29.5 84.5q0 52 -29.5 84t-75.5 32t-75.5 -31.5t-29.5 -85.5q0 -53 30 -84t75 -31z" />
    <glyph glyph-name="uni2032" unicode="&#x2032;" horiz-adv-x="174" 
d="M43 506l30 209h58l-48 -209h-40z" />
    <glyph glyph-name="uni2033" unicode="&#x2033;" horiz-adv-x="305" 
d="M174 506l30 209h57l-47 -209h-40zM43 506l30 209h58l-48 -209h-40z" />
    <glyph glyph-name="guilsinglleft" unicode="&#x2039;" horiz-adv-x="290" 
d="M189 83l-135 178l135 178h54l-132 -178l132 -178h-54z" />
    <glyph glyph-name="guilsinglright" unicode="&#x203a;" horiz-adv-x="290" 
d="M47 83l132 178l-132 178h54l135 -178l-135 -178h-54z" />
    <glyph glyph-name="fraction" unicode="&#x2044;" horiz-adv-x="113" 
d="M-224 0l516 715h45l-516 -715h-45z" />
    <glyph glyph-name="Euro" unicode="&#x20ac;" horiz-adv-x="657" 
d="M32 406v38h69q9 125 77.5 202t184.5 77q101 0 162.5 -55t73.5 -152h-53q-11 78 -58 120t-125 42q-92 0 -146 -63t-61 -171h252l-7 -38h-246v-98h227l-7 -38h-219q7 -109 60 -170t148 -61q82 0 131 46t61 130h52q-13 -105 -76.5 -164t-167.5 -59q-116 0 -185.5 76
t-77.5 202h-69v38h68v98h-68z" />
    <glyph glyph-name="uni20B4" unicode="&#x20b4;" horiz-adv-x="579" 
d="M281 -8q-101 0 -161.5 45t-60.5 128q0 69 42 116h-71v39h118q38 25 140 71q28 12 56 26h-314v39h375q43 39 43 110q0 111 -145 111q-149 0 -173 -128h-51q11 83 69 128.5t155 45.5q91 0 145 -40.5t54 -116.5q0 -67 -37 -110h84v-39h-130q-37 -24 -121 -62l-72 -35h323
v-39h-384q-50 -41 -50 -114q0 -63 45 -96t121 -33q173 0 195 162h54q-11 -93 -73 -150.5t-176 -57.5z" />
    <glyph glyph-name="uni20B8" unicode="&#x20b8;" horiz-adv-x="559" 
d="M529 676h-499v39h499v-39zM252 0v539h-222v46h499v-46h-222v-539h-55z" />
    <glyph glyph-name="uni20BD" unicode="&#x20bd;" horiz-adv-x="608" 
d="M188 351h138q183 0 183 159v4q0 83 -48 119t-137 36h-136v-318zM444 176h-256v-176h-56v176h-100v38h100v98h-100v38h100v365h189q111 0 177.5 -49t66.5 -152v-4q0 -105 -66 -154.5t-177 -49.5h-134v-92h256v-38z" />
    <glyph glyph-name="uni2116" unicode="&#x2116;" horiz-adv-x="1056" 
d="M845 344q-77 0 -127.5 52t-50.5 134v6q0 83 51 134.5t128 51.5t127.5 -51t50.5 -134v-6q0 -84 -51 -135.5t-128 -51.5zM846 386q56 0 91.5 39.5t35.5 105.5v5q0 66 -35.5 105.5t-91.5 39.5q-55 0 -91 -39.5t-36 -105.5v-5q0 -66 35.5 -105.5t91.5 -39.5zM92 0v715h76
l359 -635v635h53v-715h-66l-368 650v-650h-54zM683 219v43h325v-43h-325z" />
    <glyph glyph-name="trademark" unicode="&#x2122;" horiz-adv-x="675" 
d="M128 400v284h-98v31h234v-31h-97v-284h-39zM324 400v315h54l101 -248l100 248h54v-315h-38v267l-111 -267h-14l-111 267v-267h-35z" />
    <glyph glyph-name="Omega" unicode="&#x2126;" horiz-adv-x="805" 
d="M110 367v-8q0 -221 215 -333v-26h-270v44h174q-74 40 -125 122t-51 193v8q0 142 96.5 249t253.5 107q79 0 146 -30t111 -80t68 -113.5t24 -131.5v-8q0 -116 -50.5 -195t-124.5 -121h173v-44h-270v26q214 103 214 335v8q0 58 -19 112.5t-54 98.5t-92 70.5t-126 26.5
q-137 0 -215 -92t-78 -218z" />
    <glyph glyph-name="onethird" unicode="&#x2153;" horiz-adv-x="703" 
d="M115 372v296l-88 -61v41l96 67h37v-343h-45zM34 0l516 715h45l-516 -715h-45zM544 -4q-58 0 -92.5 29.5t-36.5 75.5h41q4 -31 26 -51t61 -20q37 0 57.5 17.5t20.5 49.5q0 30 -19 47.5t-54 17.5h-27v33h25q33 0 49.5 16t16.5 43t-18 43t-49 16q-33 0 -53 -18t-24 -48h-40
q3 44 34.5 72t83.5 28q49 0 79 -25.5t30 -64.5q0 -57 -59 -76q31 -7 50.5 -29t19.5 -55q0 -47 -33 -74t-89 -27z" />
    <glyph glyph-name="twothirds" unicode="&#x2154;" horiz-adv-x="743" 
d="M18 372v9l130 131q62 64 62 108q0 30 -18 47t-48 17q-66 0 -75 -78h-41q3 53 34.5 83t82.5 30q50 0 79.5 -27t29.5 -71q0 -34 -17 -62t-55 -65l-90 -87h166v-35h-240zM92 0l516 715h45l-516 -715h-45zM584 -4q-58 0 -92.5 29.5t-36.5 75.5h41q4 -31 26 -51t61 -20
q37 0 57.5 17.5t20.5 49.5q0 30 -19 47.5t-54 17.5h-27v33h25q33 0 49.5 16t16.5 43t-18 43t-49 16q-33 0 -53 -18t-24 -48h-40q3 44 34.5 72t83.5 28q49 0 79 -25.5t30 -64.5q0 -57 -59 -76q31 -7 50.5 -29t19.5 -55q0 -47 -33 -74t-89 -27z" />
    <glyph glyph-name="oneeighth" unicode="&#x215b;" horiz-adv-x="696" 
d="M112 372v296l-88 -61v41l96 67h37v-343h-45zM37 0l516 715h45l-516 -715h-45zM535 -4q-55 0 -90.5 26t-35.5 73q0 34 20.5 56.5t53.5 31.5q-60 21 -60 75q0 40 33 64.5t79 24.5q47 0 79.5 -24.5t32.5 -63.5q0 -56 -59 -75q73 -22 73 -87q0 -48 -35 -74.5t-91 -26.5z
M536 198q30 0 49 15.5t19 43.5q0 25 -19.5 41t-49.5 16t-49.5 -16t-19.5 -42t21 -42t49 -16zM535 30q37 0 59 18t22 51q0 32 -22.5 50t-57.5 18t-58.5 -18.5t-23.5 -50.5t23 -50t58 -18z" />
    <glyph glyph-name="threeeighths" unicode="&#x215c;" horiz-adv-x="731" 
d="M83 0l516 715h45l-516 -715h-45zM156 368q-58 0 -92.5 29t-36.5 76h41q4 -31 26 -51t61 -20q37 0 57.5 17.5t20.5 49.5q0 30 -19 47.5t-54 17.5h-27v33h25q33 0 49.5 16t16.5 43t-18 43t-49 16q-33 0 -53 -18t-24 -48h-40q3 44 34.5 72t83.5 28q49 0 79 -25.5t30 -65.5
q0 -58 -59 -75q31 -7 50.5 -29t19.5 -56q0 -47 -33 -73.5t-89 -26.5zM570 -4q-55 0 -90.5 26t-35.5 73q0 34 20.5 56.5t53.5 31.5q-60 21 -60 75q0 40 33 64.5t79 24.5q47 0 79.5 -24.5t32.5 -63.5q0 -56 -59 -75q73 -22 73 -87q0 -48 -35 -74.5t-91 -26.5zM571 198
q30 0 49 15.5t19 43.5q0 25 -19.5 41t-49.5 16t-49.5 -16t-19.5 -42t21 -42t49 -16zM570 30q37 0 59 18t22 51q0 32 -22.5 50t-57.5 18t-58.5 -18.5t-23.5 -50.5t23 -50t58 -18z" />
    <glyph glyph-name="fiveeighths" unicode="&#x215d;" horiz-adv-x="720" 
d="M145 368q-54 0 -84.5 27t-34.5 70h43q9 -62 76 -62q35 0 55 22t20 59q0 36 -20 58t-53 22q-53 0 -80 -34h-23l2 185h200v-35h-164l-1 -112q30 30 79 30q46 0 76 -31t30 -83q0 -53 -33.5 -84.5t-87.5 -31.5zM72 0l516 715h45l-516 -715h-45zM559 -4q-55 0 -90.5 26
t-35.5 73q0 34 20.5 56.5t53.5 31.5q-60 21 -60 75q0 40 33 64.5t79 24.5q47 0 79.5 -24.5t32.5 -63.5q0 -56 -59 -75q73 -22 73 -87q0 -48 -35 -74.5t-91 -26.5zM560 198q30 0 49 15.5t19 43.5q0 25 -19.5 41t-49.5 16t-49.5 -16t-19.5 -42t21 -42t49 -16zM559 30
q37 0 59 18t22 51q0 32 -22.5 50t-57.5 18t-58.5 -18.5t-23.5 -50.5t23 -50t58 -18z" />
    <glyph glyph-name="seveneighths" unicode="&#x215e;" horiz-adv-x="693" 
d="M78 372l124 306h-180v37h237v-6l-135 -337h-46zM28 0l516 715h45l-516 -715h-45zM532 -4q-55 0 -90.5 26t-35.5 73q0 34 20.5 56.5t53.5 31.5q-60 21 -60 75q0 40 33 64.5t79 24.5q47 0 79.5 -24.5t32.5 -63.5q0 -56 -59 -75q73 -22 73 -87q0 -48 -35 -74.5t-91 -26.5z
M533 198q30 0 49 15.5t19 43.5q0 25 -19.5 41t-49.5 16t-49.5 -16t-19.5 -42t21 -42t49 -16zM532 30q37 0 59 18t22 51q0 32 -22.5 50t-57.5 18t-58.5 -18.5t-23.5 -50.5t23 -50t58 -18z" />
    <glyph glyph-name="Delta" unicode="&#x2206;" horiz-adv-x="658" 
d="M37 0v11l253 704h79l252 -704v-11h-584zM327 676l-225 -628h451z" />
    <glyph glyph-name="minus" unicode="&#x2212;" horiz-adv-x="510" 
d="M36 319v46h438v-46h-438z" />
    <glyph glyph-name="approxequal" unicode="&#x2248;" horiz-adv-x="495" 
d="M40 347q5 47 32.5 74.5t70.5 27.5q40 0 110 -27t100 -27q25 0 41 15.5t19 40.5h42q-5 -48 -32.5 -75t-69.5 -27q-41 0 -111 26.5t-100 26.5q-51 0 -60 -55h-42zM40 180q5 47 32.5 74.5t70.5 27.5q40 0 110 -26.5t100 -26.5q25 0 41 15t19 40h42q-5 -48 -32.5 -75
t-69.5 -27q-41 0 -111 26.5t-100 26.5q-51 0 -60 -55h-42z" />
    <glyph glyph-name="notequal" unicode="&#x2260;" horiz-adv-x="484" 
d="M40 380v46h225l50 117h49l-51 -117h131v-46h-150l-52 -121h202v-46h-222l-50 -117h-49l50 117h-133v46h153l52 121h-205z" />
    <glyph glyph-name="lessequal" unicode="&#x2264;" horiz-adv-x="496" 
d="M435 117l-384 205v13l384 205v-52l-304 -160l304 -159v-52zM51 0v45h384v-45h-384z" />
    <glyph glyph-name="greaterequal" unicode="&#x2265;" horiz-adv-x="496" 
d="M61 117v52l305 159l-305 160v52l384 -205v-13zM61 0v45h384v-45h-384z" />
    <glyph glyph-name="uni24C5" unicode="&#x24c5;" horiz-adv-x="844" 
d="M421 -9q-153 0 -259.5 105.5t-106.5 260.5q0 153 107 260t261 107q155 0 260.5 -106t105.5 -259q0 -156 -106.5 -262t-261.5 -106zM421 23q137 0 234 96t97 240q0 143 -95.5 238t-233.5 95q-139 0 -235 -96t-96 -239q0 -144 97 -239t232 -95zM310 156v406h119
q146 0 146 -119v-3q0 -61 -38.5 -90t-105.5 -29h-69v-165h-52zM362 360h67q95 0 95 80v3q0 78 -95 78h-67v-161z" />
    <glyph glyph-name="zero.tab" unicode="&#xe44f;" 
d="M303 -8q-115 0 -181.5 76t-66.5 216v143q0 142 65 219t180 77t180.5 -76t65.5 -215v-145q0 -143 -63.5 -219t-179.5 -76zM303 39q95 0 141 60.5t46 187.5v146q0 117 -49.5 180.5t-140.5 63.5q-92 0 -140.5 -63.5t-48.5 -185.5v-143q0 -246 192 -246z" />
    <glyph glyph-name="one.tab" unicode="&#xe450;" 
d="M326 0v655l-224 -178v53l226 185h53v-715h-55z" />
    <glyph glyph-name="two.tab" unicode="&#xe451;" 
d="M51 0v13l287 297q58 60 85 111.5t27 108.5q0 70 -41 108.5t-111 38.5q-71 0 -116 -42.5t-55 -127.5h-52q8 101 68.5 158.5t154.5 57.5t151 -52t57 -143q0 -120 -135 -253l-232 -229h377v-46h-465z" />
    <glyph glyph-name="three.tab" unicode="&#xe452;" 
d="M293 -8q-106 0 -169.5 60.5t-67.5 149.5h52q6 -73 52.5 -118.5t133.5 -45.5q85 0 131.5 42t46.5 118q0 71 -41.5 112t-122.5 41h-52v47h48q73 0 109.5 38t36.5 98q0 63 -37.5 102.5t-107.5 39.5q-73 0 -118.5 -41.5t-52.5 -107.5h-49q5 83 66 139.5t154 56.5
q92 0 146 -54t54 -134q0 -58 -32 -99t-87 -58q66 -15 104.5 -61.5t38.5 -118.5q0 -96 -65 -151t-171 -55z" />
    <glyph glyph-name="four.tab" unicode="&#xe453;" 
d="M402 0v161h-358v17l336 537h77v-508h91v-46h-91v-161h-55zM115 207h287v465z" />
    <glyph glyph-name="five.tab" unicode="&#xe454;" 
d="M287 -8q-104 0 -163 54t-67 138h53q24 -146 177 -146q85 0 133.5 52t48.5 142q0 84 -48.5 135.5t-123.5 51.5q-112 0 -178 -78h-20v374h390v-48h-343v-262q60 60 160 60q95 0 157.5 -64t62.5 -169q0 -110 -67 -175t-172 -65z" />
    <glyph glyph-name="six.tab" unicode="&#xe455;" 
d="M310 -8q-87 0 -144.5 41t-81 106.5t-23.5 153.5v52q0 189 73 283.5t196 94.5q82 0 135.5 -41t65.5 -122h-53q-24 116 -151 116q-97 0 -153.5 -76.5t-57.5 -237.5v-29q23 57 79 89.5t121 32.5q108 0 171 -64.5t63 -164.5q0 -105 -66 -169.5t-174 -64.5zM310 37
q83 0 133 51.5t50 135.5q0 85 -48.5 135.5t-136.5 50.5q-78 0 -132 -48.5t-54 -128.5q0 -86 49 -141t139 -55z" />
    <glyph glyph-name="seven.tab" unicode="&#xe456;" 
d="M188 0l273 669h-385v46h457v-9l-288 -706h-57z" />
    <glyph glyph-name="eight.tab" unicode="&#xe457;" 
d="M301 -8q-99 0 -169.5 54.5t-70.5 152.5q0 72 43.5 121t113.5 67q-57 16 -92 56.5t-35 99.5q0 80 62.5 130t147.5 50t147 -50t62 -128q0 -60 -33.5 -100t-91.5 -58q72 -19 113.5 -66.5t41.5 -119.5q0 -99 -69 -154t-170 -55zM304 407q66 0 108 36.5t42 101.5
q0 58 -43.5 95.5t-109.5 37.5q-67 0 -110.5 -37t-43.5 -98q0 -63 46.5 -99.5t110.5 -36.5zM301 39q82 0 132 42.5t50 121.5q0 75 -51 117t-129 42t-131.5 -43t-53.5 -118q0 -78 52 -120t131 -42z" />
    <glyph glyph-name="nine.tab" unicode="&#xe458;" 
d="M291 305q80 0 134.5 47.5t54.5 124.5q0 87 -49.5 144.5t-139.5 57.5q-83 0 -133 -51.5t-50 -135.5q0 -85 48 -136t135 -51zM282 -7q-89 0 -147 44.5t-73 126.5h55q27 -125 166 -125q99 0 150.5 69.5t52.5 230.5v38q-24 -55 -80 -86t-122 -31q-108 0 -170.5 64t-62.5 166
q0 105 66 169t174 64q124 0 186.5 -79t62.5 -216v-82q0 -353 -258 -353z" />
    <glyph glyph-name="cent.tab" unicode="&#xe459;" 
d="M122 256q0 -97 47.5 -154t125.5 -64v447q-77 -8 -125 -66.5t-48 -154.5v-8zM295 -135v128q-100 7 -164 78t-64 185v8q0 114 64.5 186.5t163.5 79.5v99h39v-99q79 -5 135.5 -49.5t65.5 -123.5h-52q-9 58 -49.5 90.5t-99.5 37.5v-447q62 5 105 42t52 101h49
q-11 -80 -67.5 -131.5t-138.5 -56.5v-128h-39z" />
    <glyph glyph-name="dollar.tab" unicode="&#xe45a;" 
d="M119 540q0 -57 35 -89.5t126 -49.5v276q-77 -4 -119 -40t-42 -97zM492 191q0 71 -38 104t-134 50v-309q79 4 125.5 47.5t46.5 107.5zM280 -135v128q-114 6 -171.5 63t-68.5 149h54q22 -158 186 -168v315q-109 18 -161 61.5t-52 123.5q0 78 59 129t154 56v91h40v-91
q88 -6 141.5 -53t64.5 -126h-51q-25 124 -155 134v-283q120 -20 173 -63t53 -137q0 -83 -62 -140.5t-164 -61.5v-127h-40z" />
    <glyph glyph-name="Euro.tab" unicode="&#xe45b;" 
d="M27 406v38h61q4 130 66 204.5t174 74.5q92 0 146 -52.5t66 -150.5h-53q-22 158 -159 158q-89 0 -135.5 -60.5t-49.5 -173.5h229l-8 -38h-221v-98h203l-8 -38h-195q8 -231 186 -231q145 0 171 172h51q-12 -105 -70 -162t-152 -57q-111 0 -174 73t-67 205h-61v38h61v98h-61
z" />
    <glyph glyph-name="a.alt" unicode="&#xe4c0;" horiz-adv-x="602" 
d="M279 37q79 0 134 59t55 162v8q0 105 -50.5 162.5t-131.5 57.5t-134.5 -59.5t-53.5 -162.5v-8q0 -103 51.5 -161t129.5 -58zM274 -8q-97 0 -164 71t-67 191v8q0 118 69.5 193.5t169.5 75.5q68 0 114 -34t70 -88v114h54v-523h-54v120q-22 -51 -74.5 -89.5t-117.5 -38.5z
" />
    <glyph glyph-name="t.alt" unicode="&#xe4d3;" horiz-adv-x="319" 
d="M112 0v478h-87v45h87v119h53v-119h127v-45h-127v-478h-53z" />
    <glyph glyph-name="f_i" unicode="&#xfb01;" horiz-adv-x="548" 
d="M105 0v478h-79v45h79v94q0 80 38.5 119.5t105.5 39.5q35 0 55 -8v-45q-22 8 -54 8q-92 0 -92 -109v-99h146v-45h-146v-478h-53zM436 635q-16 0 -27 11t-11 27q0 15 11 26t27 11t26.5 -11t10.5 -26q0 -16 -10.5 -27t-26.5 -11zM410 0v523h53v-523h-53z" />
    <glyph glyph-name="f_l" unicode="&#xfb02;" horiz-adv-x="548" 
d="M105 0v478h-79v45h79v94q0 80 38.5 119.5t105.5 39.5q35 0 55 -8v-45q-22 8 -54 8q-92 0 -92 -109v-99h146v-45h-146v-478h-53zM410 0v773h54v-773h-54z" />
    <glyph glyph-name="Euro.old" horiz-adv-x="646" 
d="M31 393v38h67q8 121 75 195.5t179 74.5q98 0 157.5 -53t71.5 -147h-51q-11 75 -56.5 115.5t-121.5 40.5q-90 0 -142 -60.5t-59 -165.5h245l-7 -38h-239v-94h221l-7 -38h-213q7 -106 58.5 -165t143.5 -59q160 0 187 172h49q-11 -102 -73 -159.5t-163 -57.5
q-112 0 -179.5 74t-75.5 195h-67v38h66v94h-66z" />
    <glyph glyph-name="uni0430.alt" horiz-adv-x="602" 
d="M279 37q79 0 134 59t55 162v8q0 105 -50.5 162.5t-131.5 57.5t-134.5 -59.5t-53.5 -162.5v-8q0 -103 51.5 -161t129.5 -58zM274 -8q-97 0 -164 71t-67 191v8q0 118 69.5 193.5t169.5 75.5q68 0 114 -34t70 -88v114h54v-523h-54v120q-22 -51 -74.5 -89.5t-117.5 -38.5z
" />
    <glyph glyph-name="tilde.uc" horiz-adv-x="400" 
d="M264 774q-26 0 -66.5 26.5t-56.5 26.5q-17 0 -29.5 -14.5t-16.5 -39.5h-41q6 47 29.5 73t57.5 26q25 0 65.5 -26.5t57.5 -26.5t29.5 14.5t16.5 39.5h40q-6 -47 -29.5 -73t-56.5 -26z" />
    <glyph glyph-name="ring.uc" horiz-adv-x="400" 
d="M200 754q-40 0 -69 28.5t-29 67.5t29 67t69 28t69 -28t29 -67t-29 -67.5t-69 -28.5zM200 786q26 0 43.5 18.5t17.5 45.5t-17.5 45.5t-43.5 18.5t-43.5 -18.5t-17.5 -45.5t17.5 -45.5t43.5 -18.5z" />
    <glyph glyph-name="dotaccent.uc" horiz-adv-x="400" 
d="M200 787q-16 0 -27 11t-11 27q0 15 11 26t27 11t27 -11t11 -26q0 -16 -11 -27t-27 -11z" />
    <glyph glyph-name="breve.uc" horiz-adv-x="400" 
d="M199 771q-51 0 -87 35t-39 87h44q4 -35 26 -56.5t56 -21.5q35 0 58 21.5t28 56.5h43q-3 -52 -40.5 -87t-88.5 -35z" />
    <glyph glyph-name="caron.uc" horiz-adv-x="400" 
d="M174 771l-109 122h42l93 -77l94 77h41l-111 -122h-50z" />
    <glyph glyph-name="circumflex.uc" horiz-adv-x="400" 
d="M66 771l110 122h50l108 -122h-42l-92 78l-93 -78h-41z" />
    <glyph glyph-name="acute.uc" horiz-adv-x="400" 
d="M174 771l64 122h66l-88 -122h-42z" />
    <glyph glyph-name="macron.uc" horiz-adv-x="400" 
d="M76 791v42h248v-42h-248z" />
    <glyph glyph-name="dieresis.uc" horiz-adv-x="400" 
d="M290 788q-15 0 -25.5 11t-10.5 26q0 14 10.5 25t25.5 11t25.5 -11t10.5 -25q0 -15 -10.5 -26t-25.5 -11zM110 788q-16 0 -26.5 11t-10.5 26t10.5 25.5t26.5 10.5q15 0 25.5 -11t10.5 -25q0 -15 -10.5 -26t-25.5 -11z" />
    <glyph glyph-name="grave.uc" horiz-adv-x="400" 
d="M184 771l-88 122h66l64 -122h-42z" />
    <glyph glyph-name="at.uc" horiz-adv-x="898" 
d="M454 -58q-95 0 -172 32.5t-127 87t-76.5 125.5t-26.5 149q0 175 122.5 295t289.5 120q171 0 277 -101t106 -254q0 -123 -51 -183.5t-120 -60.5q-104 0 -110 98q-19 -42 -59.5 -73.5t-90.5 -31.5q-70 0 -112 45.5t-42 122.5q0 96 55 160.5t133 64.5q51 0 84 -25.5
t43 -64.5l8 82h54l-27 -233q-15 -106 64 -106q54 0 88.5 51t34.5 152q0 140 -89.5 226.5t-245.5 86.5q-152 0 -256.5 -105t-104.5 -265q0 -148 92.5 -249.5t258.5 -101.5q168 0 261 98h52q-39 -62 -121.5 -102t-191.5 -40zM426 186q57 0 99 51.5t42 127.5q0 62 -30.5 96.5
t-82.5 34.5q-56 0 -97 -50.5t-41 -131.5q0 -60 30 -94t80 -34z" />
    <glyph glyph-name="bar.uc" horiz-adv-x="241" 
d="M98 -84v862h45v-862h-45z" />
    <glyph glyph-name="backslash.uc" horiz-adv-x="391" 
d="M308 -84l-271 862h50l271 -862h-50z" />
    <glyph glyph-name="f.short" horiz-adv-x="320" 
d="M105 0v478h-79v45h79v94q0 80 38.5 119.5t105.5 39.5q35 0 55 -8v-45q-22 8 -54 8q-92 0 -92 -109v-99h146v-45h-146v-478h-53z" />
    <glyph glyph-name="f_f.short" horiz-adv-x="598" 
d="M105 0v478h-79v45h79v86q0 79 40 119t108 40q34 0 58 -9v-45q-27 9 -56 9q-45 0 -71 -27t-26 -82v-91h226v94q0 80 38.5 119.5t104.5 39.5q35 0 55 -8v-45q-22 8 -53 8q-92 0 -92 -109v-99h145v-45h-145v-478h-53v478h-226v-478h-53z" />
    <glyph glyph-name="slash.uc" horiz-adv-x="391" 
d="M32 -84l272 862h50l-272 -862h-50z" />
    <glyph glyph-name="braceright.uc" horiz-adv-x="364" 
d="M42 -87v41q81 1 112.5 32.5t17.5 115.5l-16 103q-19 114 94 141q-113 27 -94 141l16 103q14 84 -17.5 115.5t-112.5 32.5v41q107 0 152.5 -43t28.5 -146l-17 -97q-10 -57 17 -91.5t99 -35.5v-40q-137 -1 -116 -127l17 -97q17 -103 -28.5 -146t-152.5 -43z" />
    <glyph glyph-name="braceleft.uc" horiz-adv-x="364" 
d="M322 -87q-107 0 -152.5 43t-28.5 146l16 97q21 126 -115 127v40q72 1 98.5 35.5t16.5 91.5l-16 97q-17 103 28.5 146t152.5 43v-41q-82 -1 -113.5 -32t-17.5 -116l17 -103q18 -114 -94 -141q112 -27 94 -141l-17 -103q-14 -85 17.5 -116t113.5 -32v-41z" />
    <glyph glyph-name="bracketright.uc" horiz-adv-x="340" 
d="M42 -84v43h152v776h-152v43h205v-862h-205z" />
    <glyph glyph-name="bracketleft.uc" horiz-adv-x="340" 
d="M93 -84v862h206v-43h-153v-776h153v-43h-206z" />
    <glyph glyph-name="parenright.uc" horiz-adv-x="297" 
d="M26 -98q158 203 158 441q0 237 -158 440h53q71 -85 115.5 -198t44.5 -242q0 -130 -44.5 -243t-115.5 -198h-53z" />
    <glyph glyph-name="parenleft.uc" horiz-adv-x="297" 
d="M218 -98q-72 86 -116.5 198.5t-44.5 241.5t45 242.5t116 198.5h53q-158 -200 -158 -441q0 -240 158 -440h-53z" />
    <glyph glyph-name="guillemotright.uc" horiz-adv-x="448" 
d="M205 118l132 183l-132 183h54l135 -183l-135 -183h-54zM47 118l132 183l-132 183h54l135 -183l-135 -183h-54z" />
    <glyph glyph-name="guillemotleft.uc" horiz-adv-x="448" 
d="M347 118l-135 183l135 183h54l-132 -183l132 -183h-54zM189 118l-135 183l135 183h54l-132 -183l132 -183h-54z" />
    <glyph glyph-name="guilsinglright.uc" horiz-adv-x="290" 
d="M47 118l132 183l-132 183h54l135 -183l-135 -183h-54z" />
    <glyph glyph-name="guilsinglleft.uc" horiz-adv-x="290" 
d="M189 118l-135 183l135 183h54l-132 -183l132 -183h-54z" />
    <glyph glyph-name="emdash.uc" horiz-adv-x="869" 
d="M46 309v46h777v-46h-777z" />
    <glyph glyph-name="endash.uc" horiz-adv-x="503" 
d="M46 309v46h411v-46h-411z" />
    <glyph glyph-name="hyphen.uc" horiz-adv-x="358" 
d="M62 308v50h235v-50h-235z" />
    <glyph glyph-name="exclamdown.uc" horiz-adv-x="272" 
d="M136 635q-17 0 -29.5 12.5t-12.5 30.5q0 17 12.5 29.5t29.5 12.5q18 0 30.5 -12.5t12.5 -29.5q0 -18 -12.5 -30.5t-30.5 -12.5zM106 0l8 536h42l9 -536h-59z" />
    <glyph glyph-name="questiondown.uc" horiz-adv-x="477" 
d="M266 720q17 0 29.5 -12.5t12.5 -29.5q0 -18 -12.5 -30.5t-29.5 -12.5q-18 0 -30.5 12.5t-12.5 30.5q0 17 12.5 29.5t30.5 12.5zM289 536v-57q0 -38 -15.5 -71.5t-32 -52.5t-52.5 -55l-45 -46t-27.5 -42.5t-13.5 -57.5q0 -53 33.5 -85t97.5 -32q66 0 107.5 40.5
t46.5 109.5h51q-5 -88 -61.5 -141.5t-144.5 -53.5q-90 0 -137 45.5t-47 114.5q0 15 2.5 29t5.5 24.5t11 24t11.5 20t16.5 21t16.5 18l19.5 20l19 19.5q34 34 48 50t28 44.5t14 60.5v53h48z" />
    <glyph glyph-name="caron.alt" horiz-adv-x="334" 
d="M144 611l12 162h60l-33 -162h-39z" />
    <glyph glyph-name="registered.alt" horiz-adv-x="844" 
d="M421 -9q-153 0 -259.5 105.5t-106.5 260.5q0 153 107 260t261 107q155 0 260.5 -106t105.5 -259q0 -156 -106.5 -262t-261.5 -106zM421 23q137 0 234 96t97 240q0 143 -95.5 238t-233.5 95q-139 0 -235 -96t-96 -239q0 -144 97 -239t232 -95zM348 373h70q95 0 95 75v3
q0 74 -95 74h-70v-152zM296 158v408h123q145 0 145 -114v-2q0 -47 -26.5 -74.5t-71.5 -34.5l122 -183h-57l-119 176h-64v-176h-52z" />
    <glyph glyph-name="space_uni0326.alt" horiz-adv-x="400" 
d="M215 607l-52 15l75 148l35 -17z" />
    <glyph glyph-name="tcommaaccent.alt" horiz-adv-x="319" 
d="M98 -204l-34 16l58 147l51 -15zM112 0v478h-87v45h87v119h53v-119h127v-45h-127v-478h-53z" />
    <glyph glyph-name="tcaron.alt" horiz-adv-x="319" 
d="M112 0v478h-87v45h87v119h53v-119h127v-45h-127v-478h-53zM243 611l12 162h60l-33 -162h-39z" />
    <glyph glyph-name="tbar.alt" horiz-adv-x="319" 
d="M25 301v40h87v137h-87v45h87v119h53v-119h127v-45h-127v-137h127v-40h-127v-301h-53v301h-87z" />
    <glyph glyph-name="germandbls.alt" horiz-adv-x="595" 
d="M391 -7q-75 0 -120.5 40.5t-48.5 103.5h51q4 -42 34 -70.5t84 -28.5q52 0 83 28.5t31 80.5q0 22 -7.5 39.5t-27 33.5t-34.5 25t-47 26q-35 19 -50 28.5t-36.5 26.5t-29.5 35t-8 41q0 26 17 50.5t41 43.5l48 38.5t41 44.5t17 52q0 48 -34 74.5t-94 26.5q-78 0 -122 -49
t-44 -135v-548h-53v546q0 104 60.5 167t158.5 63q80 0 129.5 -39t49.5 -105q0 -40 -26 -75t-56.5 -55.5t-56.5 -47t-26 -51.5q0 -8 2 -14t7.5 -13t10.5 -11.5t17 -12t20 -12l26 -14.5t29 -17q44 -25 68 -42t44.5 -48.5t20.5 -70.5q0 -72 -46.5 -113.5t-122.5 -41.5z" />
    <glyph glyph-name="atilde.alt" horiz-adv-x="602" 
d="M279 37q79 0 134 59t55 162v8q0 105 -50.5 162.5t-131.5 57.5t-134.5 -59.5t-53.5 -162.5v-8q0 -103 51.5 -161t129.5 -58zM274 -8q-97 0 -164 71t-67 191v8q0 118 69.5 193.5t169.5 75.5q68 0 114 -34t70 -88v114h54v-523h-54v120q-22 -51 -74.5 -89.5t-117.5 -38.5z
M354 616q-26 0 -67 26.5t-57 26.5t-28.5 -14.5t-16.5 -38.5h-41q6 46 29.5 72.5t57.5 26.5q25 0 66 -26.5t57 -26.5t29 14t17 39h40q-6 -46 -29.5 -72.5t-56.5 -26.5z" />
    <glyph glyph-name="aringacute.alt" horiz-adv-x="602" 
d="M279 37q79 0 134 59t55 162v8q0 105 -50.5 162.5t-131.5 57.5t-134.5 -59.5t-53.5 -162.5v-8q0 -103 51.5 -161t129.5 -58zM274 -8q-97 0 -164 71t-67 191v8q0 118 69.5 193.5t169.5 75.5q68 0 114 -34t70 -88v114h54v-523h-54v120q-22 -51 -74.5 -89.5t-117.5 -38.5z
M290 591q-40 0 -69 28t-29 67t29 67.5t69 28.5t69 -28.5t29 -67.5t-29 -67t-69 -28zM290 623q26 0 43.5 18t17.5 45q0 28 -17.5 46t-43.5 18t-43.5 -18t-17.5 -46q0 -27 17.5 -45t43.5 -18zM268 829l64 122h66l-88 -122h-42z" />
    <glyph glyph-name="aring.alt" horiz-adv-x="602" 
d="M279 37q79 0 134 59t55 162v8q0 105 -50.5 162.5t-131.5 57.5t-134.5 -59.5t-53.5 -162.5v-8q0 -103 51.5 -161t129.5 -58zM274 -8q-97 0 -164 71t-67 191v8q0 118 69.5 193.5t169.5 75.5q68 0 114 -34t70 -88v114h54v-523h-54v120q-22 -51 -74.5 -89.5t-117.5 -38.5z
M290 601q-40 0 -69 28t-29 67t29 67.5t69 28.5t69 -28.5t29 -67.5t-29 -67t-69 -28zM290 633q26 0 43.5 18t17.5 45q0 28 -17.5 46t-43.5 18t-43.5 -18t-17.5 -46q0 -27 17.5 -45t43.5 -18z" />
    <glyph glyph-name="aogonek.alt" horiz-adv-x="602" 
d="M482 -182q-43 0 -68 20.5t-25 54.5q0 32 22 60.5t55 46.5v120q-22 -51 -74.5 -89.5t-117.5 -38.5q-97 0 -164 71t-67 191v8q0 118 69.5 193.5t169.5 75.5q68 0 114 -34t70 -88v114h54v-520q-80 -50 -80 -101q0 -44 49 -44q29 0 50 10v-39q-27 -11 -57 -11zM279 37
q79 0 134 59t55 162v8q0 105 -50.5 162.5t-131.5 57.5t-134.5 -59.5t-53.5 -162.5v-8q0 -103 51.5 -161t129.5 -58z" />
    <glyph glyph-name="amacron.alt" horiz-adv-x="602" 
d="M279 37q79 0 134 59t55 162v8q0 105 -50.5 162.5t-131.5 57.5t-134.5 -59.5t-53.5 -162.5v-8q0 -103 51.5 -161t129.5 -58zM274 -8q-97 0 -164 71t-67 191v8q0 118 69.5 193.5t169.5 75.5q68 0 114 -34t70 -88v114h54v-523h-54v120q-22 -51 -74.5 -89.5t-117.5 -38.5z
M172 647v42h242v-42h-242z" />
    <glyph glyph-name="agrave.alt" horiz-adv-x="602" 
d="M279 37q79 0 134 59t55 162v8q0 105 -50.5 162.5t-131.5 57.5t-134.5 -59.5t-53.5 -162.5v-8q0 -103 51.5 -161t129.5 -58zM274 -8q-97 0 -164 71t-67 191v8q0 118 69.5 193.5t169.5 75.5q68 0 114 -34t70 -88v114h54v-523h-54v120q-22 -51 -74.5 -89.5t-117.5 -38.5z
M278 605l-92 147h65l68 -147h-41z" />
    <glyph glyph-name="adieresis.alt" horiz-adv-x="602" 
d="M279 37q79 0 134 59t55 162v8q0 105 -50.5 162.5t-131.5 57.5t-134.5 -59.5t-53.5 -162.5v-8q0 -103 51.5 -161t129.5 -58zM274 -8q-97 0 -164 71t-67 191v8q0 118 69.5 193.5t169.5 75.5q68 0 114 -34t70 -88v114h54v-523h-54v120q-22 -51 -74.5 -89.5t-117.5 -38.5z
M377 636q-15 0 -25.5 11t-10.5 26t10.5 25.5t25.5 10.5q16 0 26.5 -10.5t10.5 -25.5t-10.5 -26t-26.5 -11zM211 636q-16 0 -26.5 11t-10.5 26t10.5 25.5t26.5 10.5q15 0 25.5 -10.5t10.5 -25.5t-10.5 -26t-25.5 -11z" />
    <glyph glyph-name="acircumflex.alt" horiz-adv-x="602" 
d="M279 37q79 0 134 59t55 162v8q0 105 -50.5 162.5t-131.5 57.5t-134.5 -59.5t-53.5 -162.5v-8q0 -103 51.5 -161t129.5 -58zM274 -8q-97 0 -164 71t-67 191v8q0 118 69.5 193.5t169.5 75.5q68 0 114 -34t70 -88v114h54v-523h-54v120q-22 -51 -74.5 -89.5t-117.5 -38.5z
M159 605l110 135h50l108 -135h-42l-92 90l-93 -90h-41z" />
    <glyph glyph-name="abreve.alt" horiz-adv-x="602" 
d="M279 37q79 0 134 59t55 162v8q0 105 -50.5 162.5t-131.5 57.5t-134.5 -59.5t-53.5 -162.5v-8q0 -103 51.5 -161t129.5 -58zM274 -8q-97 0 -164 71t-67 191v8q0 118 69.5 193.5t169.5 75.5q68 0 114 -34t70 -88v114h54v-523h-54v120q-22 -51 -74.5 -89.5t-117.5 -38.5z
M292 616q-51 0 -85 34t-37 87h44q4 -36 24 -56.5t54 -20.5q35 0 56.5 20.5t26.5 56.5h42q-3 -53 -38.5 -87t-86.5 -34z" />
    <glyph glyph-name="aacute.alt" horiz-adv-x="602" 
d="M279 37q79 0 134 59t55 162v8q0 105 -50.5 162.5t-131.5 57.5t-134.5 -59.5t-53.5 -162.5v-8q0 -103 51.5 -161t129.5 -58zM274 -8q-97 0 -164 71t-67 191v8q0 118 69.5 193.5t169.5 75.5q68 0 114 -34t70 -88v114h54v-523h-54v120q-22 -51 -74.5 -89.5t-117.5 -38.5z
M264 605l68 147h65l-92 -147h-41z" />
    <glyph glyph-name="minus.sup" horiz-adv-x="323" 
d="M38 582v36h248v-36h-248z" />
    <glyph glyph-name="plus.sup" horiz-adv-x="323" 
d="M142 474v108h-104v36h104v110h38v-110h106v-36h-106v-108h-38z" />
    <glyph glyph-name="nine.sup" horiz-adv-x="317" 
d="M154 585q35 0 58 20.5t23 54.5q0 36 -21.5 59.5t-58.5 23.5q-35 0 -57 -22t-22 -58q0 -35 21 -56.5t57 -21.5zM149 426q-46 0 -76.5 23t-36.5 65h42q12 -53 72 -53q89 0 89 128v15q-27 -52 -92 -52q-52 0 -83.5 30t-31.5 80q0 52 34 83.5t89 31.5q65 0 97 -40.5
t32 -111.5v-29q0 -170 -135 -170z" />
    <glyph glyph-name="eight.sup" horiz-adv-x="314" 
d="M157 426q-55 0 -90.5 26t-35.5 73q0 34 20.5 56.5t53.5 31.5q-27 9 -43.5 28.5t-16.5 46.5q0 40 33 64.5t79 24.5q47 0 79.5 -24.5t32.5 -63.5q0 -56 -59 -75q73 -22 73 -88q0 -48 -35 -74t-91 -26zM158 628q30 0 49 15.5t19 43.5q0 25 -19.5 40.5t-49.5 15.5
t-49.5 -15.5t-19.5 -41.5q0 -27 21 -42.5t49 -15.5zM157 460q37 0 59 18t22 51q0 31 -22.5 49.5t-57.5 18.5t-58.5 -18.5t-23.5 -50.5q0 -33 22.5 -50.5t58.5 -17.5z" />
    <glyph glyph-name="seven.sup" horiz-adv-x="270" 
d="M73 430l124 306h-180v37h237v-6l-135 -337h-46z" />
    <glyph glyph-name="six.sup" horiz-adv-x="318" 
d="M163 426q-128 0 -128 152v18q0 89 37.5 135t100.5 46q43 0 70.5 -21.5t33.5 -63.5h-41q-9 50 -65 50q-42 0 -66.5 -34t-25.5 -102v-8q12 24 37 38t56 14q52 0 83.5 -30.5t31.5 -79.5q0 -52 -34 -83t-90 -31zM163 459q35 0 57 22t22 58t-21 57.5t-57 21.5q-35 0 -58.5 -21
t-23.5 -55q0 -36 21.5 -59.5t59.5 -23.5z" />
    <glyph glyph-name="five.sup" horiz-adv-x="296" 
d="M142 426q-54 0 -84.5 27t-34.5 70h43q9 -62 76 -62q35 0 55 22t20 59q0 36 -20 58t-53 22q-53 0 -80 -34h-23l2 185h200v-35h-164l-1 -112q30 30 79 30q46 0 76 -31t30 -83q0 -53 -33.5 -84.5t-87.5 -31.5z" />
    <glyph glyph-name="four.sup" horiz-adv-x="310" 
d="M196 430v74h-178v15l164 254h57v-235h47v-34h-47v-74h-43zM69 538h128v201z" />
    <glyph glyph-name="three.sup" horiz-adv-x="309" 
d="M153 426q-58 0 -92.5 29t-36.5 76h41q4 -31 26 -51t61 -20q37 0 57.5 17.5t20.5 49.5q0 30 -19 47.5t-54 17.5h-27v33h25q33 0 49.5 16t16.5 43t-18 43t-49 16q-33 0 -53 -18t-24 -48h-40q3 44 34.5 72t83.5 28q49 0 79 -25.5t30 -65.5q0 -58 -59 -75q31 -7 50.5 -29
t19.5 -56q0 -47 -33 -73.5t-89 -26.5z" />
    <glyph glyph-name="two.sup" horiz-adv-x="286" 
d="M15 430v9l130 131q62 64 62 108q0 30 -18 47t-48 17q-66 0 -75 -78h-41q3 53 34.5 83t82.5 30q50 0 79.5 -27t29.5 -71q0 -34 -17 -62t-55 -65l-90 -87h166v-35h-240z" />
    <glyph glyph-name="one.sup" horiz-adv-x="220" 
d="M109 430v296l-88 -61v41l96 67h37v-343h-45z" />
    <glyph glyph-name="zero.sup" horiz-adv-x="350" 
d="M175 426q-65 0 -103 43t-38 120v23q0 77 38 121t102 44q65 0 103.5 -43.5t38.5 -119.5v-24q0 -76 -38 -120t-103 -44zM176 462q95 0 95 129v23q0 61 -26 94t-71 33t-70 -33t-25 -95v-24q0 -63 25.5 -95t71.5 -32z" />
    <glyph glyph-name="minus.sub" horiz-adv-x="323" 
d="M38 64v36h248v-36h-248z" />
    <glyph glyph-name="uni0414.bgr" horiz-adv-x="684" 
d="M340 669l-223 -622h447zM50 0l-4 -130h-46v177h65l240 668h74l240 -668h65v-177h-46l-4 130h-584z" />
    <glyph glyph-name="plus.sub" horiz-adv-x="323" 
d="M142 -44v108h-104v36h104v110h38v-110h106v-36h-106v-108h-38z" />
    <glyph glyph-name="nine.sub" horiz-adv-x="317" 
d="M154 69q34 0 57.5 21t23.5 55q0 36 -21.5 59.5t-58.5 23.5q-35 0 -57 -22.5t-22 -58.5q0 -35 21 -56.5t57 -21.5zM149 -90q-46 0 -76.5 23t-36.5 65h42q13 -53 72 -53q89 0 89 128v15q-27 -51 -92 -51q-52 0 -83.5 30t-31.5 79q0 52 34 83.5t89 31.5q65 0 97 -40.5
t32 -111.5v-29q0 -170 -135 -170z" />
    <glyph glyph-name="uni0416.bgr" horiz-adv-x="869" 
d="M407 0v715h54v-715h-54zM846 0h-66l-318 362l306 353h62l-307 -348zM87 0h-64l322 364l-309 351h63l306 -353z" />
    <glyph glyph-name="eight.sub" horiz-adv-x="314" 
d="M157 -90q-55 0 -90.5 26t-35.5 73q0 34 20.5 56.5t53.5 31.5q-60 21 -60 75q0 40 33 64.5t79 24.5q47 0 79.5 -24.5t32.5 -63.5q0 -56 -59 -75q73 -22 73 -87q0 -48 -35 -74.5t-91 -26.5zM158 112q30 0 49 15.5t19 43.5q0 25 -19.5 41t-49.5 16t-49.5 -16t-19.5 -42
t21 -42t49 -16zM157 -56q37 0 59 18t22 51q0 32 -22.5 50t-57.5 18t-58.5 -18.5t-23.5 -50.5t23 -50t58 -18z" />
    <glyph glyph-name="seven.sub" horiz-adv-x="270" 
d="M73 -86l124 306h-180v37h237v-6l-135 -337h-46z" />
    <glyph glyph-name="six.sub" horiz-adv-x="318" 
d="M163 -90q-128 0 -128 153v18q0 88 37.5 134t100.5 46q92 0 104 -84h-41q-9 49 -65 49q-42 0 -66.5 -33.5t-25.5 -101.5v-10q11 24 36.5 38.5t56.5 14.5q52 0 83.5 -30.5t31.5 -79.5q0 -51 -34 -82.5t-90 -31.5zM163 -56q35 0 57 22t22 57q0 36 -21 58t-57 22
q-35 0 -58.5 -21.5t-23.5 -55.5q0 -36 21.5 -59t59.5 -23z" />
    <glyph glyph-name="five.sub" horiz-adv-x="296" 
d="M142 -90q-54 0 -84.5 27t-34.5 70h43q9 -62 76 -62q35 0 55 22t20 60q0 36 -20.5 57.5t-52.5 21.5q-53 0 -80 -34h-23l2 185h200v-35h-164l-1 -112q28 30 79 30q47 0 76.5 -31t29.5 -83q0 -53 -33.5 -84.5t-87.5 -31.5z" />
    <glyph glyph-name="uni041A.bgr" horiz-adv-x="599" 
d="M508 0l-360 361v-361h-56v715h56v-352l347 352h64l-346 -348l363 -367h-68z" />
    <glyph glyph-name="four.sub" horiz-adv-x="310" 
d="M196 -86v74h-178v16l164 253h57v-235h47v-34h-47v-74h-43zM69 22h128v202z" />
    <glyph glyph-name="uni041B.bgr" horiz-adv-x="654" 
d="M565 0l-240 669l-239 -669h-53l257 715h74l257 -715h-56z" />
    <glyph glyph-name="three.sub" horiz-adv-x="309" 
d="M153 -90q-58 0 -92.5 29.5t-36.5 75.5h41q4 -31 26 -51t61 -20q37 0 57.5 17.5t20.5 49.5q0 30 -19 47.5t-54 17.5h-27v33h25q33 0 49.5 16t16.5 43t-18 43t-49 16q-33 0 -53 -18t-24 -48h-40q3 44 34.5 72t83.5 28q49 0 79 -25.5t30 -64.5q0 -57 -59 -76q31 -7 50.5 -29
t19.5 -55q0 -47 -33 -74t-89 -27z" />
    <glyph glyph-name="two.sub" horiz-adv-x="286" 
d="M15 -86v9l130 132q62 62 62 108q0 29 -18 46t-48 17q-66 0 -75 -78h-41q3 53 34.5 83t82.5 30t80 -26.5t29 -71.5q0 -59 -72 -126l-90 -88h166v-35h-240z" />
    <glyph glyph-name="one.sub" horiz-adv-x="220" 
d="M109 -87v297l-88 -61v41l96 67h37v-344h-45z" />
    <glyph glyph-name="zero.sub" horiz-adv-x="350" 
d="M175 -90q-65 0 -103 43t-38 120v24q0 77 38 120.5t102 43.5q65 0 103.5 -43t38.5 -119v-24q0 -77 -38 -121t-103 -44zM176 -54q95 0 95 129v24q0 60 -26 93t-71 33t-70 -32.5t-25 -94.5v-24q0 -64 25.5 -96t71.5 -32z" />
    <glyph glyph-name="nine.den" horiz-adv-x="317" 
d="M154 155q34 0 57.5 21t23.5 55q0 36 -21.5 59.5t-58.5 23.5q-35 0 -57 -22.5t-22 -58.5q0 -35 21 -56.5t57 -21.5zM149 -4q-46 0 -76.5 23t-36.5 65h42q13 -53 72 -53q89 0 89 128v15q-27 -51 -92 -51q-52 0 -83.5 30t-31.5 79q0 52 34 83.5t89 31.5q65 0 97 -40.5
t32 -111.5v-29q0 -170 -135 -170z" />
    <glyph glyph-name="eight.den" horiz-adv-x="314" 
d="M157 -4q-55 0 -90.5 26t-35.5 73q0 34 20.5 56.5t53.5 31.5q-60 21 -60 75q0 40 33 64.5t79 24.5q47 0 79.5 -24.5t32.5 -63.5q0 -56 -59 -75q73 -22 73 -87q0 -48 -35 -74.5t-91 -26.5zM158 198q30 0 49 15.5t19 43.5q0 25 -19.5 41t-49.5 16t-49.5 -16t-19.5 -42
t21 -42t49 -16zM157 30q37 0 59 18t22 51q0 32 -22.5 50t-57.5 18t-58.5 -18.5t-23.5 -50.5t23 -50t58 -18z" />
    <glyph glyph-name="seven.den" horiz-adv-x="270" 
d="M73 0l124 306h-180v37h237v-6l-135 -337h-46z" />
    <glyph glyph-name="six.den" horiz-adv-x="318" 
d="M163 -4q-128 0 -128 153v18q0 88 37.5 134t100.5 46q92 0 104 -84h-41q-9 49 -65 49q-42 0 -66.5 -33.5t-25.5 -101.5v-10q11 24 36.5 38.5t56.5 14.5q52 0 83.5 -30.5t31.5 -79.5q0 -51 -34 -82.5t-90 -31.5zM163 30q35 0 57 22t22 57q0 36 -21 58t-57 22
q-35 0 -58.5 -21.5t-23.5 -55.5q0 -36 21.5 -59t59.5 -23z" />
    <glyph glyph-name="five.den" horiz-adv-x="296" 
d="M142 -4q-54 0 -84.5 27t-34.5 70h43q9 -62 76 -62q35 0 55 22t20 60q0 36 -20.5 57.5t-52.5 21.5q-53 0 -80 -34h-23l2 185h200v-35h-164l-1 -112q28 30 79 30q47 0 76.5 -31t29.5 -83q0 -53 -33.5 -84.5t-87.5 -31.5z" />
    <glyph glyph-name="uni0424.bgr" horiz-adv-x="800" 
d="M427 657q148 -2 234.5 -75.5t86.5 -217.5v-8q0 -143 -87.5 -216t-233.5 -75v-75h-54v75q-148 2 -234.5 74t-86.5 214v7q0 146 87.5 220.5t233.5 76.5v68h54v-68zM427 615v-507q264 3 264 249v8q0 126 -69.5 187t-194.5 63zM373 107v507q-264 -3 -264 -255v-6
q0 -124 69.5 -184t194.5 -62z" />
    <glyph glyph-name="four.den" horiz-adv-x="310" 
d="M196 0v74h-178v16l164 253h57v-235h47v-34h-47v-74h-43zM69 108h128v202z" />
    <glyph glyph-name="three.den" horiz-adv-x="309" 
d="M153 -4q-58 0 -92.5 29.5t-36.5 75.5h41q4 -31 26 -51t61 -20q37 0 57.5 17.5t20.5 49.5q0 30 -19 47.5t-54 17.5h-27v33h25q33 0 49.5 16t16.5 43t-18 43t-49 16q-33 0 -53 -18t-24 -48h-40q3 44 34.5 72t83.5 28q49 0 79 -25.5t30 -64.5q0 -57 -59 -76q31 -7 50.5 -29
t19.5 -55q0 -47 -33 -74t-89 -27z" />
    <glyph glyph-name="two.den" horiz-adv-x="286" 
d="M15 0v9l130 132q62 62 62 108q0 29 -18 46t-48 17q-66 0 -75 -78h-41q3 53 34.5 83t82.5 30t80 -26.5t29 -71.5q0 -59 -72 -126l-90 -88h166v-35h-240z" />
    <glyph glyph-name="one.den" horiz-adv-x="220" 
d="M109 0v296l-88 -60v40l96 67h37v-343h-45z" />
    <glyph glyph-name="zero.den" horiz-adv-x="350" 
d="M175 -4q-65 0 -103 43t-38 120v24q0 77 38 120.5t102 43.5q65 0 103.5 -43t38.5 -119v-24q0 -77 -38 -121t-103 -44zM176 32q95 0 95 129v24q0 60 -26 93t-71 33t-70 -32.5t-25 -94.5v-24q0 -64 25.5 -96t71.5 -32z" />
    <glyph glyph-name="nine.num" horiz-adv-x="317" 
d="M154 527q35 0 58 20.5t23 54.5q0 36 -21.5 59.5t-58.5 23.5q-35 0 -57 -22t-22 -58q0 -35 21 -56.5t57 -21.5zM149 368q-46 0 -76.5 23t-36.5 65h42q12 -53 72 -53q89 0 89 128v15q-27 -52 -92 -52q-52 0 -83.5 30t-31.5 80q0 52 34 83.5t89 31.5q65 0 97 -40.5
t32 -111.5v-29q0 -170 -135 -170z" />
    <glyph glyph-name="eight.num" horiz-adv-x="314" 
d="M157 368q-55 0 -90.5 26t-35.5 73q0 34 20.5 56.5t53.5 31.5q-27 9 -43.5 28.5t-16.5 46.5q0 40 33 64.5t79 24.5q47 0 79.5 -24.5t32.5 -63.5q0 -56 -59 -75q73 -22 73 -88q0 -48 -35 -74t-91 -26zM158 570q30 0 49 15.5t19 43.5q0 25 -19.5 40.5t-49.5 15.5
t-49.5 -15.5t-19.5 -41.5q0 -27 21 -42.5t49 -15.5zM157 402q37 0 59 18t22 51q0 31 -22.5 49.5t-57.5 18.5t-58.5 -18.5t-23.5 -50.5q0 -33 22.5 -50.5t58.5 -17.5z" />
    <glyph glyph-name="seven.num" horiz-adv-x="269" 
d="M73 372l124 306h-180v37h237v-6l-135 -337h-46z" />
    <glyph glyph-name="six.num" horiz-adv-x="317" 
d="M163 368q-128 0 -128 152v18q0 89 37.5 135t100.5 46q43 0 70.5 -21.5t33.5 -63.5h-41q-9 50 -65 50q-42 0 -66.5 -34t-25.5 -102v-8q12 24 37 38t56 14q52 0 83.5 -30.5t31.5 -79.5q0 -52 -34 -83t-90 -31zM163 401q35 0 57 22t22 58t-21 57.5t-57 21.5q-35 0 -58.5 -21
t-23.5 -55q0 -36 21.5 -59.5t59.5 -23.5z" />
    <glyph glyph-name="five.num" horiz-adv-x="295" 
d="M142 368q-54 0 -84.5 27t-34.5 70h43q9 -62 76 -62q35 0 55 22t20 59q0 36 -20 58t-53 22q-53 0 -80 -34h-23l2 185h200v-35h-164l-1 -112q30 30 79 30q46 0 76 -31t30 -83q0 -53 -33.5 -84.5t-87.5 -31.5z" />
    <glyph glyph-name="four.num" horiz-adv-x="310" 
d="M196 372v74h-178v15l164 254h57v-235h47v-34h-47v-74h-43zM69 480h128v201z" />
    <glyph glyph-name="three.num" horiz-adv-x="308" 
d="M153 368q-58 0 -92.5 29t-36.5 76h41q4 -31 26 -51t61 -20q37 0 57.5 17.5t20.5 49.5q0 30 -19 47.5t-54 17.5h-27v33h25q33 0 49.5 16t16.5 43t-18 43t-49 16q-33 0 -53 -18t-24 -48h-40q3 44 34.5 72t83.5 28q49 0 79 -25.5t30 -65.5q0 -58 -59 -75q31 -7 50.5 -29
t19.5 -56q0 -47 -33 -73.5t-89 -26.5z" />
    <glyph glyph-name="hungarumlaut.uc" horiz-adv-x="400" 
d="M244 771l45 122h60l-65 -122h-40zM112 771l45 122h60l-65 -122h-40z" />
    <glyph glyph-name="two.num" horiz-adv-x="285" 
d="M15 372v9l130 131q62 64 62 108q0 30 -18 47t-48 17q-66 0 -75 -78h-41q3 53 34.5 83t82.5 30q50 0 79.5 -27t29.5 -71q0 -34 -17 -62t-55 -65l-90 -87h166v-35h-240z" />
    <glyph glyph-name="uni0431.locl" horiz-adv-x="591" 
d="M295 -8q-107 0 -179.5 73t-72.5 182v8q0 109 72 180t174 71q11 0 15 -1l-60 29l-48.5 25t-44.5 27.5t-29 27.5t-22.5 34t-5.5 37q0 41 32 64.5t85 23.5h152q97 0 137 8v-46q-39 -10 -138 -10h-141q-36 0 -55 -14t-19 -38q0 -10 3 -18.5t11 -17.5l15 -16.5t21.5 -16.5
l24.5 -15t30.5 -16l31.5 -15.5t36 -17t37 -17.5q46 -23 76 -44t58.5 -52t42.5 -73.5t14 -97.5v-8q0 -111 -73 -183.5t-180 -72.5zM296 37q85 0 141 58.5t56 151.5v7q0 96 -54.5 154t-142.5 58q-85 0 -141.5 -59t-56.5 -152v-8q0 -92 56 -151t142 -59z" />
    <glyph glyph-name="one.num" horiz-adv-x="219" 
d="M109 372v296l-88 -61v41l96 67h37v-343h-45z" />
    <glyph glyph-name="uni0432.bgr" horiz-adv-x="504" 
d="M61 530q0 122 49.5 186t140.5 64q88 0 136.5 -52t48.5 -137v-3q0 -64 -33.5 -112t-86.5 -58q63 -10 104 -59.5t41 -131.5v-5q0 -104 -57 -167t-143 -63q-200 0 -200 248v290zM114 533v-95h133q66 0 99.5 43t33.5 107v3q0 64 -32.5 104t-97.5 40q-136 0 -136 -202zM259 37
q67 0 107.5 49t40.5 136v5q0 78 -40.5 123t-119.5 45h-133v-159q0 -199 145 -199z" />
    <glyph glyph-name="zero.num" horiz-adv-x="350" 
d="M175 368q-65 0 -103 43t-38 120v23q0 77 38 121t102 44q65 0 103.5 -43.5t38.5 -119.5v-24q0 -76 -38 -120t-103 -44zM176 404q95 0 95 129v23q0 61 -26 94t-71 33t-70 -33t-25 -95v-24q0 -63 25.5 -95t71.5 -32z" />
    <glyph glyph-name="uni0433.bgr" horiz-adv-x="460" 
d="M224 -9q-88 0 -136 38.5t-48 100.5q0 68 42.5 100t128.5 54q74 17 107.5 41t33.5 72q0 41 -30.5 65t-82.5 24q-110 0 -131 -101h-51q11 74 60 110t122 36q74 0 120.5 -34.5t46.5 -97.5q0 -68 -42 -98.5t-133 -53.5q-70 -17 -102.5 -42t-32.5 -74q0 -45 33.5 -70t95.5 -25
q130 0 143 115h52q-5 -75 -55.5 -117.5t-140.5 -42.5z" />
    <glyph glyph-name="nine.oldtab" 
d="M294 219q75 0 126.5 47.5t51.5 125.5q0 84 -47 137.5t-132 53.5q-79 0 -128 -50.5t-49 -131.5q0 -83 47 -132.5t131 -49.5zM282 -104q-86 0 -142.5 45t-68.5 124h52q12 -58 53 -91t110 -33q93 0 141.5 74t49.5 235v43q-22 -56 -74.5 -87t-115.5 -31q-104 0 -165 63.5
t-61 160.5q0 101 64.5 164.5t167.5 63.5q122 0 180 -78t58 -212v-84q0 -357 -249 -357z" />
    <glyph glyph-name="uni0434.bgr" horiz-adv-x="612" 
d="M284 62q82 0 138 56.5t56 151.5v8q0 97 -51.5 152.5t-135.5 55.5q-85 0 -139 -57t-54 -153v-8q0 -95 53 -150.5t133 -55.5zM288 -188q-107 0 -165 44.5t-69 113.5h54q24 -113 179 -113q89 0 139.5 43.5t50.5 136.5v107q-23 -52 -76.5 -89.5t-121.5 -37.5q-102 0 -169 69
t-67 181v7q0 111 69.5 184t173.5 73q134 0 191 -121v113h53v-488q-1 -111 -66.5 -167t-175.5 -56z" />
    <glyph glyph-name="eight.oldtab" 
d="M301 -8q-96 0 -165 54.5t-69 150.5q0 71 42.5 119t111.5 66q-57 17 -90.5 57.5t-33.5 101.5q0 82 60.5 132t143.5 50t143 -50.5t60 -129.5q0 -122 -123 -160q71 -20 112 -66.5t41 -117.5q0 -97 -68 -152t-165 -55zM304 402q64 0 104.5 37.5t40.5 103.5q0 59 -42.5 97.5
t-105.5 38.5q-65 0 -107.5 -38t-42.5 -100q0 -64 45.5 -101.5t107.5 -37.5zM301 38q79 0 128.5 42t49.5 120q0 74 -50.5 116t-125.5 42q-76 0 -128.5 -43t-52.5 -117q0 -76 51 -118t128 -42z" />
    <glyph glyph-name="seven.oldtab" 
d="M176 -97l282 671h-380v44h450v-9l-296 -706h-56z" />
    <glyph glyph-name="uni0436.bgr" horiz-adv-x="678" 
d="M313 0v773h52v-773h-52zM661 0h-62l-233 273l219 250h58l-221 -247zM79 0h-61l239 276l-222 247h58l219 -250z" />
    <glyph glyph-name="six.oldtab" 
d="M309 -8q-121 0 -180 79.5t-59 210.5v77q0 181 70 272.5t188 91.5q79 0 131 -41t65 -118h-53q-24 114 -146 114q-93 0 -146.5 -76.5t-54.5 -237.5v-38q22 55 75 86.5t116 31.5q106 0 166 -63.5t60 -161.5q0 -101 -64 -164t-168 -63zM309 35q79 0 127.5 50.5t48.5 131.5
q0 84 -46.5 133.5t-130.5 49.5q-75 0 -127 -48t-52 -125q0 -83 47.5 -137.5t132.5 -54.5z" />
    <glyph glyph-name="uni0437.bgr" horiz-adv-x="468" 
d="M424 30v-5q0 -103 -54.5 -158t-140.5 -55q-90 0 -138.5 46.5t-57.5 120.5h54q8 -57 43.5 -89.5t97.5 -32.5q65 0 104 41.5t39 126.5v5q0 76 -39 117t-116 41h-62v43h61q65 0 97 34.5t32 96.5v3q0 55 -30 88t-87 33q-101 0 -122 -105h-51q9 73 57 111.5t118 38.5
q78 0 124.5 -45.5t46.5 -120.5v-3q0 -61 -32 -102t-81 -49q60 -10 98.5 -56t38.5 -125z" />
    <glyph glyph-name="five.oldtab" 
d="M291 -104q-101 0 -160 53t-67 134h51q9 -64 52.5 -103.5t123.5 -39.5q83 0 131.5 51.5t48.5 140.5q0 82 -47 133t-121 51q-112 0 -176 -76h-20v379h383v-47h-338v-270q56 58 160 58q93 0 153.5 -62.5t60.5 -165.5q0 -108 -66 -172t-169 -64z" />
    <glyph glyph-name="uni0438.bgr" horiz-adv-x="579" 
d="M261 -8q-86 0 -135 48.5t-49 151.5v331h53v-328q0 -157 143 -157q69 0 120 44.5t51 122.5v318h53v-523h-53v100q-19 -46 -68 -77t-115 -31z" />
    <glyph glyph-name="four.oldtab" 
d="M402 -97v163h-363v17l338 535h78v-508h96v-44h-96v-163h-53zM109 110h293v467z" />
    <glyph glyph-name="uni0439.bgr" horiz-adv-x="579" 
d="M286 616q-51 0 -87 35t-39 88h47q2 -37 23 -61t56 -24t57 24t26 61h46q-4 -53 -41 -88t-88 -35zM261 -8q-86 0 -135 48.5t-49 151.5v331h53v-328q0 -157 143 -157q69 0 120 44.5t51 122.5v318h53v-523h-53v100q-19 -46 -68 -77t-115 -31z" />
    <glyph glyph-name="three.oldtab" 
d="M296 -104q-108 0 -173 60.5t-69 149.5h51q6 -73 54.5 -119.5t137.5 -46.5q86 0 133 42t47 119q0 72 -44 113.5t-126 41.5h-52v46h48q74 0 111 38t37 99q0 64 -39 103.5t-109 39.5q-73 0 -118.5 -41.5t-53.5 -109.5h-48q5 83 66 139.5t154 56.5q92 0 146.5 -53.5
t54.5 -132.5q0 -60 -32 -101t-86 -58q66 -14 106 -61t40 -120q0 -95 -65 -150t-171 -55z" />
    <glyph glyph-name="uni043A.bgr" horiz-adv-x="487" 
d="M404 0l-269 275v-275h-53v773h53v-498l255 248h63l-255 -246l272 -277h-66z" />
    <glyph glyph-name="two.oldtab" 
d="M61 0v13l252 229q46 41 71.5 68t44 64t18.5 76q0 62 -39 97.5t-107 35.5q-69 0 -113 -41.5t-54 -121.5h-49q8 94 67 150.5t149 56.5q91 0 146 -48t55 -129q0 -45 -23.5 -89t-52 -73t-84.5 -80l-182 -163h353v-45h-452z" />
    <glyph glyph-name="uni043B.bgr" horiz-adv-x="518" 
d="M292 523l200 -523h-57l-178 470l-177 -470h-55l198 523h69z" />
    <glyph glyph-name="one.oldtab" 
d="M327 0v560l-219 -164v52l226 171h47v-619h-54z" />
    <glyph glyph-name="zero.oldtab" 
d="M302 -8q-113 0 -179 74.5t-66 198.5v88q0 124 65.5 199t177.5 75q111 0 177.5 -74.5t66.5 -197.5v-87q0 -126 -64.5 -201t-177.5 -75zM302 38q91 0 138.5 59.5t47.5 170.5v87q0 104 -49.5 165.5t-138.5 61.5t-138.5 -61t-49.5 -168v-87q0 -109 50 -168.5t140 -59.5z" />
    <glyph glyph-name="uni043D.bgr" horiz-adv-x="573" 
d="M437 0v248h-301v-248h-53v523h53v-230h301v230h53v-523h-53z" />
    <glyph glyph-name="yen.oldtab" 
d="M101 296v38h167l-205 360h59l183 -330l173 330h52l-191 -360h165v-38h-174v-94h174v-38h-174v-164h-53v164h-176v38h176v94h-176z" />
    <glyph glyph-name="sterling.oldtab" 
d="M58 318v40h68q-22 79 -22 145q0 88 59 143t151 55q91 0 143.5 -47.5t60.5 -129.5h-52q-11 65 -47 98.5t-105 33.5t-112 -42t-43 -111q0 -57 22 -145h223v-40h-212q18 -72 18 -133q0 -42 -18 -80q34 -5 104.5 -35.5t102.5 -30.5q94 0 100 100h47q-4 -67 -41.5 -107
t-99.5 -40q-48 0 -125 35.5t-106 35.5q-33 0 -52 -18t-23 -45h-48q4 36 28 66.5t64 38.5q18 36 18 80q0 51 -23 133h-80z" />
    <glyph glyph-name="uni043F.bgr" horiz-adv-x="583" 
d="M82 0v523h53v-102q19 46 69 78t116 32q87 0 136.5 -51t49.5 -158v-322h-53v325q0 160 -145 160q-70 0 -121.5 -45t-51.5 -123v-317h-53z" />
    <glyph glyph-name="Euro.oldtab" 
d="M34 393v38h60q4 126 66 198t170 72q90 0 143 -51.5t65 -145.5h-51q-22 153 -157 153q-86 0 -132.5 -58.5t-49.5 -167.5h227l-8 -38h-219v-94h201l-7 -38h-194q8 -224 183 -224q142 0 168 168h50q-12 -101 -69 -157t-149 -56q-108 0 -170.5 71t-66.5 198h-60v38h60v94h-60
z" />
    <glyph glyph-name="dollar.oldtab" 
d="M126 524q0 -56 33.5 -87.5t122.5 -48.5v268q-73 -3 -114.5 -38t-41.5 -94zM487 185q0 68 -36.5 100.5t-129.5 48.5v-298q76 4 121 45.5t45 103.5zM282 -133v126q-111 6 -166.5 62t-65.5 144h52q10 -71 50.5 -114t129.5 -49v305q-106 18 -156 59.5t-50 119.5q0 77 57 127
t149 54v88h39v-89q86 -6 137.5 -51t62.5 -122h-49q-24 119 -151 129v-274q116 -19 167.5 -60.5t51.5 -132.5q0 -81 -60.5 -137t-158.5 -60v-125h-39z" />
    <glyph glyph-name="braceright.tab" horiz-adv-x="300" 
d="M39 -146v42q70 1 97.5 35t11.5 121l-24 120q-20 105 90 144q-110 39 -90 144l24 120q16 87 -11.5 121t-97.5 35v42q96 0 138 -46.5t21 -152.5l-23 -114q-24 -112 98 -129v-40q-122 -17 -98 -129l23 -114q21 -106 -21 -152.5t-138 -46.5z" />
    <glyph glyph-name="uni0442.bgr" horiz-adv-x="904" 
d="M82 0v523h53v-99q19 46 64.5 76.5t106.5 30.5q129 0 160 -117q24 55 75 86t111 31q81 0 128 -49t47 -155v-327h-53v330q0 81 -33 118t-98 37t-113.5 -44.5t-48.5 -121.5v-319h-53v330q0 81 -33 118t-98 37t-113.5 -44.5t-48.5 -121.5v-319h-53z" />
    <glyph glyph-name="braceleft.tab" horiz-adv-x="300" 
d="M261 -146q-96 0 -138 46.5t-21 152.5l23 114q24 112 -98 129v40q122 17 98 129l-23 114q-21 106 21 152.5t138 46.5v-42q-70 -1 -97.5 -35t-11.5 -121l24 -120q20 -105 -90 -144q110 -39 90 -144l-24 -120q-16 -87 12 -121t97 -35v-42z" />
    <glyph glyph-name="bracketright.tab" horiz-adv-x="300" 
d="M39 -148v43h132v838h-132v43h185v-924h-185z" />
    <glyph glyph-name="bracketleft.tab" horiz-adv-x="300" 
d="M76 -148v924h185v-43h-132v-838h132v-43h-185z" />
    <glyph glyph-name="parenright.tab" horiz-adv-x="300" 
d="M35 -148q147 208 147 460q0 253 -147 461h53q149 -199 149 -461q0 -261 -149 -460h-53z" />
    <glyph glyph-name="uni0446.bgr" horiz-adv-x="599" 
d="M572 -127h-43l-5 127h-80v100q-19 -46 -68 -77t-115 -31q-86 0 -135 48.5t-49 151.5v331h53v-328q0 -157 143 -157q69 0 120 44.5t51 122.5v318h53v-478h75v-172z" />
    <glyph glyph-name="parenleft.tab" horiz-adv-x="300" 
d="M212 -148q-148 200 -148 460q0 261 148 461h54q-147 -208 -147 -461q0 -252 147 -460h-54z" />
    <glyph glyph-name="uni0447.bgr" horiz-adv-x="558" 
d="M465 0h-53v263q-63 -74 -167 -74q-81 0 -128.5 48.5t-47.5 152.5v133h53v-131q0 -157 135 -157q91 0 155 81v207h53v-523z" />
    <glyph glyph-name="semicolon.tab" horiz-adv-x="300" 
d="M155 320q-18 0 -30.5 12t-12.5 30t12.5 30t30.5 12q17 0 29.5 -12t12.5 -30t-12.5 -30t-29.5 -12zM91 -117l-36 18l78 183l52 -24z" />
    <glyph glyph-name="uni0448.bgr" horiz-adv-x="904" 
d="M824 523v-523h-53v101q-19 -46 -65 -77.5t-106 -31.5q-129 0 -160 117q-24 -54 -75 -85.5t-111 -31.5q-81 0 -128 49t-47 155v327h54v-330q0 -81 33 -118t98 -37t113 44.5t48 121.5v319h53v-330q0 -81 33 -118t99 -37q65 0 113 45t48 123v317h53z" />
    <glyph glyph-name="colon.tab" horiz-adv-x="300" 
d="M150 320q-17 0 -29.5 12t-12.5 30t12.5 30t29.5 12q18 0 30 -12t12 -30t-12 -30t-30 -12zM150 -5q-17 0 -29.5 12.5t-12.5 29.5q0 18 12.5 30.5t29.5 12.5q18 0 30 -12.5t12 -30.5q0 -17 -12 -29.5t-30 -12.5z" />
    <glyph glyph-name="uni0449.bgr" horiz-adv-x="926" 
d="M899 -127h-43l-4 127h-81v101q-19 -46 -65 -77.5t-106 -31.5q-129 0 -160 117q-24 -54 -75 -85.5t-111 -31.5q-81 0 -128 49t-47 155v327h54v-330q0 -81 33 -118t98 -37t113 44.5t48 121.5v319h53v-330q0 -81 33 -118t99 -37q65 0 113 45t48 123v317h53v-478h75v-172z
" />
    <glyph glyph-name="comma.tab" horiz-adv-x="300" 
d="M105 -117l-37 18l78 183l52 -24z" />
    <glyph glyph-name="uni044A.bgr" horiz-adv-x="575" 
d="M175 478h-152v45h205v-200q59 11 112 11q92 0 146 -42t54 -123v-3q0 -81 -53 -127t-132 -46q-84 0 -132 47t-48 132v306zM355 34q62 0 97 36t35 94v3q0 60 -37 92.5t-110 32.5q-64 0 -112 -12v-108q0 -64 32.5 -101t94.5 -37z" />
    <glyph glyph-name="period.tab" horiz-adv-x="300" 
d="M150 -5q-17 0 -29.5 12.5t-12.5 29.5q0 18 12.5 30.5t29.5 12.5q18 0 30 -12.5t12 -30.5q0 -17 -12 -29.5t-30 -12.5z" />
    <glyph glyph-name="greaterequal.tab" 
d="M114 117v52l304 159l-304 160v52l384 -205v-13zM114 0v45h384v-45h-384z" />
    <glyph glyph-name="uni044C.bgr" horiz-adv-x="480" 
d="M261 -7q-85 0 -133 47t-48 132v351h53v-200q59 11 112 11q93 0 146.5 -42t53.5 -123v-3q0 -81 -53 -127t-131 -46zM261 34q62 0 96.5 36t34.5 94v3q0 60 -37 92.5t-109 32.5q-65 0 -113 -12v-108q0 -64 33 -101t95 -37z" />
    <glyph glyph-name="lessequal.tab" 
d="M487 117l-384 205v13l384 205v-52l-304 -160l304 -159v-52zM103 0v45h384v-45h-384z" />
    <glyph glyph-name="greater.tab" 
d="M114 104v52l305 166l-305 166v52l384 -211v-14z" />
    <glyph glyph-name="uni044E.bgr" horiz-adv-x="772" 
d="M485 -8q-103 0 -170 71.5t-71 184.5h-108v-248h-53v773h53v-480h109q8 106 75.5 172t166.5 66q106 0 173.5 -73t67.5 -192v-8q0 -118 -68 -192t-175 -74zM486 37q85 0 136.5 59.5t51.5 160.5v8q0 102 -51.5 161.5t-135.5 59.5q-85 0 -137 -60t-52 -161v-8
q0 -100 51.5 -160t136.5 -60z" />
    <glyph glyph-name="less.tab" 
d="M487 104l-384 211v14l384 211v-52l-306 -166l306 -166v-52z" />
    <glyph glyph-name="approxequal.tab" 
d="M93 347q5 47 32.5 74.5t70.5 27.5q40 0 110 -27t100 -27q25 0 41 15.5t18 40.5h43q-5 -48 -32.5 -75t-69.5 -27q-41 0 -111.5 26.5t-99.5 26.5q-51 0 -60 -55h-42zM93 180q5 47 32.5 74.5t70.5 27.5q40 0 110 -26.5t100 -26.5q25 0 41 15.5t18 39.5h43q-5 -48 -32.5 -75
t-69.5 -27q-41 0 -111.5 26.5t-99.5 26.5q-51 0 -60 -55h-42z" />
    <glyph glyph-name="notequal.tab" 
d="M98 380v46h225l50 117h49l-51 -117h131v-46h-150l-52 -121h202v-46h-222l-50 -117h-49l50 117h-133v46h153l52 121h-205z" />
    <glyph glyph-name="equal.tab" 
d="M98 380v46h404v-46h-404zM98 213v46h404v-46h-404z" />
    <glyph glyph-name="divide.tab" 
d="M300 477q-17 0 -29.5 12.5t-12.5 30.5q0 17 12.5 29.5t29.5 12.5q18 0 30 -12.5t12 -29.5q0 -18 -12 -30.5t-30 -12.5zM82 319v46h437v-46h-437zM300 122q-17 0 -29.5 12.5t-12.5 30.5q0 17 12.5 29.5t29.5 12.5q18 0 30 -12.5t12 -29.5q0 -18 -12 -30.5t-30 -12.5z" />
    <glyph glyph-name="multiply.tab" 
d="M135 143l-31 31l161 160l-161 161l31 32l160 -161l161 161l32 -32l-161 -161l161 -160l-32 -31l-161 160z" />
    <glyph glyph-name="plusminus.tab" 
d="M276 131v199h-194v45h194v199h48v-199h195v-45h-195v-199h-48zM82 0v45h437v-45h-437z" />
    <glyph glyph-name="minus.tab" 
d="M82 319v46h437v-46h-437z" />
    <glyph glyph-name="plus.tab" 
d="M276 110v209h-194v46h194v209h48v-209h195v-46h-195v-209h-48z" />
    <glyph glyph-name="perthousand.tab" horiz-adv-x="1000" 
d="M185 413q-58 0 -99 42t-41 110q0 70 41 113t99 43t98.5 -42.5t40.5 -111.5t-41 -111.5t-98 -42.5zM85 0l455 715h51l-456 -715h-50zM185 455q40 0 65.5 31t25.5 81t-25.5 81.5t-65.5 31.5t-65.5 -31.5t-25.5 -82.5q0 -50 25.5 -80.5t65.5 -30.5zM815 -7q-56 0 -97 42.5
t-41 110.5q0 70 40.5 113t97.5 43q59 0 99.5 -42.5t40.5 -111.5q0 -70 -41 -112.5t-99 -42.5zM492 -7q-57 0 -98 42.5t-41 110.5q0 70 40.5 113t98.5 43q59 0 99 -42.5t40 -111.5q0 -70 -40.5 -112.5t-98.5 -42.5zM815 35q40 0 65.5 31t25.5 82q0 50 -25 81t-66 31
q-40 0 -65 -31t-25 -82t25 -81.5t65 -30.5zM492 35q40 0 65.5 31t25.5 82q0 50 -25.5 81t-65.5 31t-65.5 -31t-25.5 -82t25.5 -81.5t65.5 -30.5z" />
    <glyph glyph-name="percent.tab" horiz-adv-x="800" 
d="M205 398q-63 0 -110 44.5t-47 114.5t46.5 116.5t110.5 46.5q65 0 110.5 -46t45.5 -115q0 -71 -46 -116t-110 -45zM147 0l456 715h50l-456 -715h-50zM205 440q47 0 77 31.5t30 87.5q0 54 -30 86.5t-77 32.5q-46 0 -76.5 -32.5t-30.5 -88.5q0 -55 30 -86t77 -31zM595 -7
q-63 0 -109.5 45t-46.5 115t46 116.5t110 46.5q65 0 111 -46t46 -115q0 -71 -46.5 -116.5t-110.5 -45.5zM595 36q47 0 77 31.5t30 87.5q0 54 -30 86t-77 32q-46 0 -76.5 -32.5t-30.5 -87.5t30 -86t77 -31z" />
    <glyph glyph-name="florin.tab" 
d="M111 359v44h121l24 155q25 166 171 166q37 0 70 -11v-46q-30 12 -69 12q-101 0 -120 -124l-23 -152h168v-44h-175l-82 -541h-53l82 541h-114z" />
    <glyph glyph-name="yen.tab" 
d="M98 305v39h173l-212 371h61l189 -340l177 340h55l-198 -371h171v-39h-180v-97h180v-39h-180v-169h-54v169h-182v39h182v97h-182z" />
    <glyph glyph-name="sterling.tab" 
d="M52 327v41h71q-24 83 -24 151q0 91 60.5 147.5t153.5 56.5q92 0 146 -49.5t62 -133.5h-54q-11 68 -47.5 102t-106.5 34t-113.5 -43.5t-43.5 -113.5q0 -63 23 -151h229v-41h-218q19 -78 19 -137q0 -45 -19 -81q32 -5 105 -37t107 -32q94 0 101 104h48q-5 -69 -43 -110.5
t-101 -41.5q-49 0 -128.5 36.5t-109.5 36.5q-33 0 -52.5 -18.5t-23.5 -46.5h-48q4 37 28.5 69t66.5 40q19 35 19 81q0 54 -24 137h-83z" />
    <glyph glyph-name="uni045D.bgr" horiz-adv-x="579" 
d="M261 -8q-86 0 -135 48.5t-49 151.5v331h53v-328q0 -157 143 -157q69 0 120 44.5t51 122.5v318h53v-523h-53v100q-19 -46 -68 -77t-115 -31zM274 605l-92 147h65l68 -147h-41z" />
    <glyph glyph-name="space.tab" horiz-adv-x="300" 
 />
    <glyph glyph-name="nine.old" horiz-adv-x="582" 
d="M285 219q77 0 130 47.5t53 125.5q0 84 -48.5 137.5t-136.5 53.5q-81 0 -130 -50.5t-49 -131.5q0 -83 47.5 -132.5t133.5 -49.5zM273 -104q-87 0 -144.5 45t-69.5 124h52q12 -58 54 -91t111 -33q99 0 147.5 73.5t49.5 235.5v43q-22 -56 -76.5 -87t-118.5 -31
q-106 0 -167.5 63.5t-61.5 160.5q0 102 64.5 165t169.5 63q127 0 185.5 -80.5t58.5 -216.5v-69q0 -365 -254 -365z" />
    <glyph glyph-name="eight.old" horiz-adv-x="572" 
d="M287 -8q-98 0 -168.5 54.5t-70.5 150.5q0 71 44 119t113 66q-57 17 -92 58t-35 101q0 81 62.5 131.5t146.5 50.5t145.5 -50.5t61.5 -129.5q0 -62 -34 -102.5t-91 -57.5q71 -20 113 -66.5t42 -117.5q0 -97 -69 -152t-168 -55zM290 402q65 0 107.5 37.5t42.5 103.5
q0 59 -44 97.5t-109 38.5q-66 0 -110 -38t-44 -100q0 -64 46.5 -101.5t110.5 -37.5zM287 38q80 0 131 42t51 120q0 74 -52 116t-128 42q-77 0 -131 -43t-54 -117q0 -76 52.5 -118t130.5 -42z" />
    <glyph glyph-name="seven.old" horiz-adv-x="499" 
d="M132 -97l277 671h-382v44h450v-9l-290 -706h-55z" />
    <glyph glyph-name="six.old" horiz-adv-x="582" 
d="M298 -8q-126 0 -185 81t-59 214v66q0 185 72 277.5t193 92.5q79 0 130.5 -41t64.5 -118h-52q-24 114 -146 114q-94 0 -150 -77t-57 -237v-38q22 55 76.5 86.5t118.5 31.5q106 0 167.5 -63.5t61.5 -161.5q0 -101 -64.5 -164t-170.5 -63zM298 35q81 0 130.5 50.5
t49.5 131.5q0 84 -47.5 133.5t-133.5 49.5q-77 0 -130 -48t-53 -125q0 -83 48.5 -137.5t135.5 -54.5z" />
    <glyph glyph-name="five.old" horiz-adv-x="550" 
d="M264 -104q-102 0 -161 52.5t-66 134.5h50q10 -64 53 -103.5t123 -39.5q83 0 131.5 52t48.5 141q0 83 -47 133t-120 50q-113 0 -177 -76h-20v379h383v-47h-338v-270q56 58 160 58q93 0 153.5 -61.5t60.5 -165.5q0 -108 -65.5 -172.5t-168.5 -64.5z" />
    <glyph glyph-name="uni20B4.old" horiz-adv-x="563" 
d="M274 -8q-99 0 -157.5 43.5t-58.5 124.5q0 67 40 112h-68v38h114q30 20 136 69q40 18 54 25h-304v38h363q42 38 42 107q0 54 -37 81t-104 27q-144 0 -167 -125h-49q11 81 66.5 125t149.5 44q89 0 141.5 -39t52.5 -113q0 -64 -37 -107h82v-38h-126q-39 -25 -117 -60
q-51 -23 -70 -34h313v-38h-373q-48 -41 -48 -111q0 -61 44 -93t118 -32q167 0 189 157h52q-11 -90 -70.5 -145.5t-170.5 -55.5z" />
    <glyph glyph-name="uni20B4.oldtab" 
d="M293 -8q-98 0 -156.5 43.5t-58.5 124.5q0 67 40 112h-68v38h114q30 20 136 69q40 18 54 25h-304v38h363q42 38 42 107q0 54 -37 81t-104 27q-144 0 -168 -125h-49q11 81 67 125t150 44q88 0 140.5 -39t52.5 -113q0 -64 -37 -107h83v-38h-127q-37 -24 -116 -60
q-40 -18 -71 -34h314v-38h-373q-48 -41 -48 -111q0 -61 43.5 -93t117.5 -32q167 0 189 157h53q-11 -90 -71 -145.5t-171 -55.5z" />
    <glyph glyph-name="uni20B4.tab" 
d="M291 -8q-96 0 -153.5 45t-57.5 128q0 69 39 116h-68v39h112q34 24 135 71q21 9 55 26h-302v39h357q39 39 39 110q0 111 -134 111q-138 0 -162 -128h-51q11 83 66 128.5t147 45.5q86 0 137 -40.5t51 -116.5q0 -66 -35 -110h82v-39h-124q-35 -26 -116 -62q-40 -18 -70 -35
h310v-39h-367q-45 -42 -45 -114q0 -63 42 -96t113 -33q162 0 184 162h54q-11 -92 -70 -150t-168 -58z" />
    <glyph glyph-name="four.old" horiz-adv-x="595" 
d="M402 -97v163h-373v17l350 535h77v-508h100v-44h-100v-163h-54zM100 110h302v467z" />
    <glyph glyph-name="uni20B8.old" horiz-adv-x="544" 
d="M514 656h-484v38h484v-38zM245 0v523h-215v44h484v-44h-215v-523h-54z" />
    <glyph glyph-name="uni20B8.oldtab" 
d="M541 656h-484v38h484v-38zM272 0v523h-215v44h484v-44h-215v-523h-54z" />
    <glyph glyph-name="uni20B8.tab" 
d="M544 674h-488v41h488v-41zM272 0v539h-216v46h488v-46h-216v-539h-56z" />
    <glyph glyph-name="three.old" horiz-adv-x="565" 
d="M279 -104q-108 0 -173 60.5t-69 149.5h51q6 -73 54.5 -119.5t137.5 -46.5q87 0 133.5 42t46.5 119q0 72 -44 113.5t-126 41.5h-52v46h48q74 0 111 38t37 99q0 64 -39 103.5t-109 39.5q-73 0 -118.5 -41.5t-53.5 -109.5h-48q5 83 66 139.5t154 56.5q92 0 146.5 -53.5
t54.5 -132.5q0 -60 -32 -101t-86 -58q66 -14 106 -61t40 -120q0 -95 -65 -150t-171 -55z" />
    <glyph glyph-name="uni20BD.old" horiz-adv-x="590" 
d="M186 346h136q180 0 180 157v4q0 153 -181 153h-135v-314zM431 170h-245v-170h-55v170h-99v38h99v94h-99v38h99v365h186q111 0 176 -48t65 -150v-4q0 -103 -65 -152.5t-174 -49.5h-133v-93h245v-38z" />
    <glyph glyph-name="uni20BD.oldtab" 
d="M194 340h120q180 0 180 154v4q0 81 -46.5 115.5t-134.5 34.5h-119v-308zM424 164h-230v-164h-55v164h-99v37h99v95h-99v37h99v361h171q110 0 175 -47t65 -149v-4q0 -103 -64.5 -151t-174.5 -48h-117v-94h230v-37z" />
    <glyph glyph-name="uni20BD.tab" 
d="M191 351h128q183 0 183 159v4q0 155 -185 155h-126v-318zM437 176h-246v-176h-55v176h-100v38h100v98h-100v38h100v365h178q111 0 177 -49t66 -152v-4q0 -105 -65.5 -154.5t-176.5 -49.5h-124v-92h246v-38z" />
    <glyph glyph-name="two.old" horiz-adv-x="527" 
d="M24 0v13l252 229q46 41 71.5 68t44 64t18.5 76q0 62 -39 97.5t-107 35.5q-69 0 -112.5 -41.5t-53.5 -121.5h-50q8 94 67 150.5t149 56.5q91 0 146 -48t55 -129q0 -45 -23.5 -89t-52 -73t-84.5 -80l-182 -163h353v-45h-452z" />
    <glyph glyph-name="one.old" horiz-adv-x="361" 
d="M191 0v561l-162 -112v51l170 119h46v-619h-54z" />
    <glyph glyph-name="zero.old" horiz-adv-x="626" 
d="M313 -8q-117 0 -190 81t-73 216v41q0 136 72.5 216.5t190.5 80.5q117 0 189.5 -80t72.5 -215v-41q0 -137 -71.5 -218t-190.5 -81zM314 38q96 0 151 66t55 187v40q0 117 -56.5 184t-150.5 67t-150.5 -67t-56.5 -185v-41q0 -119 56.5 -185t151.5 -66z" />
    <glyph glyph-name="yen.old" horiz-adv-x="536" 
d="M68 296v38h166l-209 360h59l188 -330l178 330h53l-196 -360h165v-38h-174v-94h174v-38h-174v-164h-54v164h-176v38h176v94h-176z" />
    <glyph glyph-name="sterling.old" horiz-adv-x="579" 
d="M48 318v40h68q-23 82 -23 145q0 88 59.5 143t150.5 55t143.5 -47.5t60.5 -129.5h-52q-11 65 -47 98.5t-105 33.5t-111.5 -42t-42.5 -111q0 -64 22 -145h222v-40h-212q18 -80 18 -133q0 -42 -18 -80q34 -5 104.5 -35.5t103.5 -30.5q93 0 100 100h46q-4 -67 -41.5 -107
t-99.5 -40q-48 0 -125 35.5t-106 35.5q-33 0 -52 -18t-23 -45h-47q4 36 27.5 66t63.5 38q19 40 19 81q0 54 -24 133h-79z" />
    <glyph glyph-name="dollar.old" horiz-adv-x="588" 
d="M118 524q0 -56 34 -87.5t122 -48.5v268q-73 -3 -114.5 -38t-41.5 -94zM480 185q0 68 -36.5 100.5t-129.5 48.5v-298q76 4 121 45.5t45 103.5zM274 -133v126q-110 6 -165.5 62t-66.5 144h53q9 -70 49.5 -113.5t129.5 -49.5v305q-106 18 -156 60t-50 119t57 126.5t149 53.5
v89h40v-89q85 -6 137 -51t62 -122h-49q-24 119 -150 129v-274q116 -19 167 -60.5t51 -132.5q0 -81 -60 -137t-158 -60v-125h-40z" />
    <glyph glyph-name="space_uni0326" horiz-adv-x="400" 
d="M174 -204l-34 16l58 147l51 -15z" />
    <glyph glyph-name="idotaccent" horiz-adv-x="221" 
d="M110 635q-16 0 -27 11t-11 27q0 15 11 26t27 11t26.5 -11t10.5 -26q0 -16 -10.5 -27t-26.5 -11zM84 0v523h53v-523h-53z" />
    </font>
</defs>
</svg>
