<svg xmlns="http://www.w3.org/2000/svg"  height="40px" width="40px"><path xmlns="http://www.w3.org/2000/svg" fill="#000" fill-opacity="1" fill-rule="evenodd" d="M27.5 24c-2.201-.001-4.869-1.564-5.94-3.493L21.278 20l.282-.507C22.63 17.564 25.299 16 27.5 16v2l3-2.5-3-2.5v2h-.507c-2.363 0-5.184 1.592-6.493 3.625C19.191 16.592 16.37 15 14.007 15h-2.004a.507.507 0 0 0-.503.5c0 .268.22.5.491.5h1.507c2.202 0 4.87 1.564 5.942 3.493l.282.507-.282.507C18.37 22.437 15.7 24 13.498 24H11.99a.5.5 0 0 0-.491.5c0 .276.233.5.503.5h2.004c2.363 0 5.184-1.592 6.493-3.625C21.809 23.408 24.63 25 26.993 25h.507v2l3-2.5-3-2.5v2z" /></svg>